HYb2gj.sfdir
StartChar: uni001F
Encoding: 31 31 32
Width: 1024
Flags: W
LayerCount: 2
Back
Fore
SplineSet
1005 1326 m 1,0,-1
 527 275 l 1,1,-1
 24 1327 l 1,2,-1
 1005 1326 l 1,0,-1
EndSplineSet
Validated: 1
EndChar
StartChar: uni001F
Encoding: 288 31 32
Width: 1024
Flags: W
LayerCount: 3
Back
Fore
SplineSet
1005 1326 m 1,0,-1
 527 275 l 1,1,-1
 24 1327 l 1,2,-1
 1005 1326 l 1,0,-1
EndSplineSet
Validated: 1
Layer: 2
EndChar
StartChar: quotedbl
Encoding: 34 34 35
Width: 938
Flags: W
LayerCount: 2
Back
Fore
SplineSet
197 905 m 1,0,-1
 147 1362 l 1,1,-1
 147 1544 l 1,2,-1
 377 1544 l 1,3,-1
 377 1362 l 1,4,-1
 330 905 l 1,5,-1
 197 905 l 1,0,-1
610 905 m 1,6,-1
 561 1362 l 1,7,-1
 561 1544 l 1,8,-1
 791 1544 l 1,9,-1
 791 1362 l 1,10,-1
 741 905 l 1,11,-1
 610 905 l 1,6,-1
EndSplineSet
Validated: 1
EndChar
StartChar: percent
Encoding: 37 37 38
Width: 2017
Flags: W
LayerCount: 2
Back
Fore
SplineSet
549 -37 m 1,0,-1
 1292 1497 l 1,1,-1
 1464 1497 l 1,2,-1
 721 -37 l 1,3,-1
 549 -37 l 1,0,-1
1579 -37 m 0,4,5
 1484 -37 1484 -37 1416 -6 c 128,-1,6
 1348 25 1348 25 1304.5 84 c 128,-1,7
 1261 143 1261 143 1240 229 c 128,-1,8
 1219 315 1219 315 1219 426 c 0,9,10
 1219 536 1219 536 1240 621.5 c 128,-1,11
 1261 707 1261 707 1304.5 765.5 c 128,-1,12
 1348 824 1348 824 1416 854.5 c 128,-1,13
 1484 885 1484 885 1579 885 c 0,14,15
 1718 885 1718 885 1802 817.5 c 128,-1,16
 1886 750 1886 750 1914 642.5 c 128,-1,17
 1942 535 1942 535 1942 426 c 0,18,19
 1942 315 1942 315 1920.5 229 c 128,-1,20
 1899 143 1899 143 1854.5 84 c 128,-1,21
 1810 25 1810 25 1741.5 -6 c 128,-1,22
 1673 -37 1673 -37 1579 -37 c 0,4,5
1579 100 m 0,23,24
 1680 100 1680 100 1726 183.5 c 128,-1,25
 1772 267 1772 267 1772 424 c 0,26,27
 1772 583 1772 583 1726.5 665.5 c 128,-1,28
 1681 748 1681 748 1579 748 c 0,29,30
 1479 748 1479 748 1434 665.5 c 128,-1,31
 1389 583 1389 583 1389 424 c 0,32,33
 1389 266 1389 266 1434 183 c 128,-1,34
 1479 100 1479 100 1579 100 c 0,23,24
434 575 m 256,35,36
 340 575 340 575 272 605.5 c 128,-1,37
 204 636 204 636 160 695 c 128,-1,38
 116 754 116 754 95 839.5 c 128,-1,39
 74 925 74 925 74 1036 c 0,40,41
 74 1146 74 1146 95 1231.5 c 128,-1,42
 116 1317 116 1317 160 1376 c 128,-1,43
 204 1435 204 1435 272 1466 c 128,-1,44
 340 1497 340 1497 434 1497 c 0,45,46
 572 1497 572 1497 657 1429.5 c 128,-1,47
 742 1362 742 1362 770.5 1253.5 c 128,-1,48
 799 1145 799 1145 799 1036 c 0,49,50
 799 926 799 926 777 840.5 c 128,-1,51
 755 755 755 755 710 696 c 128,-1,52
 665 637 665 637 596.5 606 c 128,-1,53
 528 575 528 575 434 575 c 256,35,36
434 713 m 0,54,55
 536 713 536 713 582.5 795.5 c 128,-1,56
 629 878 629 878 629 1036 c 0,57,58
 629 1193 629 1193 582 1276.5 c 128,-1,59
 535 1360 535 1360 434 1360 c 0,60,61
 336 1360 336 1360 291 1276.5 c 128,-1,62
 246 1193 246 1193 246 1036 c 256,63,64
 246 879 246 879 291 796 c 128,-1,65
 336 713 336 713 434 713 c 0,54,55
EndSplineSet
Validated: 1
EndChar
StartChar: quotesingle
Encoding: 296 39 40
Width: 520
Flags: W
LayerCount: 3
Back
Fore
SplineSet
195 905 m 1,0,-1
 145 1362 l 1,1,-1
 145 1544 l 1,2,-1
 375 1544 l 1,3,-1
 375 1362 l 1,4,-1
 326 905 l 1,5,-1
 195 905 l 1,0,-1
EndSplineSet
Validated: 1
Layer: 2
EndChar
StartChar: parenleft
Encoding: 40 40 41
Width: 604
Flags: W
LayerCount: 2
Back
Fore
SplineSet
424 -399 m 1,0,1
 358 -322 358 -322 296 -223.5 c 128,-1,2
 234 -125 234 -125 186 -3.5 c 128,-1,3
 138 118 138 118 109 263.5 c 128,-1,4
 80 409 80 409 80 580 c 0,5,6
 80 812 80 812 138 1015 c 128,-1,7
 196 1218 196 1218 277 1347.5 c 128,-1,8
 358 1477 358 1477 424 1554 c 1,9,-1
 557 1473 l 1,10,11
 509 1404 509 1404 460 1309 c 128,-1,12
 411 1214 411 1214 371.5 1099 c 128,-1,13
 332 984 332 984 307.5 852.5 c 128,-1,14
 283 721 283 721 283 580 c 0,15,16
 283 380 283 380 332.5 188.5 c 128,-1,17
 382 -3 382 -3 445 -125 c 128,-1,18
 508 -247 508 -247 557 -315 c 1,19,-1
 424 -399 l 1,0,1
EndSplineSet
Validated: 1
EndChar
StartChar: parenright
Encoding: 41 41 42
Width: 604
Flags: W
LayerCount: 2
Back
Fore
SplineSet
180 -399 m 1,0,-1
 47 -315 l 1,1,2
 127 -202 127 -202 195 -44 c 128,-1,3
 263 114 263 114 293.5 275.5 c 128,-1,4
 324 437 324 437 324 580 c 0,5,6
 324 721 324 721 299 852.5 c 128,-1,7
 274 984 274 984 234 1099 c 128,-1,8
 194 1214 194 1214 144.5 1309 c 128,-1,9
 95 1404 95 1404 47 1473 c 1,10,-1
 180 1554 l 1,11,12
 246 1477 246 1477 308 1378.5 c 128,-1,13
 370 1280 370 1280 418 1159 c 128,-1,14
 466 1038 466 1038 495 893.5 c 128,-1,15
 524 749 524 749 524 580 c 0,16,17
 524 337 524 337 464.5 134.5 c 128,-1,18
 405 -68 405 -68 325 -195 c 128,-1,19
 245 -322 245 -322 180 -399 c 1,0,-1
EndSplineSet
Validated: 1
EndChar
StartChar: plus
Encoding: 300 43 44
Width: 1227
Flags: W
LayerCount: 3
Back
Fore
SplineSet
526 178 m 1,0,-1
 526 649 l 1,1,-1
 66 649 l 1,2,-1
 66 813 l 1,3,-1
 526 813 l 1,4,-1
 526 1284 l 1,5,-1
 700 1284 l 1,6,-1
 700 813 l 1,7,-1
 1161 813 l 1,8,-1
 1161 649 l 1,9,-1
 700 649 l 1,10,-1
 700 178 l 1,11,-1
 526 178 l 1,0,-1
EndSplineSet
Validated: 1
Layer: 2
EndChar
StartChar: two
Encoding: 307 50 51
Width: 1227
Flags: W
LayerCount: 3
Back
Fore
SplineSet
94 0 m 1,0,-1
 94 78 l 2,1,2
 94 193 94 193 147.5 288.5 c 128,-1,3
 201 384 201 384 279 458 c 128,-1,4
 357 532 357 532 401 562 c 128,-1,5
 445 592 445 592 606 700 c 0,6,7
 710 769 710 769 774.5 835 c 128,-1,8
 839 901 839 901 867 969 c 128,-1,9
 895 1037 895 1037 895 1102 c 0,10,11
 895 1165 895 1165 879 1213.5 c 128,-1,12
 863 1262 863 1262 819 1307 c 0,13,14
 784 1344 784 1344 728.5 1363 c 128,-1,15
 673 1382 673 1382 610 1382 c 0,16,17
 545 1382 545 1382 497 1364 c 128,-1,18
 449 1346 449 1346 412 1315 c 0,19,20
 358 1268 358 1268 328 1204.5 c 128,-1,21
 298 1141 298 1141 283 1067 c 1,22,-1
 92 1102 l 1,23,24
 140 1315 140 1315 270 1429.5 c 128,-1,25
 400 1544 400 1544 618 1544 c 0,26,27
 756 1544 756 1544 848.5 1504.5 c 128,-1,28
 941 1465 941 1465 995 1405 c 0,29,30
 1035 1359 1035 1359 1059.5 1312 c 128,-1,31
 1084 1265 1084 1265 1093 1209.5 c 128,-1,32
 1102 1154 1102 1154 1102 1100 c 0,33,34
 1102 983 1102 983 1049 884 c 128,-1,35
 996 785 996 785 919 718 c 128,-1,36
 842 651 842 651 766 598 c 0,37,38
 672 533 672 533 585 475 c 128,-1,39
 498 417 498 417 436 360 c 0,40,41
 387 314 387 314 356.5 268 c 128,-1,42
 326 222 326 222 313 172 c 1,43,-1
 1114 172 l 1,44,-1
 1114 0 l 1,45,-1
 94 0 l 1,0,-1
EndSplineSet
Validated: 1
Layer: 2
EndChar
StartChar: eight
Encoding: 56 56 57
Width: 1227
Flags: W
LayerCount: 2
Back
Fore
SplineSet
612 -37 m 256,0,1
 470 -37 470 -37 365 -2.5 c 128,-1,2
 260 32 260 32 191 92.5 c 128,-1,3
 122 153 122 153 88.5 234 c 128,-1,4
 55 315 55 315 55 408 c 0,5,6
 55 500 55 500 89.5 577 c 128,-1,7
 124 654 124 654 186.5 704 c 128,-1,8
 249 754 249 754 319 782 c 1,9,10
 262 812 262 812 221 850 c 128,-1,11
 180 888 180 888 154 932 c 128,-1,12
 128 976 128 976 116 1025 c 128,-1,13
 104 1074 104 1074 104 1126 c 0,14,15
 104 1213 104 1213 134.5 1289 c 128,-1,16
 165 1365 165 1365 228 1422 c 128,-1,17
 291 1479 291 1479 386.5 1511.5 c 128,-1,18
 482 1544 482 1544 612 1544 c 0,19,20
 743 1544 743 1544 839 1511.5 c 128,-1,21
 935 1479 935 1479 998 1422 c 128,-1,22
 1061 1365 1061 1365 1091.5 1289 c 128,-1,23
 1122 1213 1122 1213 1122 1126 c 0,24,25
 1122 1045 1122 1045 1094 976.5 c 128,-1,26
 1066 908 1066 908 1015.5 860 c 128,-1,27
 965 812 965 812 907 782 c 1,28,29
 1008 741 1008 741 1070 674.5 c 128,-1,30
 1132 608 1132 608 1151.5 538 c 128,-1,31
 1171 468 1171 468 1171 408 c 0,32,33
 1171 265 1171 265 1093.5 157.5 c 128,-1,34
 1016 50 1016 50 885 6.5 c 128,-1,35
 754 -37 754 -37 612 -37 c 256,0,1
612 117 m 0,36,37
 702 117 702 117 768 139 c 128,-1,38
 834 161 834 161 877.5 200.5 c 128,-1,39
 921 240 921 240 942 294 c 128,-1,40
 963 348 963 348 963 412 c 0,41,42
 963 509 963 509 913 579.5 c 128,-1,43
 863 650 863 650 781.5 677.5 c 128,-1,44
 700 705 700 705 612 705 c 256,45,46
 524 705 524 705 458.5 683 c 128,-1,47
 393 661 393 661 350 621.5 c 128,-1,48
 307 582 307 582 285.5 528.5 c 128,-1,49
 264 475 264 475 264 412 c 0,50,51
 264 348 264 348 285 294 c 128,-1,52
 306 240 306 240 349 200.5 c 128,-1,53
 392 161 392 161 457.5 139 c 128,-1,54
 523 117 523 117 612 117 c 0,36,37
612 846 m 0,55,56
 727 846 727 846 801 889 c 128,-1,57
 875 932 875 932 899.5 996 c 128,-1,58
 924 1060 924 1060 924 1120 c 0,59,60
 924 1211 924 1211 882 1275 c 128,-1,61
 840 1339 840 1339 766.5 1366 c 128,-1,62
 693 1393 693 1393 612 1393 c 0,63,64
 532 1393 532 1393 474 1372.5 c 128,-1,65
 416 1352 416 1352 378 1315.5 c 128,-1,66
 340 1279 340 1279 321.5 1229 c 128,-1,67
 303 1179 303 1179 303 1120 c 0,68,69
 303 1060 303 1060 321.5 1010 c 128,-1,70
 340 960 340 960 378 923.5 c 128,-1,71
 416 887 416 887 474 866.5 c 128,-1,72
 532 846 532 846 612 846 c 0,55,56
EndSplineSet
Validated: 1
EndChar
StartChar: nine
Encoding: 314 57 58
Width: 1227
Flags: W
LayerCount: 3
Back
Fore
SplineSet
559 -37 m 0,0,1
 478 -37 478 -37 407.5 -21.5 c 128,-1,2
 337 -6 337 -6 279 26 c 128,-1,3
 221 58 221 58 179 108 c 128,-1,4
 137 158 137 158 113 227 c 1,5,-1
 287 299 l 1,6,7
 301 262 301 262 322 232 c 128,-1,8
 343 202 343 202 369 180 c 0,9,10
 406 152 406 152 451.5 136.5 c 128,-1,11
 497 121 497 121 563 121 c 0,12,13
 638 121 638 121 694.5 149 c 128,-1,14
 751 177 751 177 795 231 c 0,15,16
 909 378 909 378 920 727 c 1,17,18
 891 678 891 678 851 640 c 128,-1,19
 811 602 811 602 762.5 576.5 c 128,-1,20
 714 551 714 551 659 537.5 c 128,-1,21
 604 524 604 524 545 524 c 0,22,23
 432 524 432 524 347.5 558 c 128,-1,24
 263 592 263 592 207 651 c 0,25,26
 138 724 138 724 108 820 c 128,-1,27
 78 916 78 916 78 1022 c 0,28,29
 78 1127 78 1127 109 1223.5 c 128,-1,30
 140 1320 140 1320 209 1395 c 0,31,32
 272 1462 272 1462 368.5 1503 c 128,-1,33
 465 1544 465 1544 600 1544 c 0,34,35
 730 1544 730 1544 823 1502.5 c 128,-1,36
 916 1461 916 1461 981 1386 c 0,37,38
 1043 1315 1043 1315 1077.5 1214 c 128,-1,39
 1112 1113 1112 1113 1122.5 1007.5 c 128,-1,40
 1133 902 1133 902 1133 813 c 0,41,42
 1133 583 1133 583 1089 418 c 128,-1,43
 1045 253 1045 253 963 147 c 0,44,45
 890 55 890 55 788.5 9 c 128,-1,46
 687 -37 687 -37 559 -37 c 0,0,1
586 680 m 0,47,48
 702 680 702 680 780 740.5 c 128,-1,49
 858 801 858 801 883.5 884.5 c 128,-1,50
 909 968 909 968 909 1042 c 0,51,52
 909 1154 909 1154 864.5 1239.5 c 128,-1,53
 820 1325 820 1325 748 1360 c 128,-1,54
 676 1395 676 1395 600 1395 c 256,55,56
 524 1395 524 1395 464.5 1369 c 128,-1,57
 405 1343 405 1343 364.5 1295.5 c 128,-1,58
 324 1248 324 1248 302.5 1181.5 c 128,-1,59
 281 1115 281 1115 281 1034 c 0,60,61
 281 952 281 952 301 886.5 c 128,-1,62
 321 821 321 821 360 775 c 128,-1,63
 399 729 399 729 456 704.5 c 128,-1,64
 513 680 513 680 586 680 c 0,47,48
EndSplineSet
Validated: 1
Layer: 2
EndChar
StartChar: semicolon
Encoding: 316 59 60
Width: 520
Flags: W
LayerCount: 3
Back
Fore
SplineSet
180 -395 m 1,0,-1
 98 -313 l 1,1,2
 149 -259 149 -259 180 -216.5 c 128,-1,3
 211 -174 211 -174 227.5 -124 c 128,-1,4
 244 -74 244 -74 244 -27 c 2,5,-1
 244 0 l 1,6,-1
 141 0 l 1,7,-1
 141 281 l 1,8,-1
 379 281 l 1,9,-1
 379 14 l 2,10,11
 379 -51 379 -51 366 -103.5 c 128,-1,12
 353 -156 353 -156 332 -201 c 0,13,14
 304 -256 304 -256 265.5 -304.5 c 128,-1,15
 227 -353 227 -353 180 -395 c 1,0,-1
141 801 m 1,16,-1
 141 1081 l 1,17,-1
 379 1081 l 1,18,-1
 379 801 l 1,19,-1
 141 801 l 1,16,-1
EndSplineSet
Validated: 1
Layer: 2
EndChar
StartChar: equal
Encoding: 61 61 62
Width: 1227
Flags: W
LayerCount: 2
Back
Fore
SplineSet
66 412 m 1,0,-1
 66 580 l 1,1,-1
 1161 580 l 1,2,-1
 1161 412 l 1,3,-1
 66 412 l 1,0,-1
66 883 m 1,4,-1
 66 1051 l 1,5,-1
 1161 1051 l 1,6,-1
 1161 883 l 1,7,-1
 66 883 l 1,4,-1
EndSplineSet
Validated: 1
EndChar
StartChar: greater
Encoding: 319 62 63
Width: 1227
Flags: W
LayerCount: 3
Back
Fore
SplineSet
66 178 m 1,0,-1
 66 352 l 1,1,-1
 944 731 l 1,2,-1
 66 1110 l 1,3,-1
 66 1284 l 1,4,-1
 1161 815 l 1,5,-1
 1161 647 l 1,6,-1
 66 178 l 1,0,-1
EndSplineSet
Validated: 1
Layer: 2
EndChar
StartChar: question
Encoding: 320 63 64
Width: 1116
Flags: W
LayerCount: 3
Back
Fore
SplineSet
389 0 m 1,0,-1
 389 276 l 1,1,-1
 618 276 l 1,2,-1
 618 0 l 1,3,-1
 389 0 l 1,0,-1
410 502 m 1,4,-1
 410 645 l 2,5,6
 410 695 410 695 422.5 727.5 c 128,-1,7
 435 760 435 760 449 778 c 0,8,9
 454 783 454 783 459 788.5 c 128,-1,10
 464 794 464 794 469 799 c 0,11,12
 478 808 478 808 486.5 814.5 c 128,-1,13
 495 821 495 821 504 829 c 0,14,15
 526 847 526 847 602 897 c 0,16,17
 678 945 678 945 722.5 986 c 128,-1,18
 767 1027 767 1027 789 1079 c 128,-1,19
 811 1131 811 1131 811 1188 c 0,20,21
 811 1305 811 1305 744 1365 c 128,-1,22
 677 1425 677 1425 543 1425 c 0,23,24
 437 1425 437 1425 371.5 1380.5 c 128,-1,25
 306 1336 306 1336 281.5 1276.5 c 128,-1,26
 257 1217 257 1217 246 1167 c 1,27,-1
 59 1194 l 1,28,29
 75 1278 75 1278 111 1348.5 c 128,-1,30
 147 1419 147 1419 207 1471 c 128,-1,31
 267 1523 267 1523 352.5 1552 c 128,-1,32
 438 1581 438 1581 553 1581 c 0,33,34
 677 1581 677 1581 765 1550 c 128,-1,35
 853 1519 853 1519 909 1466.5 c 128,-1,36
 965 1414 965 1414 990.5 1344.5 c 128,-1,37
 1016 1275 1016 1275 1016 1198 c 0,38,39
 1016 1106 1016 1106 981 1032 c 128,-1,40
 946 958 946 958 901.5 913.5 c 128,-1,41
 857 869 857 869 821 842 c 0,42,43
 779 810 779 810 740 786 c 128,-1,44
 701 762 701 762 676 739 c 0,45,46
 658 727 658 727 643 709 c 0,47,48
 624 690 624 690 618 680 c 0,49,50
 600 644 600 644 600 602 c 2,51,-1
 600 502 l 1,52,-1
 410 502 l 1,4,-1
EndSplineSet
Validated: 1
Layer: 2
EndChar
StartChar: B
Encoding: 323 66 67
Width: 1442
Flags: W
LayerCount: 3
Back
Fore
SplineSet
152 0 m 1,0,-1
 152 1544 l 1,1,-1
 797 1544 l 2,2,3
 958 1544 958 1544 1071.5 1498.5 c 128,-1,4
 1185 1453 1185 1453 1234.5 1364.5 c 128,-1,5
 1284 1276 1284 1276 1284 1167 c 0,6,7
 1284 1087 1284 1087 1260 1020.5 c 128,-1,8
 1236 954 1236 954 1189.5 908.5 c 128,-1,9
 1143 863 1143 863 1087 834 c 1,10,11
 1227 789 1227 789 1292.5 695 c 128,-1,12
 1358 601 1358 601 1358 455 c 0,13,14
 1358 316 1358 316 1303 221 c 128,-1,15
 1248 126 1248 126 1155 77 c 128,-1,16
 1062 28 1062 28 961 14 c 128,-1,17
 860 0 860 0 770 0 c 2,18,-1
 152 0 l 1,0,-1
356 172 m 1,19,-1
 758 172 l 2,20,21
 842 172 842 172 912 185.5 c 128,-1,22
 982 199 982 199 1032.5 231.5 c 128,-1,23
 1083 264 1083 264 1111 318.5 c 128,-1,24
 1139 373 1139 373 1139 455 c 0,25,26
 1139 578 1139 578 1077.5 642.5 c 128,-1,27
 1016 707 1016 707 932.5 720 c 128,-1,28
 849 733 849 733 780 733 c 2,29,-1
 356 733 l 1,30,-1
 356 172 l 1,19,-1
356 905 m 1,31,-1
 745 905 l 2,32,33
 800 905 800 905 857.5 913 c 128,-1,34
 915 921 915 921 961.5 946 c 128,-1,35
 1008 971 1008 971 1037.5 1017 c 128,-1,36
 1067 1063 1067 1063 1067 1139 c 0,37,38
 1067 1233 1067 1233 1024 1285.5 c 128,-1,39
 981 1338 981 1338 908.5 1355 c 128,-1,40
 836 1372 836 1372 760 1372 c 2,41,-1
 356 1372 l 1,42,-1
 356 905 l 1,31,-1
EndSplineSet
Validated: 1
Layer: 2
EndChar
StartChar: F
Encoding: 327 70 71
Width: 1274
Flags: W
LayerCount: 3
Back
Fore
SplineSet
152 0 m 1,0,-1
 152 1544 l 1,1,-1
 1223 1544 l 1,2,-1
 1223 1360 l 1,3,-1
 360 1360 l 1,4,-1
 360 885 l 1,5,-1
 1135 885 l 1,6,-1
 1135 700 l 1,7,-1
 360 700 l 1,8,-1
 360 0 l 1,9,-1
 152 0 l 1,0,-1
EndSplineSet
Validated: 1
Layer: 2
EndChar
StartChar: H
Encoding: 329 72 73
Width: 1528
Flags: W
LayerCount: 3
Back
Fore
SplineSet
152 0 m 1,0,-1
 152 1544 l 1,1,-1
 360 1544 l 1,2,-1
 360 911 l 1,3,-1
 1167 911 l 1,4,-1
 1167 1544 l 1,5,-1
 1376 1544 l 1,6,-1
 1376 0 l 1,7,-1
 1167 0 l 1,8,-1
 1167 723 l 1,9,-1
 360 723 l 1,10,-1
 360 0 l 1,11,-1
 152 0 l 1,0,-1
EndSplineSet
Validated: 1
Layer: 2
EndChar
StartChar: L
Encoding: 333 76 77
Width: 1229
Flags: W
LayerCount: 3
Back
Fore
SplineSet
152 0 m 1,0,-1
 152 1544 l 1,1,-1
 360 1544 l 1,2,-1
 360 184 l 1,3,-1
 1190 184 l 1,4,-1
 1190 0 l 1,5,-1
 152 0 l 1,0,-1
EndSplineSet
Validated: 1
Layer: 2
EndChar
StartChar: M
Encoding: 77 77 78
Width: 1855
Flags: W
LayerCount: 2
Back
Fore
SplineSet
152 0 m 1,0,-1
 152 1544 l 1,1,-1
 471 1544 l 1,2,-1
 924 223 l 1,3,-1
 1395 1544 l 1,4,-1
 1704 1544 l 1,5,-1
 1704 0 l 1,6,-1
 1505 0 l 1,7,-1
 1505 1341 l 1,8,-1
 1024 0 l 1,9,-1
 811 0 l 1,10,-1
 350 1341 l 1,11,-1
 350 0 l 1,12,-1
 152 0 l 1,0,-1
EndSplineSet
Validated: 1
EndChar
StartChar: O
Encoding: 336 79 80
Width: 1636
Flags: W
LayerCount: 3
Back
Fore
SplineSet
817 -37 m 0,0,1
 650 -37 650 -37 516.5 18 c 128,-1,2
 383 73 383 73 289.5 177 c 128,-1,3
 196 281 196 281 146 431 c 128,-1,4
 96 581 96 581 96 772 c 256,5,6
 96 963 96 963 146 1113.5 c 128,-1,7
 196 1264 196 1264 289.5 1368 c 128,-1,8
 383 1472 383 1472 516.5 1526.5 c 128,-1,9
 650 1581 650 1581 817 1581 c 0,10,11
 985 1581 985 1581 1119 1526.5 c 128,-1,12
 1253 1472 1253 1472 1346.5 1368 c 128,-1,13
 1440 1264 1440 1264 1490 1113.5 c 128,-1,14
 1540 963 1540 963 1540 772 c 256,15,16
 1540 581 1540 581 1490 431 c 128,-1,17
 1440 281 1440 281 1346.5 177 c 128,-1,18
 1253 73 1253 73 1119 18 c 128,-1,19
 985 -37 985 -37 817 -37 c 0,0,1
817 137 m 0,20,21
 941 137 941 137 1036 185.5 c 128,-1,22
 1131 234 1131 234 1194.5 319.5 c 128,-1,23
 1258 405 1258 405 1290.5 521 c 128,-1,24
 1323 637 1323 637 1323 772 c 256,25,26
 1323 907 1323 907 1290.5 1023.5 c 128,-1,27
 1258 1140 1258 1140 1194.5 1225 c 128,-1,28
 1131 1310 1131 1310 1036 1358.5 c 128,-1,29
 941 1407 941 1407 817 1407 c 0,30,31
 692 1407 692 1407 598 1358.5 c 128,-1,32
 504 1310 504 1310 440.5 1225 c 128,-1,33
 377 1140 377 1140 345 1023.5 c 128,-1,34
 313 907 313 907 313 772 c 256,35,36
 313 637 313 637 345 521 c 128,-1,37
 377 405 377 405 440.5 319.5 c 128,-1,38
 504 234 504 234 598 185.5 c 128,-1,39
 692 137 692 137 817 137 c 0,20,21
EndSplineSet
Validated: 1
Layer: 2
EndChar
StartChar: R
Encoding: 339 82 83
Width: 1434
Flags: W
LayerCount: 3
Back
Fore
SplineSet
152 0 m 1,0,-1
 152 1544 l 1,1,-1
 817 1544 l 2,2,3
 1000 1544 1000 1544 1116.5 1478 c 128,-1,4
 1233 1412 1233 1412 1274 1305.5 c 128,-1,5
 1315 1199 1315 1199 1315 1090 c 0,6,7
 1315 1037 1315 1037 1301.5 976.5 c 128,-1,8
 1288 916 1288 916 1255 858 c 128,-1,9
 1222 800 1222 800 1167.5 750.5 c 128,-1,10
 1113 701 1113 701 1032 670 c 1,11,-1
 1366 0 l 1,12,-1
 1126 0 l 1,13,-1
 825 635 l 1,14,15
 817 633 817 633 802 633 c 256,16,17
 787 633 787 633 776 633 c 2,18,-1
 356 633 l 1,19,-1
 356 0 l 1,20,-1
 152 0 l 1,0,-1
356 805 m 1,21,-1
 776 805 l 2,22,23
 846 805 846 805 905 820.5 c 128,-1,24
 964 836 964 836 1007 870.5 c 128,-1,25
 1050 905 1050 905 1074 959.5 c 128,-1,26
 1098 1014 1098 1014 1098 1092 c 0,27,28
 1098 1167 1098 1167 1075.5 1220 c 128,-1,29
 1053 1273 1053 1273 1011 1307 c 128,-1,30
 969 1341 969 1341 909.5 1356.5 c 128,-1,31
 850 1372 850 1372 776 1372 c 2,32,-1
 356 1372 l 1,33,-1
 356 805 l 1,21,-1
EndSplineSet
Validated: 1
Layer: 2
EndChar
StartChar: S
Encoding: 83 83 84
Width: 1391
Flags: W
LayerCount: 2
Back
Fore
SplineSet
692 -37 m 0,0,1
 548 -37 548 -37 441.5 -6.5 c 128,-1,2
 335 24 335 24 259 82.5 c 128,-1,3
 183 141 183 141 134.5 226 c 128,-1,4
 86 311 86 311 59 420 c 1,5,-1
 264 471 l 1,6,7
 281 404 281 404 308.5 344 c 128,-1,8
 336 284 336 284 385 238.5 c 128,-1,9
 434 193 434 193 510 166 c 128,-1,10
 586 139 586 139 700 139 c 0,11,12
 795 139 795 139 865.5 158 c 128,-1,13
 936 177 936 177 982.5 211.5 c 128,-1,14
 1029 246 1029 246 1052 294 c 128,-1,15
 1075 342 1075 342 1075 401 c 0,16,17
 1075 491 1075 491 1039.5 544.5 c 128,-1,18
 1004 598 1004 598 936.5 625.5 c 128,-1,19
 869 653 869 653 793 668 c 2,20,-1
 549 713 l 2,21,22
 432 734 432 734 347 774 c 128,-1,23
 262 814 262 814 207 869 c 128,-1,24
 152 924 152 924 126 994 c 128,-1,25
 100 1064 100 1064 100 1145 c 0,26,27
 100 1244 100 1244 139 1324.5 c 128,-1,28
 178 1405 178 1405 251.5 1462 c 128,-1,29
 325 1519 325 1519 431 1550 c 128,-1,30
 537 1581 537 1581 670 1581 c 0,31,32
 857 1581 857 1581 983.5 1530 c 128,-1,33
 1110 1479 1110 1479 1177 1385.5 c 128,-1,34
 1244 1292 1244 1292 1276 1182 c 1,35,-1
 1081 1118 l 1,36,37
 1058 1185 1058 1185 1026 1238.5 c 128,-1,38
 994 1292 994 1292 946 1329.5 c 128,-1,39
 898 1367 898 1367 830.5 1387 c 128,-1,40
 763 1407 763 1407 670 1407 c 0,41,42
 582 1407 582 1407 515.5 1389.5 c 128,-1,43
 449 1372 449 1372 404.5 1339 c 128,-1,44
 360 1306 360 1306 337.5 1259.5 c 128,-1,45
 315 1213 315 1213 315 1155 c 0,46,47
 315 1055 315 1055 381.5 993 c 128,-1,48
 448 931 448 931 600 903 c 2,49,-1
 879 852 l 2,50,51
 994 831 994 831 1074 793 c 128,-1,52
 1154 755 1154 755 1203.5 700.5 c 128,-1,53
 1253 646 1253 646 1275.5 576 c 128,-1,54
 1298 506 1298 506 1298 420 c 0,55,56
 1298 322 1298 322 1262.5 238 c 128,-1,57
 1227 154 1227 154 1153 93 c 128,-1,58
 1079 32 1079 32 964.5 -2.5 c 128,-1,59
 850 -37 850 -37 692 -37 c 0,0,1
EndSplineSet
Validated: 1
EndChar
StartChar: T
Encoding: 84 84 85
Width: 1391
Flags: W
LayerCount: 2
Back
Fore
SplineSet
590 0 m 1,0,-1
 590 1360 l 1,1,-1
 43 1360 l 1,2,-1
 43 1544 l 1,3,-1
 1346 1544 l 1,4,-1
 1346 1360 l 1,5,-1
 799 1360 l 1,6,-1
 799 0 l 1,7,-1
 590 0 l 1,0,-1
EndSplineSet
Validated: 1
EndChar
StartChar: U
Encoding: 85 85 86
Width: 1485
Flags: W
LayerCount: 2
Back
Fore
SplineSet
743 -37 m 0,0,1
 567 -37 567 -37 444.5 16 c 128,-1,2
 322 69 322 69 253.5 165 c 128,-1,3
 185 261 185 261 162 372 c 128,-1,4
 139 483 139 483 139 588 c 2,5,-1
 139 1544 l 1,6,-1
 348 1544 l 1,7,-1
 348 588 l 2,8,9
 348 463 348 463 376.5 377.5 c 128,-1,10
 405 292 405 292 456.5 240 c 128,-1,11
 508 188 508 188 581 165.5 c 128,-1,12
 654 143 654 143 743 143 c 0,13,14
 881 143 881 143 972 197.5 c 128,-1,15
 1063 252 1063 252 1099 357.5 c 128,-1,16
 1135 463 1135 463 1135 588 c 2,17,-1
 1135 1544 l 1,18,-1
 1343 1544 l 1,19,-1
 1343 588 l 2,20,21
 1343 459 1343 459 1313 345 c 128,-1,22
 1283 231 1283 231 1213.5 146.5 c 128,-1,23
 1144 62 1144 62 1029 12.5 c 128,-1,24
 914 -37 914 -37 743 -37 c 0,0,1
EndSplineSet
Validated: 1
EndChar
StartChar: X
Encoding: 345 88 89
Width: 1300
Flags: W
LayerCount: 3
Back
Fore
SplineSet
0 0 m 1,0,-1
 537 795 l 1,1,-1
 39 1544 l 1,2,-1
 272 1544 l 1,3,-1
 653 963 l 1,4,-1
 1040 1544 l 1,5,-1
 1257 1544 l 1,6,-1
 764 807 l 1,7,-1
 1300 0 l 1,8,-1
 1063 0 l 1,9,-1
 645 639 l 1,10,-1
 223 0 l 1,11,-1
 0 0 l 1,0,-1
EndSplineSet
Validated: 1
Layer: 2
EndChar
StartChar: Y
Encoding: 346 89 90
Width: 1292
Flags: W
LayerCount: 3
Back
Fore
SplineSet
541 0 m 1,0,-1
 541 602 l 1,1,-1
 0 1544 l 1,2,-1
 225 1544 l 1,3,-1
 655 786 l 1,4,-1
 1077 1544 l 1,5,-1
 1292 1544 l 1,6,-1
 752 602 l 1,7,-1
 752 0 l 1,8,-1
 541 0 l 1,0,-1
EndSplineSet
Validated: 1
Layer: 2
EndChar
StartChar: Z
Encoding: 90 90 91
Width: 1296
Flags: W
LayerCount: 2
Back
Fore
SplineSet
74 0 m 1,0,-1
 74 180 l 1,1,-1
 975 1360 l 1,2,-1
 104 1360 l 1,3,-1
 104 1544 l 1,4,-1
 1212 1544 l 1,5,-1
 1212 1364 l 1,6,-1
 311 184 l 1,7,-1
 1229 184 l 1,8,-1
 1229 0 l 1,9,-1
 74 0 l 1,0,-1
EndSplineSet
Validated: 1
EndChar
StartChar: bracketleft
Encoding: 348 91 92
Width: 655
Flags: W
LayerCount: 3
Back
Fore
SplineSet
152 -393 m 1,0,-1
 152 1544 l 1,1,-1
 592 1544 l 1,2,-1
 592 1399 l 1,3,-1
 342 1399 l 1,4,-1
 342 -248 l 1,5,-1
 592 -248 l 1,6,-1
 592 -393 l 1,7,-1
 152 -393 l 1,0,-1
EndSplineSet
Validated: 1
Layer: 2
EndChar
StartChar: backslash
Encoding: 349 92 93
Width: 545
Flags: W
LayerCount: 3
Back
Fore
SplineSet
381 0 m 1,0,-1
 0 1544 l 1,1,-1
 164 1544 l 1,2,-1
 545 0 l 1,3,-1
 381 0 l 1,0,-1
EndSplineSet
Validated: 1
Layer: 2
EndChar
StartChar: underscore
Encoding: 352 95 96
Width: 1024
Flags: W
LayerCount: 3
Back
Fore
SplineSet
0 -266 m 1,0,-1
 0 -143 l 1,1,-1
 1024 -143 l 1,2,-1
 1024 -266 l 1,3,-1
 0 -266 l 1,0,-1
EndSplineSet
Validated: 1
Layer: 2
EndChar
StartChar: a
Encoding: 97 97 98
Width: 1077
Flags: W
LayerCount: 2
Back
Fore
SplineSet
422 -37 m 0,0,1
 333 -37 333 -37 267 -11.5 c 128,-1,2
 201 14 201 14 157.5 56.5 c 128,-1,3
 114 99 114 99 93 155.5 c 128,-1,4
 72 212 72 212 72 274 c 0,5,6
 72 404 72 404 128.5 484.5 c 128,-1,7
 185 565 185 565 273 597 c 128,-1,8
 361 629 361 629 446 641 c 2,9,-1
 778 690 l 1,10,-1
 778 764 l 2,11,12
 778 839 778 839 747.5 885 c 128,-1,13
 717 931 717 931 662 950 c 128,-1,14
 607 969 607 969 545 969 c 0,15,16
 460 969 460 969 405 942 c 128,-1,17
 350 915 350 915 322.5 870.5 c 128,-1,18
 295 826 295 826 281 784 c 1,19,-1
 109 829 l 1,20,21
 123 880 123 880 153 931.5 c 128,-1,22
 183 983 183 983 235 1024.5 c 128,-1,23
 287 1066 287 1066 364.5 1092 c 128,-1,24
 442 1118 442 1118 551 1118 c 0,25,26
 642 1118 642 1118 719 1100 c 128,-1,27
 796 1082 796 1082 851.5 1041 c 128,-1,28
 907 1000 907 1000 938 933 c 128,-1,29
 969 866 969 866 969 768 c 2,30,-1
 969 201 l 2,31,32
 969 135 969 135 979.5 88 c 128,-1,33
 990 41 990 41 1004 0 c 1,34,-1
 819 0 l 1,35,36
 807 34 807 34 802 69 c 128,-1,37
 797 104 797 104 797 139 c 1,38,39
 739 66 739 66 676 26 c 128,-1,40
 613 -14 613 -14 549.5 -25.5 c 128,-1,41
 486 -37 486 -37 422 -37 c 0,0,1
457 111 m 0,42,43
 516 111 516 111 573.5 128.5 c 128,-1,44
 631 146 631 146 676.5 180.5 c 128,-1,45
 722 215 722 215 750 267 c 128,-1,46
 778 319 778 319 778 389 c 2,47,-1
 778 549 l 1,48,-1
 487 504 l 2,49,50
 402 489 402 489 350 458.5 c 128,-1,51
 298 428 298 428 280 383 c 128,-1,52
 262 338 262 338 262 287 c 0,53,54
 262 242 262 242 276.5 209 c 128,-1,55
 291 176 291 176 316.5 154.5 c 128,-1,56
 342 133 342 133 378 122 c 128,-1,57
 414 111 414 111 457 111 c 0,42,43
EndSplineSet
Validated: 1
EndChar
StartChar: c
Encoding: 356 99 100
Width: 1094
Flags: W
LayerCount: 3
Back
Fore
SplineSet
582 -37 m 0,0,1
 448 -37 448 -37 353 7 c 128,-1,2
 258 51 258 51 197 128.5 c 128,-1,3
 136 206 136 206 108 311.5 c 128,-1,4
 80 417 80 417 80 539 c 0,5,6
 80 659 80 659 110 764.5 c 128,-1,7
 140 870 140 870 201.5 948.5 c 128,-1,8
 263 1027 263 1027 357.5 1072.5 c 128,-1,9
 452 1118 452 1118 582 1118 c 0,10,11
 775 1118 775 1118 885 1029 c 128,-1,12
 995 940 995 940 1032 780 c 1,13,-1
 844 731 l 1,14,15
 822 814 822 814 786 866 c 128,-1,16
 750 918 750 918 695.5 939.5 c 128,-1,17
 641 961 641 961 580 961 c 0,18,19
 503 961 503 961 446.5 929.5 c 128,-1,20
 390 898 390 898 352.5 842 c 128,-1,21
 315 786 315 786 297 709 c 128,-1,22
 279 632 279 632 279 541 c 256,23,24
 279 450 279 450 296 373.5 c 128,-1,25
 313 297 313 297 349.5 241.5 c 128,-1,26
 386 186 386 186 443 154.5 c 128,-1,27
 500 123 500 123 580 123 c 0,28,29
 698 123 698 123 765.5 188.5 c 128,-1,30
 833 254 833 254 858 373 c 1,31,-1
 1044 324 l 1,32,33
 998 149 998 149 880 56 c 128,-1,34
 762 -37 762 -37 582 -37 c 0,0,1
EndSplineSet
Validated: 1
Layer: 2
EndChar
StartChar: d
Encoding: 100 100 101
Width: 1212
Flags: W
LayerCount: 2
Back
Fore
SplineSet
528 -37 m 0,0,1
 424 -37 424 -37 341 0.5 c 128,-1,2
 258 38 258 38 200 109.5 c 128,-1,3
 142 181 142 181 111 285 c 128,-1,4
 80 389 80 389 80 522 c 0,5,6
 80 642 80 642 106 750 c 128,-1,7
 132 858 132 858 189 940 c 128,-1,8
 246 1022 246 1022 336.5 1070 c 128,-1,9
 427 1118 427 1118 555 1118 c 0,10,11
 654 1118 654 1118 739 1074.5 c 128,-1,12
 824 1031 824 1031 887 940 c 1,13,-1
 887 1544 l 1,14,-1
 1081 1544 l 1,15,-1
 1081 0 l 1,16,-1
 897 0 l 1,17,-1
 893 160 l 1,18,19
 861 106 861 106 820.5 68.5 c 128,-1,20
 780 31 780 31 733.5 7.5 c 128,-1,21
 687 -16 687 -16 635 -26.5 c 128,-1,22
 583 -37 583 -37 528 -37 c 0,0,1
582 119 m 0,23,24
 664 119 664 119 723 154 c 128,-1,25
 782 189 782 189 819.5 247.5 c 128,-1,26
 857 306 857 306 875 383 c 128,-1,27
 893 460 893 460 893 545 c 0,28,29
 893 629 893 629 875.5 704.5 c 128,-1,30
 858 780 858 780 821 837 c 128,-1,31
 784 894 784 894 725.5 927.5 c 128,-1,32
 667 961 667 961 586 961 c 0,33,34
 516 961 516 961 459.5 934.5 c 128,-1,35
 403 908 403 908 363.5 855.5 c 128,-1,36
 324 803 324 803 302.5 723 c 128,-1,37
 281 643 281 643 281 537 c 0,38,39
 281 443 281 443 298.5 366 c 128,-1,40
 316 289 316 289 352.5 234 c 128,-1,41
 389 179 389 179 446 149 c 128,-1,42
 503 119 503 119 582 119 c 0,23,24
EndSplineSet
Validated: 1
EndChar
StartChar: f
Encoding: 102 102 103
Width: 637
Flags: W
LayerCount: 2
Back
Fore
SplineSet
193 0 m 1,0,-1
 193 928 l 1,1,-1
 35 928 l 1,2,-1
 35 1081 l 1,3,-1
 193 1081 l 1,4,-1
 193 1249 l 2,5,6
 193 1328 193 1328 212 1382.5 c 128,-1,7
 231 1437 231 1437 262 1475 c 0,8,9
 300 1521 300 1521 358 1543 c 128,-1,10
 416 1565 416 1565 485 1565 c 0,11,12
 567 1565 567 1565 664 1548 c 1,13,-1
 649 1389 l 1,14,15
 580 1397 580 1397 549 1397 c 0,16,17
 465 1397 465 1397 426 1355.5 c 128,-1,18
 387 1314 387 1314 387 1217 c 2,19,-1
 387 1081 l 1,20,-1
 635 1081 l 1,21,-1
 635 928 l 1,22,-1
 387 928 l 1,23,-1
 387 0 l 1,24,-1
 193 0 l 1,0,-1
EndSplineSet
Validated: 1
EndChar
StartChar: h
Encoding: 104 104 105
Width: 1182
Flags: W
LayerCount: 2
Back
Fore
SplineSet
131 0 m 1,0,-1
 131 1544 l 1,1,-1
 326 1544 l 1,2,-1
 326 918 l 1,3,4
 365 983 365 983 419.5 1029 c 128,-1,5
 474 1075 474 1075 545 1096.5 c 128,-1,6
 616 1118 616 1118 690 1118 c 0,7,8
 803 1118 803 1118 889.5 1069 c 128,-1,9
 976 1020 976 1020 1013.5 934 c 128,-1,10
 1051 848 1051 848 1051 750 c 2,11,-1
 1051 0 l 1,12,-1
 856 0 l 1,13,-1
 856 698 l 2,14,15
 856 758 856 758 841.5 811 c 128,-1,16
 827 864 827 864 793 899 c 0,17,18
 765 927 765 927 724 942.5 c 128,-1,19
 683 958 683 958 625 958 c 0,20,21
 550 958 550 958 493.5 923 c 128,-1,22
 437 888 437 888 400 830 c 128,-1,23
 363 772 363 772 344.5 697.5 c 128,-1,24
 326 623 326 623 326 545 c 2,25,-1
 326 0 l 1,26,-1
 131 0 l 1,0,-1
EndSplineSet
Validated: 1
EndChar
StartChar: j
Encoding: 106 106 107
Width: 489
Flags: W
LayerCount: 2
Back
Fore
SplineSet
84 -424 m 0,0,1
 15 -424 15 -424 -34.5 -417.5 c 128,-1,2
 -84 -411 -84 -411 -121 -401 c 1,3,-1
 -100 -242 l 1,4,5
 -44 -256 -44 -256 20 -256 c 0,6,7
 72 -256 72 -256 101.5 -239 c 128,-1,8
 131 -222 131 -222 142.5 -187 c 128,-1,9
 154 -152 154 -152 154 -111 c 2,10,-1
 154 1081 l 1,11,-1
 348 1081 l 1,12,-1
 348 -150 l 2,13,14
 348 -280 348 -280 283 -352 c 128,-1,15
 218 -424 218 -424 84 -424 c 0,0,1
154 1317 m 1,16,-1
 154 1544 l 1,17,-1
 348 1544 l 1,18,-1
 348 1317 l 1,19,-1
 154 1317 l 1,16,-1
EndSplineSet
Validated: 1
EndChar
StartChar: k
Encoding: 107 107 108
Width: 1071
Flags: W
LayerCount: 2
Back
Fore
SplineSet
131 0 m 1,0,-1
 131 1544 l 1,1,-1
 326 1544 l 1,2,-1
 326 649 l 1,3,-1
 782 1081 l 1,4,-1
 1016 1081 l 1,5,-1
 623 711 l 1,6,-1
 1073 0 l 1,7,-1
 846 0 l 1,8,-1
 481 580 l 1,9,-1
 326 434 l 1,10,-1
 326 0 l 1,11,-1
 131 0 l 1,0,-1
EndSplineSet
Validated: 1
EndChar
StartChar: l
Encoding: 108 108 109
Width: 477
Flags: W
LayerCount: 2
Back
Fore
SplineSet
141 0 m 1,0,-1
 141 1544 l 1,1,-1
 336 1544 l 1,2,-1
 336 0 l 1,3,-1
 141 0 l 1,0,-1
EndSplineSet
Validated: 1
EndChar
StartChar: m
Encoding: 109 109 110
Width: 1796
Flags: W
LayerCount: 2
Back
Fore
SplineSet
131 0 m 1,0,-1
 131 1081 l 1,1,-1
 322 1081 l 1,2,-1
 324 909 l 1,3,4
 360 981 360 981 412.5 1029 c 128,-1,5
 465 1077 465 1077 529 1097.5 c 128,-1,6
 593 1118 593 1118 662 1118 c 0,7,8
 713 1118 713 1118 760.5 1105.5 c 128,-1,9
 808 1093 808 1093 848.5 1067 c 128,-1,10
 889 1041 889 1041 920 1000 c 128,-1,11
 951 959 951 959 969 901 c 1,12,13
 1008 980 1008 980 1066.5 1031 c 128,-1,14
 1125 1082 1125 1082 1190.5 1100 c 128,-1,15
 1256 1118 1256 1118 1325 1118 c 0,16,17
 1430 1118 1430 1118 1511.5 1070.5 c 128,-1,18
 1593 1023 1593 1023 1629 938.5 c 128,-1,19
 1665 854 1665 854 1665 758 c 2,20,-1
 1665 0 l 1,21,-1
 1470 0 l 1,22,-1
 1470 698 l 2,23,24
 1470 758 1470 758 1456 811 c 128,-1,25
 1442 864 1442 864 1411 899 c 0,26,27
 1386 927 1386 927 1351 942.5 c 128,-1,28
 1316 958 1316 958 1264 958 c 0,29,30
 1198 958 1198 958 1147.5 923 c 128,-1,31
 1097 888 1097 888 1063 830 c 128,-1,32
 1029 772 1029 772 1012 697.5 c 128,-1,33
 995 623 995 623 995 545 c 2,34,-1
 995 0 l 1,35,-1
 801 0 l 1,36,-1
 801 698 l 2,37,38
 801 758 801 758 786.5 811 c 128,-1,39
 772 864 772 864 741 899 c 0,40,41
 717 927 717 927 682 942.5 c 128,-1,42
 647 958 647 958 594 958 c 0,43,44
 528 958 528 958 478 923 c 128,-1,45
 428 888 428 888 394 830 c 128,-1,46
 360 772 360 772 343 697.5 c 128,-1,47
 326 623 326 623 326 545 c 2,48,-1
 326 0 l 1,49,-1
 131 0 l 1,0,-1
EndSplineSet
Validated: 1
EndChar
StartChar: n
Encoding: 110 110 111
Width: 1184
Flags: W
LayerCount: 2
Back
Fore
SplineSet
131 0 m 1,0,-1
 131 1081 l 1,1,-1
 322 1081 l 1,2,-1
 326 905 l 1,3,4
 365 976 365 976 421.5 1026.5 c 128,-1,5
 478 1077 478 1077 547 1097.5 c 128,-1,6
 616 1118 616 1118 692 1118 c 0,7,8
 805 1118 805 1118 891.5 1069 c 128,-1,9
 978 1020 978 1020 1015.5 934 c 128,-1,10
 1053 848 1053 848 1053 750 c 2,11,-1
 1053 0 l 1,12,-1
 858 0 l 1,13,-1
 858 698 l 2,14,15
 858 758 858 758 843.5 811 c 128,-1,16
 829 864 829 864 795 899 c 0,17,18
 767 927 767 927 726.5 942.5 c 128,-1,19
 686 958 686 958 627 958 c 0,20,21
 552 958 552 958 495.5 923 c 128,-1,22
 439 888 439 888 401.5 830 c 128,-1,23
 364 772 364 772 345 697.5 c 128,-1,24
 326 623 326 623 326 545 c 2,25,-1
 326 0 l 1,26,-1
 131 0 l 1,0,-1
EndSplineSet
Validated: 1
EndChar
StartChar: p
Encoding: 112 112 113
Width: 1214
Flags: W
LayerCount: 2
Back
Fore
SplineSet
131 -393 m 1,0,-1
 131 1081 l 1,1,-1
 317 1081 l 1,2,-1
 322 920 l 1,3,4
 369 997 369 997 433 1043 c 128,-1,5
 497 1089 497 1089 564 1103.5 c 128,-1,6
 631 1118 631 1118 684 1118 c 0,7,8
 841 1118 841 1118 949 1034 c 128,-1,9
 1057 950 1057 950 1096 820.5 c 128,-1,10
 1135 691 1135 691 1135 559 c 0,11,12
 1135 439 1135 439 1108.5 331 c 128,-1,13
 1082 223 1082 223 1024.5 141.5 c 128,-1,14
 967 60 967 60 876 11.5 c 128,-1,15
 785 -37 785 -37 657 -37 c 0,16,17
 557 -37 557 -37 472.5 5.5 c 128,-1,18
 388 48 388 48 326 141 c 1,19,-1
 326 -393 l 1,20,-1
 131 -393 l 1,0,-1
623 121 m 0,21,22
 767 121 767 121 849.5 225.5 c 128,-1,23
 932 330 932 330 932 539 c 0,24,25
 932 689 932 689 892.5 787 c 128,-1,26
 853 885 853 885 782.5 923 c 128,-1,27
 712 961 712 961 633 961 c 0,28,29
 551 961 551 961 491.5 926 c 128,-1,30
 432 891 432 891 394 832 c 128,-1,31
 356 773 356 773 337.5 695 c 128,-1,32
 319 617 319 617 319 532 c 0,33,34
 319 449 319 449 337 374.5 c 128,-1,35
 355 300 355 300 392 243.5 c 128,-1,36
 429 187 429 187 486.5 154 c 128,-1,37
 544 121 544 121 623 121 c 0,21,22
EndSplineSet
Validated: 1
EndChar
StartChar: r
Encoding: 371 114 115
Width: 711
Flags: W
LayerCount: 3
Back
Fore
SplineSet
131 0 m 1,0,-1
 131 1081 l 1,1,-1
 319 1081 l 1,2,-1
 326 891 l 1,3,4
 344 933 344 933 363.5 962 c 128,-1,5
 383 991 383 991 406 1014 c 0,6,7
 448 1057 448 1057 494.5 1075.5 c 128,-1,8
 541 1094 541 1094 594 1094 c 0,9,10
 659 1094 659 1094 711 1081 c 1,11,-1
 692 915 l 1,12,13
 652 928 652 928 586 928 c 0,14,15
 499 928 499 928 437 876 c 128,-1,16
 375 824 375 824 350.5 735.5 c 128,-1,17
 326 647 326 647 326 547 c 2,18,-1
 326 0 l 1,19,-1
 131 0 l 1,0,-1
EndSplineSet
Validated: 1
Layer: 2
EndChar
StartChar: t
Encoding: 116 116 117
Width: 694
Flags: W
LayerCount: 2
Back
Fore
SplineSet
446 -20 m 0,0,1
 381 -20 381 -20 334 -2 c 128,-1,2
 287 16 287 16 257 50.5 c 128,-1,3
 227 85 227 85 213 134.5 c 128,-1,4
 199 184 199 184 199 248 c 2,5,-1
 199 928 l 1,6,-1
 55 928 l 1,7,-1
 55 1081 l 1,8,-1
 199 1081 l 1,9,-1
 199 1389 l 1,10,-1
 393 1389 l 1,11,-1
 393 1081 l 1,12,-1
 627 1081 l 1,13,-1
 627 928 l 1,14,-1
 393 928 l 1,15,-1
 393 289 l 2,16,17
 393 225 393 225 410.5 192.5 c 128,-1,18
 428 160 428 160 457 152.5 c 128,-1,19
 486 145 486 145 516 145 c 0,20,21
 559 145 559 145 635 154 c 1,22,-1
 649 -4 l 1,23,24
 621 -9 621 -9 571 -14.5 c 128,-1,25
 521 -20 521 -20 446 -20 c 0,0,1
EndSplineSet
Validated: 1
EndChar
StartChar: u
Encoding: 117 117 118
Width: 1182
Flags: W
LayerCount: 2
Back
Fore
SplineSet
500 -37 m 0,0,1
 422 -37 422 -37 355 -15 c 128,-1,2
 288 7 288 7 236 55 c 0,3,4
 188 100 188 100 159.5 169 c 128,-1,5
 131 238 131 238 131 334 c 2,6,-1
 131 1081 l 1,7,-1
 326 1081 l 1,8,-1
 326 371 l 2,9,10
 326 318 326 318 337.5 273 c 128,-1,11
 349 228 349 228 375.5 195 c 128,-1,12
 402 162 402 162 446 143.5 c 128,-1,13
 490 125 490 125 555 125 c 0,14,15
 630 125 630 125 686.5 160 c 128,-1,16
 743 195 743 195 780.5 252.5 c 128,-1,17
 818 310 818 310 837 383.5 c 128,-1,18
 856 457 856 457 856 535 c 2,19,-1
 856 1081 l 1,20,-1
 1051 1081 l 1,21,-1
 1051 0 l 1,22,-1
 862 0 l 1,23,-1
 856 178 l 1,24,25
 816 106 816 106 762.5 55 c 128,-1,26
 709 4 709 4 640.5 -16.5 c 128,-1,27
 572 -37 572 -37 500 -37 c 0,0,1
EndSplineSet
Validated: 1
EndChar
StartChar: x
Encoding: 377 120 121
Width: 969
Flags: W
LayerCount: 3
Back
Fore
SplineSet
0 0 m 1,0,-1
 379 555 l 1,1,-1
 25 1081 l 1,2,-1
 240 1081 l 1,3,-1
 487 705 l 1,4,-1
 739 1081 l 1,5,-1
 940 1081 l 1,6,-1
 588 565 l 1,7,-1
 969 0 l 1,8,-1
 752 0 l 1,9,-1
 479 414 l 1,10,-1
 203 0 l 1,11,-1
 0 0 l 1,0,-1
EndSplineSet
Validated: 1
Layer: 2
EndChar
StartChar: braceleft
Encoding: 123 123 124
Width: 895
Flags: W
LayerCount: 2
Back
Fore
SplineSet
573 -393 m 2,0,1
 487 -393 487 -393 429.5 -361.5 c 128,-1,2
 372 -330 372 -330 350 -270.5 c 128,-1,3
 328 -211 328 -211 328 -139 c 2,4,-1
 328 324 l 2,5,6
 328 398 328 398 287 436 c 128,-1,7
 246 474 246 474 197 484.5 c 128,-1,8
 148 495 148 495 117 500 c 1,9,-1
 117 651 l 1,10,11
 187 660 187 660 231.5 677 c 128,-1,12
 276 694 276 694 302 732.5 c 128,-1,13
 328 771 328 771 328 825 c 2,14,-1
 328 1290 l 2,15,16
 328 1394 328 1394 365 1452.5 c 128,-1,17
 402 1511 402 1511 460.5 1527.5 c 128,-1,18
 519 1544 519 1544 573 1544 c 2,19,-1
 778 1544 l 1,20,-1
 778 1399 l 1,21,-1
 647 1399 l 2,22,23
 602 1399 602 1399 575.5 1385.5 c 128,-1,24
 549 1372 549 1372 535.5 1349.5 c 128,-1,25
 522 1327 522 1327 518 1297.5 c 128,-1,26
 514 1268 514 1268 514 1235 c 2,27,-1
 514 791 l 2,28,29
 514 710 514 710 481 660 c 128,-1,30
 448 610 448 610 406 595 c 128,-1,31
 364 580 364 580 328 575 c 1,32,33
 364 570 364 570 397.5 557.5 c 128,-1,34
 431 545 431 545 457 520.5 c 128,-1,35
 483 496 483 496 498.5 456 c 128,-1,36
 514 416 514 416 514 358 c 2,37,-1
 514 -84 l 2,38,39
 514 -144 514 -144 526.5 -180.5 c 128,-1,40
 539 -217 539 -217 570.5 -232.5 c 128,-1,41
 602 -248 602 -248 647 -248 c 2,42,-1
 778 -248 l 1,43,-1
 778 -393 l 1,44,-1
 573 -393 l 2,0,1
EndSplineSet
Validated: 1
EndChar
StartChar: bar
Encoding: 124 124 125
Width: 489
Flags: W
LayerCount: 2
Back
Fore
SplineSet
184 0 m 1,0,-1
 184 1544 l 1,1,-1
 346 1544 l 1,2,-1
 346 0 l 1,3,-1
 184 0 l 1,0,-1
EndSplineSet
Validated: 1
EndChar
StartChar: asciitilde
Encoding: 383 126 127
Width: 1468
Flags: W
LayerCount: 3
Back
Fore
SplineSet
1016 416 m 0,0,1
 961 416 961 416 914.5 428 c 128,-1,2
 868 440 868 440 826.5 462 c 128,-1,3
 785 484 785 484 747 515 c 128,-1,4
 709 546 709 546 672 584 c 0,5,6
 670 585 670 585 662.5 592.5 c 128,-1,7
 655 600 655 600 646.5 609.5 c 128,-1,8
 638 619 638 619 630 626.5 c 128,-1,9
 622 634 622 634 621 635 c 0,10,11
 573 680 573 680 551.5 694.5 c 128,-1,12
 530 709 530 709 505.5 716 c 128,-1,13
 481 723 481 723 457 723 c 0,14,15
 383 723 383 723 340.5 654 c 128,-1,16
 298 585 298 585 272 440 c 1,17,-1
 123 479 l 1,18,19
 157 685 157 685 243 783 c 128,-1,20
 329 881 329 881 457 881 c 0,21,22
 527 881 527 881 586.5 857 c 128,-1,23
 646 833 646 833 692 797.5 c 128,-1,24
 738 762 738 762 774 731 c 0,25,26
 848 657 848 657 852 655 c 0,27,28
 904 607 904 607 936 591 c 128,-1,29
 968 575 968 575 1012 575 c 0,30,31
 1069 575 1069 575 1105.5 611.5 c 128,-1,32
 1142 648 1142 648 1163 714 c 128,-1,33
 1184 780 1184 780 1196 856 c 1,34,-1
 1348 817 l 1,35,36
 1314 614 1314 614 1229.5 515 c 128,-1,37
 1145 416 1145 416 1016 416 c 0,0,1
EndSplineSet
Validated: 1
Layer: 2
EndChar
StartChar: currency
Encoding: 164 164 328
Width: 2048
Flags: W
LayerCount: 2
Back
Fore
SplineSet
428 1262 m 1,0,-1
 138 1532 l 1,1,-1
 286 1701 l 1,2,-1
 590 1427 l 1,3,4
 697 1490 697 1490 782 1522 c 128,-1,5
 867 1554 867 1554 984 1554.5 c 128,-1,6
 1101 1555 1101 1555 1199 1534.5 c 128,-1,7
 1297 1514 1297 1514 1346 1484 c 2,8,-1
 1474 1410 l 1,9,-1
 1755 1704 l 1,10,-1
 1913 1552 l 1,11,-1
 1643 1272 l 1,12,13
 1693 1190 1693 1190 1724 1123 c 128,-1,14
 1755 1056 1755 1056 1769 951 c 128,-1,15
 1783 846 1783 846 1770.5 709 c 128,-1,16
 1758 572 1758 572 1704 489 c 2,17,-1
 1623 354 l 1,18,-1
 1910 98 l 1,19,-1
 1771 -77 l 1,20,-1
 1461 196 l 1,21,22
 1343 142 1343 142 1250 111.5 c 128,-1,23
 1157 81 1157 81 1048.5 80.5 c 128,-1,24
 940 80 940 80 842 103 c 128,-1,25
 744 126 744 126 694 158 c 2,26,-1
 601 211 l 1,27,-1
 286 -74 l 1,28,-1
 139 95 l 1,29,-1
 434 350 l 1,30,31
 387 414 387 414 348.5 478.5 c 128,-1,32
 310 543 310 543 284.5 658.5 c 128,-1,33
 259 774 259 774 276.5 904.5 c 128,-1,34
 294 1035 294 1035 333 1096 c 2,35,-1
 428 1262 l 1,36,-1
 428 1262 l 1,0,-1
1029 299 m 0,37,38
 1264 302 1264 302 1411.5 445 c 128,-1,39
 1559 588 1559 588 1564.5 794.5 c 128,-1,40
 1570 1001 1570 1001 1424.5 1173 c 128,-1,41
 1279 1345 1279 1345 1038 1345.5 c 128,-1,42
 797 1346 797 1346 640 1181 c 128,-1,43
 483 1016 483 1016 488 793 c 128,-1,44
 493 570 493 570 652.5 432.5 c 128,-1,45
 812 295 812 295 1029 299 c 0,37,38
EndSplineSet
Validated: 37
EndChar
StartChar: section
Encoding: 167 167 332
Width: 2048
Flags: W
LayerCount: 2
Back
Fore
SplineSet
616 307 m 1,0,-1
 803 307 l 1,1,2
 805 265 805 265 809 217 c 128,-1,3
 813 169 813 169 841 128 c 128,-1,4
 869 87 869 87 918 71 c 128,-1,5
 967 55 967 55 1023 57 c 0,6,7
 1089 58 1089 58 1144.5 88 c 128,-1,8
 1200 118 1200 118 1204 171.5 c 128,-1,9
 1208 225 1208 225 1170 276 c 0,10,11
 1128 330 1128 330 1011 394.5 c 128,-1,12
 894 459 894 459 823 504 c 128,-1,13
 752 549 752 549 708.5 591 c 128,-1,14
 665 633 665 633 635 700.5 c 128,-1,15
 605 768 605 768 603.5 823 c 128,-1,16
 602 878 602 878 612 923 c 0,17,18
 629 995 629 995 671.5 1053.5 c 128,-1,19
 714 1112 714 1112 763 1147 c 2,20,-1
 800 1174 l 1,21,22
 764 1202 764 1202 736 1227 c 128,-1,23
 708 1252 708 1252 666.5 1309 c 128,-1,24
 625 1366 625 1366 620 1456 c 128,-1,25
 615 1546 615 1546 693 1626 c 0,26,27
 737 1672 737 1672 814.5 1699.5 c 128,-1,28
 892 1727 892 1727 997 1725 c 0,29,30
 1135 1722 1135 1722 1228 1667.5 c 128,-1,31
 1321 1613 1321 1613 1349 1547 c 128,-1,32
 1377 1481 1377 1481 1379 1424 c 2,33,-1
 1382 1353 l 1,34,-1
 1200 1353 l 1,35,36
 1199 1379 1199 1379 1196 1415.5 c 128,-1,37
 1193 1452 1193 1452 1169.5 1486.5 c 128,-1,38
 1146 1521 1146 1521 1102.5 1538 c 128,-1,39
 1059 1555 1059 1555 1019 1559 c 0,40,41
 960 1564 960 1564 906 1549.5 c 128,-1,42
 852 1535 852 1535 830 1509 c 128,-1,43
 808 1483 808 1483 805 1445 c 128,-1,44
 802 1407 802 1407 867 1343 c 0,45,46
 924 1285 924 1285 998.5 1232 c 128,-1,47
 1073 1179 1073 1179 1180 1113.5 c 128,-1,48
 1287 1048 1287 1048 1332 1008 c 128,-1,49
 1377 968 1377 968 1409.5 917 c 128,-1,50
 1442 866 1442 866 1448 792 c 128,-1,51
 1454 718 1454 718 1393 630 c 0,52,53
 1339 552 1339 552 1282 526 c 2,54,-1
 1191 479 l 1,55,56
 1234 448 1234 448 1283.5 406.5 c 128,-1,57
 1333 365 1333 365 1361.5 300 c 128,-1,58
 1390 235 1390 235 1390 181 c 0,59,60
 1388 73 1388 73 1322 5 c 128,-1,61
 1256 -63 1256 -63 1168.5 -88.5 c 128,-1,62
 1081 -114 1081 -114 993 -114 c 0,63,64
 922 -115 922 -115 849.5 -96 c 128,-1,65
 777 -77 777 -77 727 -30 c 128,-1,66
 677 17 677 17 651.5 79.5 c 128,-1,67
 626 142 626 142 622 222 c 2,68,-1
 616 307 l 1,69,-1
 616 307 l 1,0,-1
1019 586 m 1,70,71
 1061 602 1061 602 1113.5 623 c 128,-1,72
 1166 644 1166 644 1215 685.5 c 128,-1,73
 1264 727 1264 727 1265 772 c 128,-1,74
 1266 817 1266 817 1244 852 c 0,75,76
 1220 888 1220 888 1118 947 c 1,77,-1
 1000 1021 l 1,78,-1
 927 1066 l 1,79,80
 901 1047 901 1047 876 1027.5 c 128,-1,81
 851 1008 851 1008 814.5 958 c 128,-1,82
 778 908 778 908 781 854.5 c 128,-1,83
 784 801 784 801 798.5 767.5 c 128,-1,84
 813 734 813 734 854.5 695.5 c 128,-1,85
 896 657 896 657 956 623 c 2,86,-1
 1019 586 l 1,87,-1
 1019 586 l 1,70,71
EndSplineSet
Validated: 37
EndChar
StartChar: dieresis
Encoding: 168 168 263
Width: 2048
Flags: W
LayerCount: 2
Back
Fore
SplineSet
548 1454 m 0,0,1
 581 1456 581 1456 623.5 1436.5 c 128,-1,2
 666 1417 666 1417 689.5 1382.5 c 128,-1,3
 713 1348 713 1348 712.5 1291 c 128,-1,4
 712 1234 712 1234 668 1188 c 128,-1,5
 624 1142 624 1142 558 1143 c 0,6,7
 492 1143 492 1143 447 1188.5 c 128,-1,8
 402 1234 402 1234 402 1300.5 c 128,-1,9
 402 1367 402 1367 447 1408.5 c 128,-1,10
 492 1450 492 1450 548 1454 c 0,0,1
1463 1451 m 0,11,12
 1497 1453 1497 1453 1539.5 1433.5 c 128,-1,13
 1582 1414 1582 1414 1605 1379 c 128,-1,14
 1628 1344 1628 1344 1627.5 1286.5 c 128,-1,15
 1627 1229 1627 1229 1583 1184 c 128,-1,16
 1539 1139 1539 1139 1473 1140 c 0,17,18
 1407 1140 1407 1140 1361.5 1185.5 c 128,-1,19
 1316 1231 1316 1231 1315.5 1297.5 c 128,-1,20
 1315 1364 1315 1364 1361 1405.5 c 128,-1,21
 1407 1447 1407 1447 1463 1451 c 0,11,12
EndSplineSet
Validated: 33
EndChar
StartChar: dieresis
Encoding: 519 168 263
Width: 2048
Flags: W
LayerCount: 3
Back
Fore
SplineSet
548 1454 m 0,0,1
 551 1454 551 1454 554 1454 c 128,-1,2
 557 1454 557 1454 559 1454 c 128,-1,3
 561 1454 561 1454 563 1454 c 128,-1,4
 565 1454 565 1454 567 1454 c 0,5,6
 583 1456 583 1456 624 1436 c 128,-1,8
 665 1416 665 1416 690 1382 c 0,9,10
 713 1350 713 1350 713 1293 c 0,11,12
 713 1292 713 1292 712 1291 c 0,13,14
 712 1234 712 1234 668 1188 c 0,15,16
 625 1143 625 1143 561 1143 c 0,17,18
 559 1143 559 1143 558 1143 c 0,19,20
 492 1143 492 1143 447 1188.5 c 128,-1,21
 402 1234 402 1234 402 1300.5 c 128,-1,22
 402 1367 402 1367 447 1408.5 c 0,23,24
 496 1454 496 1454 548 1454 c 0,0,1
1463 1451 m 0,25,26
 1466.1627907 1451.18604651 1466.1627907 1451.18604651 1469.39913467 1451.18604651 c 0,27,28
 1500.95348837 1451.18604651 1500.95348837 1451.18604651 1539.5 1433.5 c 0,29,30
 1582 1414 1582 1414 1605 1379 c 0,31,32
 1627.5106383 1344.74468085 1627.5106383 1344.74468085 1627.5106383 1288.93662291 c 0,33,34
 1627.5106383 1229.52224371 1627.5106383 1229.52224371 1583 1184 c 0,35,36
 1539.95652174 1139.97826087 1539.95652174 1139.97826087 1475.85916824 1139.97826087 c 0,37,38
 1474.43478261 1139.97826087 1474.43478261 1139.97826087 1473 1140 c 0,39,40
 1407 1140 1407 1140 1361.5 1185.5 c 0,41,42
 1315.49462366 1231.50537634 1315.49462366 1231.50537634 1315.49462366 1298.92721702 c 0,43,44
 1315.49462366 1364.44623656 1315.49462366 1364.44623656 1361 1405.5 c 0,45,46
 1407 1447 1407 1447 1463 1451 c 0,25,26
EndSplineSet
Validated: 524289
Layer: 2
EndChar
StartChar: degree
Encoding: 176 176 323
Width: 2048
Flags: W
LayerCount: 2
Back
Fore
SplineSet
491 1633 m 0,0,1
 594 1632 594 1632 677 1557 c 128,-1,2
 760 1482 760 1482 759.5 1363 c 128,-1,3
 759 1244 759 1244 680.5 1167 c 128,-1,4
 602 1090 602 1090 489 1090.5 c 128,-1,5
 376 1091 376 1091 298 1166.5 c 128,-1,6
 220 1242 220 1242 220 1364.5 c 128,-1,7
 220 1487 220 1487 306 1560 c 128,-1,8
 392 1633 392 1633 491 1633 c 0,0,1
489 1202 m 0,9,10
 553 1201 553 1201 599.5 1245.5 c 128,-1,11
 646 1290 646 1290 646.5 1358 c 128,-1,12
 647 1426 647 1426 602 1471.5 c 128,-1,13
 557 1517 557 1517 490 1515.5 c 128,-1,14
 423 1514 423 1514 375.5 1466.5 c 128,-1,15
 328 1419 328 1419 333 1350 c 0,16,17
 337 1282 337 1282 386.5 1242 c 128,-1,18
 436 1202 436 1202 489 1202 c 0,9,10
EndSplineSet
Validated: 33
EndChar
StartChar: plusminus
Encoding: 177 177 288
Width: 2048
Flags: W
LayerCount: 2
Back
Fore
SplineSet
409 98 m 1,0,-1
 409 270 l 1,1,-1
 1640 269 l 1,2,-1
 1640 98 l 1,3,-1
 409 98 l 1,0,-1
933 1600 m 1,4,-1
 1106 1600 l 1,5,-1
 1106 1119 l 1,6,-1
 1639 1119 l 1,7,-1
 1639 947 l 1,8,-1
 1106 947 l 1,9,-1
 1106 469 l 1,10,-1
 933 469 l 1,11,-1
 933 947 l 1,12,-1
 410 947 l 1,13,-1
 410 1119 l 1,14,-1
 933 1119 l 1,15,-1
 933 1600 l 1,4,-1
EndSplineSet
Validated: 1
EndChar
StartChar: periodcentered
Encoding: 183 183 260
Width: 2048
Flags: W
LayerCount: 2
Back
Fore
SplineSet
1027 614 m 0,0,1
 925 612 925 612 868 673.5 c 128,-1,2
 811 735 811 735 811 824 c 0,3,4
 811 910 811 910 869 975 c 128,-1,5
 927 1040 927 1040 1019.5 1040.5 c 128,-1,6
 1112 1041 1112 1041 1176 977 c 128,-1,7
 1240 913 1240 913 1240.5 823.5 c 128,-1,8
 1241 734 1241 734 1176 674.5 c 128,-1,9
 1111 615 1111 615 1027 614 c 0,0,1
EndSplineSet
Validated: 33
EndChar
StartChar: multiply
Encoding: 545 215 289
Width: 2048
Flags: W
LayerCount: 3
Back
Fore
SplineSet
899 821 m 1,0,-1
 407 1313 l 1,1,-1
 529 1436 l 1,2,-1
 1021 943 l 1,3,-1
 1509 1431 l 1,4,-1
 1633 1316 l 1,5,-1
 1142 821 l 1,6,-1
 1634 325 l 1,7,-1
 1513 204 l 1,8,-1
 1021 700 l 1,9,-1
 526 203 l 1,10,-1
 408 327 l 1,11,-1
 899 821 l 1,0,-1
EndSplineSet
Validated: 1
Layer: 2
EndChar
StartChar: aacute
Encoding: 225 225 916
Width: 2048
Flags: W
LayerCount: 2
Back
Fore
SplineSet
1195 354 m 1,0,1
 1175 332 1175 332 1142 303.5 c 128,-1,2
 1109 275 1109 275 1013 270 c 0,3,4
 908 264 908 264 835.5 306 c 128,-1,5
 763 348 763 348 725 404 c 128,-1,6
 687 460 687 460 669.5 534.5 c 128,-1,7
 652 609 652 609 650 702 c 128,-1,8
 648 795 648 795 659 855 c 0,9,10
 674 936 674 936 712.5 1002 c 128,-1,11
 751 1068 751 1068 798.5 1108.5 c 128,-1,12
 846 1149 846 1149 915 1173 c 128,-1,13
 984 1197 984 1197 1060 1185 c 0,14,15
 1120 1174 1120 1174 1149 1153 c 2,16,-1
 1196 1120 l 1,17,-1
 1196 1180 l 1,18,-1
 1368 1180 l 1,19,-1
 1368 268 l 1,20,-1
 1195 268 l 1,21,-1
 1195 354 l 1,0,1
1193 890 m 1,22,23
 1182 910 1182 910 1167.5 934 c 128,-1,24
 1153 958 1153 958 1115.5 982.5 c 128,-1,25
 1078 1007 1078 1007 1024 1011 c 0,26,27
 979 1013 979 1013 937 996 c 128,-1,28
 895 979 895 979 864.5 935 c 128,-1,29
 834 891 834 891 822 836.5 c 128,-1,30
 810 782 810 782 811 721 c 0,31,32
 811 654 811 654 825 594.5 c 128,-1,33
 839 535 839 535 864.5 502 c 128,-1,34
 890 469 890 469 924.5 454 c 128,-1,35
 959 439 959 439 1007 441 c 0,36,37
 1053 442 1053 442 1081.5 457.5 c 128,-1,38
 1110 473 1110 473 1138 515 c 128,-1,39
 1166 557 1166 557 1176 596 c 2,40,-1
 1193 657 l 1,41,-1
 1193 890 l 1,22,23
1004 1295 m 1,42,-1
 879 1380 l 1,43,-1
 1122 1660 l 1,44,-1
 1179 1623 l 1,45,-1
 1004 1295 l 1,42,-1
EndSplineSet
Validated: 33
EndChar
StartChar: egrave
Encoding: 232 232 922
Width: 2048
Flags: W
LayerCount: 2
Back
Fore
SplineSet
1390 684 m 1,0,-1
 795 685 l 1,1,2
 793 629 793 629 800.5 587 c 128,-1,3
 808 545 808 545 845.5 502.5 c 128,-1,4
 883 460 883 460 933 443.5 c 128,-1,5
 983 427 983 427 1051 425.5 c 128,-1,6
 1119 424 1119 424 1161 455 c 128,-1,7
 1203 486 1203 486 1210 545 c 2,8,-1
 1215 581 l 1,9,-1
 1383 579 l 1,10,11
 1379 537 1379 537 1371.5 486 c 128,-1,12
 1364 435 1364 435 1337 390.5 c 128,-1,13
 1310 346 1310 346 1273 321 c 128,-1,14
 1236 296 1236 296 1163 277.5 c 128,-1,15
 1090 259 1090 259 984 269 c 0,16,17
 868 279 868 279 807 316.5 c 128,-1,18
 746 354 746 354 706.5 406.5 c 128,-1,19
 667 459 667 459 648 528 c 128,-1,20
 629 597 629 597 625.5 682 c 128,-1,21
 622 767 622 767 639 858 c 0,22,23
 660 966 660 966 713.5 1043 c 128,-1,24
 767 1120 767 1120 847.5 1155 c 128,-1,25
 928 1190 928 1190 1018 1192 c 0,26,27
 1138 1193 1138 1193 1213 1149.5 c 128,-1,28
 1288 1106 1288 1106 1322.5 1055.5 c 128,-1,29
 1357 1005 1357 1005 1372.5 951 c 128,-1,30
 1388 897 1388 897 1389 800 c 2,31,-1
 1390 684 l 1,32,-1
 1390 684 l 1,0,-1
807 847 m 1,33,-1
 1217 847 l 1,34,35
 1215 874 1215 874 1212 897.5 c 128,-1,36
 1209 921 1209 921 1196 947.5 c 128,-1,37
 1183 974 1183 974 1145.5 1001.5 c 128,-1,38
 1108 1029 1108 1029 1046.5 1031 c 128,-1,39
 985 1033 985 1033 936 1019 c 128,-1,40
 887 1005 887 1005 851.5 960.5 c 128,-1,41
 816 916 816 916 811 873 c 2,42,-1
 807 847 l 1,43,-1
 807 847 l 1,33,-1
1003 1660 m 1,44,-1
 1178 1333 l 1,45,-1
 1121 1295 l 1,46,-1
 878 1575 l 1,47,-1
 1003 1660 l 1,44,-1
EndSplineSet
Validated: 37
EndChar
StartChar: eacute
Encoding: 1176 233 920
Width: 2048
Flags: W
LayerCount: 3
Back
Fore
SplineSet
1381 681 m 1,0,-1
 786 682 l 1,1,2
 783 625 783 625 791 583.5 c 128,-1,3
 799 542 799 542 837 499 c 128,-1,4
 875 456 875 456 924.5 439 c 128,-1,5
 974 422 974 422 1042 421 c 128,-1,6
 1110 420 1110 420 1152 452 c 128,-1,7
 1194 484 1194 484 1201 542 c 2,8,-1
 1206 578 l 1,9,-1
 1374 577 l 1,10,11
 1370 533 1370 533 1362.5 481.5 c 128,-1,12
 1355 430 1355 430 1328 386 c 128,-1,13
 1301 342 1301 342 1264 317 c 128,-1,14
 1227 292 1227 292 1154.5 273.5 c 128,-1,15
 1082 255 1082 255 975 266 c 0,16,17
 858 276 858 276 797.5 313.5 c 128,-1,18
 737 351 737 351 697.5 403.5 c 128,-1,19
 658 456 658 456 639 524.5 c 128,-1,20
 620 593 620 593 616.5 678 c 128,-1,21
 613 763 613 763 630 854 c 0,22,23
 651 962 651 962 704.5 1039 c 128,-1,24
 758 1116 758 1116 838.5 1152 c 128,-1,25
 919 1188 919 1188 1009 1189 c 0,26,27
 1129 1190 1129 1190 1204 1146.5 c 128,-1,28
 1279 1103 1279 1103 1313.5 1052.5 c 128,-1,29
 1348 1002 1348 1002 1363.5 947 c 128,-1,30
 1379 892 1379 892 1380 796 c 2,31,-1
 1381 681 l 1,32,-1
 1381 681 l 1,0,-1
798 844 m 1,33,-1
 1208 844 l 1,34,35
 1206 870 1206 870 1203 893.5 c 128,-1,36
 1200 917 1200 917 1186.5 944 c 128,-1,37
 1173 971 1173 971 1137 997.5 c 128,-1,38
 1101 1024 1101 1024 1037.5 1026.5 c 128,-1,39
 974 1029 974 1029 926.5 1015.5 c 128,-1,40
 879 1002 879 1002 843.5 957 c 128,-1,41
 808 912 808 912 802 869 c 2,42,-1
 798 844 l 1,43,-1
 798 844 l 1,33,-1
1004 1295 m 1,44,-1
 878 1380 l 1,45,-1
 1122 1660 l 1,46,-1
 1179 1623 l 1,47,-1
 1004 1295 l 1,44,-1
EndSplineSet
Layer: 2
EndChar
StartChar: ecircumflex
Encoding: 234 234 940
Width: 2048
Flags: W
LayerCount: 2
Back
Fore
SplineSet
1386 681 m 1,0,-1
 791 682 l 1,1,2
 788 625 788 625 796 583.5 c 128,-1,3
 804 542 804 542 842 499 c 128,-1,4
 880 456 880 456 929.5 439 c 128,-1,5
 979 422 979 422 1047 421 c 128,-1,6
 1115 420 1115 420 1157 452 c 128,-1,7
 1199 484 1199 484 1206 542 c 2,8,-1
 1211 578 l 1,9,-1
 1379 577 l 1,10,11
 1375 533 1375 533 1367.5 481.5 c 128,-1,12
 1360 430 1360 430 1333 386 c 128,-1,13
 1306 342 1306 342 1269 317 c 128,-1,14
 1232 292 1232 292 1159.5 273.5 c 128,-1,15
 1087 255 1087 255 980 266 c 0,16,17
 863 276 863 276 802.5 313.5 c 128,-1,18
 742 351 742 351 702.5 403.5 c 128,-1,19
 663 456 663 456 644 524.5 c 128,-1,20
 625 593 625 593 621.5 678 c 128,-1,21
 618 763 618 763 635 854 c 0,22,23
 656 962 656 962 709.5 1039 c 128,-1,24
 763 1116 763 1116 843.5 1152 c 128,-1,25
 924 1188 924 1188 1014 1189 c 0,26,27
 1134 1190 1134 1190 1209 1146.5 c 128,-1,28
 1284 1103 1284 1103 1318.5 1052.5 c 128,-1,29
 1353 1002 1353 1002 1368.5 947 c 128,-1,30
 1384 892 1384 892 1385 796 c 2,31,-1
 1386 681 l 1,32,-1
 1386 681 l 1,0,-1
803 844 m 1,33,-1
 1213 844 l 1,34,35
 1211 870 1211 870 1208 893.5 c 128,-1,36
 1205 917 1205 917 1191.5 944 c 128,-1,37
 1178 971 1178 971 1142 997.5 c 128,-1,38
 1106 1024 1106 1024 1042.5 1026.5 c 128,-1,39
 979 1029 979 1029 931.5 1015.5 c 128,-1,40
 884 1002 884 1002 848.5 957 c 128,-1,41
 813 912 813 912 807 869 c 2,42,-1
 803 844 l 1,43,-1
 803 844 l 1,33,-1
1022 1471 m 1,44,-1
 845 1319 l 1,45,-1
 771 1396 l 1,46,-1
 1020 1609 l 1,47,-1
 1280 1393 l 1,48,-1
 1212 1316 l 1,49,-1
 1022 1471 l 1,44,-1
EndSplineSet
Validated: 37
EndChar
StartChar: igrave
Encoding: 236 236 926
Width: 2048
Flags: W
LayerCount: 2
Back
Fore
SplineSet
932 1187 m 1,0,-1
 1113 1187 l 1,1,-1
 1114 268 l 1,2,-1
 931 267 l 1,3,-1
 932 1187 l 1,0,-1
1004 1660 m 1,4,-1
 1179 1333 l 1,5,-1
 1122 1295 l 1,6,-1
 879 1575 l 1,7,-1
 1004 1660 l 1,4,-1
EndSplineSet
Validated: 1
EndChar
StartChar: iacute
Encoding: 1180 237 924
Width: 2048
Flags: W
LayerCount: 3
Back
Fore
SplineSet
956 1187 m 1,0,-1
 1137 1187 l 1,1,-1
 1138 268 l 1,2,-1
 954 267 l 1,3,-1
 956 1187 l 1,0,-1
1031 1295 m 1,4,-1
 906 1380 l 1,5,-1
 1149 1660 l 1,6,-1
 1206 1623 l 1,7,-1
 1031 1295 l 1,4,-1
EndSplineSet
Layer: 2
EndChar
StartChar: ograve
Encoding: 1186 242 930
Width: 2048
Flags: W
LayerCount: 3
Back
Fore
SplineSet
634 901 m 0,0,1
 649 961 649 961 697.5 1039 c 128,-1,2
 746 1117 746 1117 822 1155.5 c 128,-1,3
 898 1194 898 1194 992 1198 c 0,4,5
 1089 1201 1089 1201 1176.5 1168 c 128,-1,6
 1264 1135 1264 1135 1319.5 1071 c 128,-1,7
 1375 1007 1375 1007 1397.5 918.5 c 128,-1,8
 1420 830 1420 830 1420 715 c 0,9,10
 1419 600 1419 600 1393.5 510 c 128,-1,11
 1368 420 1368 420 1313 367 c 128,-1,12
 1258 314 1258 314 1183.5 284.5 c 128,-1,13
 1109 255 1109 255 1016 257 c 0,14,15
 891 258 891 258 809.5 308 c 128,-1,16
 728 358 728 358 691 417 c 128,-1,17
 654 476 654 476 634.5 557 c 128,-1,18
 615 638 615 638 617.5 742 c 128,-1,19
 620 846 620 846 634 901 c 0,0,1
785 716 m 0,20,21
 787 647 787 647 802.5 597.5 c 128,-1,22
 818 548 818 548 845.5 511.5 c 128,-1,23
 873 475 873 475 930.5 449 c 128,-1,24
 988 423 988 423 1046 429 c 0,25,26
 1094 433 1094 433 1139.5 459.5 c 128,-1,27
 1185 486 1185 486 1206 520.5 c 128,-1,28
 1227 555 1227 555 1234.5 602.5 c 128,-1,29
 1242 650 1242 650 1243.5 738 c 128,-1,30
 1245 826 1245 826 1230 878 c 0,31,32
 1207 952 1207 952 1159.5 988.5 c 128,-1,33
 1112 1025 1112 1025 1057 1034 c 0,34,35
 981 1046 981 1046 927 1017.5 c 128,-1,36
 873 989 873 989 839.5 940.5 c 128,-1,37
 806 892 806 892 794 835 c 128,-1,38
 782 778 782 778 785 716 c 0,20,21
1003 1660 m 1,39,-1
 1178 1333 l 1,40,-1
 1121 1295 l 1,41,-1
 878 1575 l 1,42,-1
 1003 1660 l 1,39,-1
EndSplineSet
Layer: 2
EndChar
StartChar: oacute
Encoding: 243 243 928
Width: 2048
Flags: W
LayerCount: 2
Back
Fore
SplineSet
639 901 m 0,0,1
 654 961 654 961 702.5 1039 c 128,-1,2
 751 1117 751 1117 827 1155.5 c 128,-1,3
 903 1194 903 1194 997 1198 c 0,4,5
 1094 1201 1094 1201 1181.5 1168 c 128,-1,6
 1269 1135 1269 1135 1324.5 1071 c 128,-1,7
 1380 1007 1380 1007 1402.5 918.5 c 128,-1,8
 1425 830 1425 830 1425 715 c 0,9,10
 1424 600 1424 600 1398.5 510 c 128,-1,11
 1373 420 1373 420 1318 367 c 128,-1,12
 1263 314 1263 314 1188.5 284.5 c 128,-1,13
 1114 255 1114 255 1021 257 c 0,14,15
 896 258 896 258 814.5 308 c 128,-1,16
 733 358 733 358 696 417 c 128,-1,17
 659 476 659 476 639.5 557 c 128,-1,18
 620 638 620 638 622.5 742 c 128,-1,19
 625 846 625 846 639 901 c 0,0,1
790 716 m 0,20,21
 792 647 792 647 807.5 597.5 c 128,-1,22
 823 548 823 548 850.5 511.5 c 128,-1,23
 878 475 878 475 935.5 449 c 128,-1,24
 993 423 993 423 1051 429 c 0,25,26
 1099 433 1099 433 1144.5 459.5 c 128,-1,27
 1190 486 1190 486 1211 520.5 c 128,-1,28
 1232 555 1232 555 1239.5 602.5 c 128,-1,29
 1247 650 1247 650 1248.5 738 c 128,-1,30
 1250 826 1250 826 1235 878 c 0,31,32
 1212 952 1212 952 1164.5 988.5 c 128,-1,33
 1117 1025 1117 1025 1062 1034 c 0,34,35
 986 1046 986 1046 932 1017.5 c 128,-1,36
 878 989 878 989 844.5 940.5 c 128,-1,37
 811 892 811 892 799 835 c 128,-1,38
 787 778 787 778 790 716 c 0,20,21
1004 1295 m 1,39,-1
 879 1380 l 1,40,-1
 1122 1660 l 1,41,-1
 1180 1623 l 1,42,-1
 1004 1295 l 1,39,-1
EndSplineSet
Validated: 33
EndChar
StartChar: divide
Encoding: 247 247 290
Width: 2048
Flags: W
LayerCount: 2
Back
Fore
SplineSet
1020 1431 m 0,0,1
 1085 1430 1085 1430 1128 1387 c 128,-1,2
 1171 1344 1171 1344 1171 1283 c 0,3,4
 1170 1220 1170 1220 1127.5 1178 c 128,-1,5
 1085 1136 1085 1136 1022.5 1134.5 c 128,-1,6
 960 1133 960 1133 916 1174 c 128,-1,7
 872 1215 872 1215 871.5 1283 c 128,-1,8
 871 1351 871 1351 915.5 1391 c 128,-1,9
 960 1431 960 1431 1020 1431 c 0,0,1
407 732 m 1,10,-1
 407 904 l 1,11,-1
 1638 904 l 1,12,-1
 1638 732 l 1,13,-1
 407 732 l 1,10,-1
1020 503 m 0,14,15
 1085 502 1085 502 1128 459 c 128,-1,16
 1171 416 1171 416 1171 354 c 0,17,18
 1170 292 1170 292 1127.5 249.5 c 128,-1,19
 1085 207 1085 207 1023 205.5 c 128,-1,20
 961 204 961 204 916.5 245.5 c 128,-1,21
 872 287 872 287 871.5 355 c 128,-1,22
 871 423 871 423 915.5 463 c 128,-1,23
 960 503 960 503 1020 503 c 0,14,15
EndSplineSet
Validated: 33
EndChar
StartChar: ugrave
Encoding: 1190 249 934
Width: 2048
Flags: W
LayerCount: 3
Back
Fore
SplineSet
664 1187 m 1,0,-1
 844 1187 l 1,1,-1
 845 628 l 2,2,3
 845 556 845 556 859.5 526 c 128,-1,4
 874 496 874 496 914.5 473 c 128,-1,5
 955 450 955 450 1024 452 c 0,6,7
 1077 452 1077 452 1127.5 469.5 c 128,-1,8
 1178 487 1178 487 1192 513 c 2,9,-1
 1206 537 l 1,10,-1
 1207 1187 l 1,11,-1
 1388 1187 l 1,12,-1
 1388 271 l 1,13,-1
 1206 270 l 1,14,-1
 1206 314 l 1,15,16
 1188 305 1188 305 1171.5 297.5 c 128,-1,17
 1155 290 1155 290 1114.5 280 c 128,-1,18
 1074 270 1074 270 1000 273 c 0,19,20
 908 276 908 276 839 303 c 128,-1,21
 770 330 770 330 729.5 380.5 c 128,-1,22
 689 431 689 431 676 490 c 128,-1,23
 663 549 663 549 663 614 c 2,24,-1
 664 1187 l 1,0,-1
1004 1660 m 1,25,-1
 1179 1333 l 1,26,-1
 1122 1295 l 1,27,-1
 879 1575 l 1,28,-1
 1004 1660 l 1,25,-1
EndSplineSet
Layer: 2
EndChar
StartChar: uacute
Encoding: 1188 250 932
Width: 2048
Flags: W
LayerCount: 3
Back
Fore
SplineSet
652 1187 m 1,0,-1
 832 1187 l 1,1,-1
 833 628 l 2,2,3
 833 556 833 556 847.5 526 c 128,-1,4
 862 496 862 496 902.5 473 c 128,-1,5
 943 450 943 450 1012 452 c 0,6,7
 1065 452 1065 452 1115.5 469.5 c 128,-1,8
 1166 487 1166 487 1180 513 c 2,9,-1
 1194 537 l 1,10,-1
 1195 1187 l 1,11,-1
 1376 1187 l 1,12,-1
 1376 271 l 1,13,-1
 1194 270 l 1,14,-1
 1194 314 l 1,15,16
 1176 305 1176 305 1159.5 297.5 c 128,-1,17
 1143 290 1143 290 1102.5 280 c 128,-1,18
 1062 270 1062 270 988 273 c 0,19,20
 896 276 896 276 827 303 c 128,-1,21
 758 330 758 330 717.5 380.5 c 128,-1,22
 677 431 677 431 664 490 c 128,-1,23
 651 549 651 549 651 614 c 2,24,-1
 652 1187 l 1,0,-1
1004 1295 m 1,25,-1
 879 1380 l 1,26,-1
 1123 1660 l 1,27,-1
 1180 1623 l 1,28,-1
 1004 1295 l 1,25,-1
EndSplineSet
Layer: 2
EndChar
StartChar: udieresis
Encoding: 252 252 939
Width: 2048
Flags: W
LayerCount: 2
Back
Fore
SplineSet
654 1187 m 1,0,-1
 834 1187 l 1,1,-1
 835 627 l 2,2,3
 835 556 835 556 849.5 526 c 128,-1,4
 864 496 864 496 904 473.5 c 128,-1,5
 944 451 944 451 1014 452 c 0,6,7
 1069 452 1069 452 1118 469 c 128,-1,8
 1167 486 1167 486 1182 513 c 2,9,-1
 1196 536 l 1,10,-1
 1197 1187 l 1,11,-1
 1378 1187 l 1,12,-1
 1378 271 l 1,13,-1
 1196 270 l 1,14,-1
 1196 313 l 1,15,16
 1178 304 1178 304 1161.5 296.5 c 128,-1,17
 1145 289 1145 289 1104.5 279 c 128,-1,18
 1064 269 1064 269 990 272 c 0,19,20
 898 274 898 274 829.5 301.5 c 128,-1,21
 761 329 761 329 720 380.5 c 128,-1,22
 679 432 679 432 666 490 c 128,-1,23
 653 548 653 548 653 614 c 2,24,-1
 654 1187 l 1,0,-1
821 1572 m 0,25,26
 846 1572 846 1572 871 1558.5 c 128,-1,27
 896 1545 896 1545 909.5 1522 c 128,-1,28
 923 1499 923 1499 923 1472 c 0,29,30
 922 1444 922 1444 909 1421 c 128,-1,31
 896 1398 896 1398 872.5 1384.5 c 128,-1,32
 849 1371 849 1371 821 1372 c 0,33,34
 792 1372 792 1372 769 1385 c 128,-1,35
 746 1398 746 1398 733 1421 c 128,-1,36
 720 1444 720 1444 719.5 1471.5 c 128,-1,37
 719 1499 719 1499 733 1522 c 0,38,39
 746 1545 746 1545 771 1558 c 128,-1,40
 796 1571 796 1571 821 1572 c 0,25,26
1216 1572 m 0,41,42
 1239 1572 1239 1572 1265 1558.5 c 128,-1,43
 1291 1545 1291 1545 1304.5 1522 c 128,-1,44
 1318 1499 1318 1499 1318 1472 c 0,45,46
 1317 1444 1317 1444 1304 1421 c 128,-1,47
 1291 1398 1291 1398 1267 1384.5 c 128,-1,48
 1243 1371 1243 1371 1216 1372 c 0,49,50
 1188 1372 1188 1372 1165 1385 c 128,-1,51
 1142 1398 1142 1398 1128.5 1421.5 c 128,-1,52
 1115 1445 1115 1445 1114.5 1471.5 c 128,-1,53
 1114 1498 1114 1498 1129 1522 c 0,54,55
 1143 1546 1143 1546 1167.5 1558.5 c 128,-1,56
 1192 1571 1192 1571 1216 1572 c 0,41,42
EndSplineSet
Validated: 33
EndChar
StartChar: amacron
Encoding: 1171 257 915
Width: 2048
Flags: W
LayerCount: 3
Back
Fore
SplineSet
1195 354 m 1,0,1
 1175 332 1175 332 1142.5 303.5 c 128,-1,2
 1110 275 1110 275 1013 271 c 0,3,4
 907 265 907 265 835 306.5 c 128,-1,5
 763 348 763 348 725 404 c 128,-1,6
 687 460 687 460 669.5 534.5 c 128,-1,7
 652 609 652 609 650 703 c 128,-1,8
 648 797 648 797 659 856 c 0,9,10
 674 935 674 935 713 1002 c 128,-1,11
 752 1069 752 1069 798.5 1109 c 128,-1,12
 845 1149 845 1149 914.5 1173 c 128,-1,13
 984 1197 984 1197 1060 1185 c 0,14,15
 1120 1174 1120 1174 1149 1153 c 2,16,-1
 1196 1120 l 1,17,-1
 1196 1181 l 1,18,-1
 1368 1181 l 1,19,-1
 1368 268 l 1,20,-1
 1195 268 l 1,21,-1
 1195 354 l 1,0,1
1193 890 m 1,22,23
 1183 911 1183 911 1168.5 934 c 128,-1,24
 1154 957 1154 957 1115 982.5 c 128,-1,25
 1076 1008 1076 1008 1024 1012 c 0,26,27
 979 1015 979 1015 937 997.5 c 128,-1,28
 895 980 895 980 864.5 935 c 128,-1,29
 834 890 834 890 822 836 c 128,-1,30
 810 782 810 782 811 721 c 0,31,32
 811 655 811 655 825 595.5 c 128,-1,33
 839 536 839 536 864.5 503 c 128,-1,34
 890 470 890 470 924 455.5 c 128,-1,35
 958 441 958 441 1007 442 c 0,36,37
 1054 442 1054 442 1082 457.5 c 128,-1,38
 1110 473 1110 473 1137.5 514.5 c 128,-1,39
 1165 556 1165 556 1176 597 c 2,40,-1
 1193 657 l 1,41,-1
 1193 890 l 1,22,23
774 1448 m 1,42,-1
 773 1551 l 1,43,-1
 1300 1551 l 1,44,-1
 1301 1448 l 1,45,-1
 774 1448 l 1,42,-1
EndSplineSet
Layer: 2
EndChar
StartChar: emacron
Encoding: 275 275 919
Width: 2048
Flags: W
LayerCount: 2
Back
Fore
SplineSet
1392 684 m 1,0,-1
 797 685 l 1,1,2
 795 629 795 629 802.5 587 c 128,-1,3
 810 545 810 545 847.5 502.5 c 128,-1,4
 885 460 885 460 935 443.5 c 128,-1,5
 985 427 985 427 1053 425.5 c 128,-1,6
 1121 424 1121 424 1163 455 c 128,-1,7
 1205 486 1205 486 1212 545 c 2,8,-1
 1217 581 l 1,9,-1
 1385 579 l 1,10,11
 1381 537 1381 537 1373.5 486 c 128,-1,12
 1366 435 1366 435 1339 390.5 c 128,-1,13
 1312 346 1312 346 1275 321 c 128,-1,14
 1238 296 1238 296 1165 277.5 c 128,-1,15
 1092 259 1092 259 986 269 c 0,16,17
 870 279 870 279 809 316.5 c 128,-1,18
 748 354 748 354 708.5 406.5 c 128,-1,19
 669 459 669 459 650 528 c 128,-1,20
 631 597 631 597 627.5 682 c 128,-1,21
 624 767 624 767 641 858 c 0,22,23
 662 966 662 966 715.5 1043 c 128,-1,24
 769 1120 769 1120 849.5 1155 c 128,-1,25
 930 1190 930 1190 1020 1192 c 0,26,27
 1140 1193 1140 1193 1215 1149.5 c 128,-1,28
 1290 1106 1290 1106 1324.5 1055.5 c 128,-1,29
 1359 1005 1359 1005 1374.5 951 c 128,-1,30
 1390 897 1390 897 1391 800 c 2,31,-1
 1392 684 l 1,32,-1
 1392 684 l 1,0,-1
809 847 m 1,33,-1
 1219 847 l 1,34,35
 1217 874 1217 874 1214 897.5 c 128,-1,36
 1211 921 1211 921 1198 947.5 c 128,-1,37
 1185 974 1185 974 1147.5 1001.5 c 128,-1,38
 1110 1029 1110 1029 1048.5 1031 c 128,-1,39
 987 1033 987 1033 938 1019 c 128,-1,40
 889 1005 889 1005 853.5 960.5 c 128,-1,41
 818 916 818 916 813 873 c 2,42,-1
 809 847 l 1,43,-1
 809 847 l 1,33,-1
775 1448 m 1,44,-1
 774 1551 l 1,45,-1
 1301 1551 l 1,46,-1
 1302 1448 l 1,47,-1
 775 1448 l 1,44,-1
EndSplineSet
Validated: 37
EndChar
StartChar: imacron
Encoding: 1179 299 923
Width: 2048
Flags: W
LayerCount: 3
Back
Fore
SplineSet
933 1187 m 1,0,-1
 1115 1187 l 1,1,-1
 1115 268 l 1,2,-1
 932 267 l 1,3,-1
 933 1187 l 1,0,-1
766 1448 m 1,4,-1
 765 1551 l 1,5,-1
 1292 1551 l 1,6,-1
 1292 1448 l 1,7,-1
 766 1448 l 1,4,-1
EndSplineSet
Layer: 2
EndChar
StartChar: nacute
Encoding: 1199 324 943
Width: 2048
Flags: W
LayerCount: 3
Back
Fore
SplineSet
1004 1295 m 1,0,-1
 879 1380 l 1,1,-1
 1122 1660 l 1,2,-1
 1180 1623 l 1,3,-1
 1004 1295 l 1,0,-1
1384 276 m 1,4,-1
 1203 276 l 1,5,-1
 1203 835 l 2,6,7
 1203 903 1203 903 1187.5 935 c 128,-1,8
 1172 967 1172 967 1132.5 989.5 c 128,-1,9
 1093 1012 1093 1012 1023 1011 c 0,10,11
 969 1009 969 1009 918.5 992 c 128,-1,12
 868 975 868 975 855 950 c 2,13,-1
 841 926 l 1,14,-1
 841 276 l 1,15,-1
 660 276 l 1,16,-1
 660 1193 l 1,17,-1
 841 1193 l 1,18,-1
 841 1149 l 1,19,20
 858 1158 858 1158 873.5 1165 c 128,-1,21
 889 1172 889 1172 932.5 1181.5 c 128,-1,22
 976 1191 976 1191 1046 1190 c 0,23,24
 1136 1188 1136 1188 1206 1160.5 c 128,-1,25
 1276 1133 1276 1133 1315.5 1082.5 c 128,-1,26
 1355 1032 1355 1032 1369.5 971.5 c 128,-1,27
 1384 911 1384 911 1384 849 c 2,28,-1
 1384 276 l 1,4,-1
EndSplineSet
Layer: 2
EndChar
StartChar: ncaron
Encoding: 328 328 944
Width: 2048
Flags: W
LayerCount: 2
Back
Fore
SplineSet
1374 266 m 1,0,-1
 1193 266 l 1,1,-1
 1193 826 l 2,2,3
 1193 894 1193 894 1177.5 926 c 128,-1,4
 1162 958 1162 958 1122.5 980.5 c 128,-1,5
 1083 1003 1083 1003 1013 1002 c 0,6,7
 959 1000 959 1000 908.5 983 c 128,-1,8
 858 966 858 966 845 941 c 2,9,-1
 831 917 l 1,10,-1
 831 266 l 1,11,-1
 650 266 l 1,12,-1
 650 1183 l 1,13,-1
 831 1183 l 1,14,-1
 831 1140 l 1,15,16
 848 1148 848 1148 864.5 1155.5 c 128,-1,17
 881 1163 881 1163 922 1173 c 128,-1,18
 963 1183 963 1183 1036 1181 c 0,19,20
 1125 1178 1125 1178 1196 1150.5 c 128,-1,21
 1267 1123 1267 1123 1306 1073 c 128,-1,22
 1345 1023 1345 1023 1359.5 961.5 c 128,-1,23
 1374 900 1374 900 1374 839 c 2,24,-1
 1374 266 l 1,0,-1
1023 1475 m 1,25,-1
 1274 1636 l 1,26,-1
 1338 1546 l 1,27,-1
 1021 1336 l 1,28,-1
 713 1542 l 1,29,-1
 784 1636 l 1,30,-1
 1023 1475 l 1,25,-1
EndSplineSet
Validated: 33
EndChar
StartChar: omacron
Encoding: 1183 333 927
Width: 2048
Flags: W
LayerCount: 3
Back
Fore
SplineSet
641 907 m 0,0,1
 656 967 656 967 704.5 1045.5 c 128,-1,2
 753 1124 753 1124 829 1163 c 128,-1,3
 905 1202 905 1202 999 1205 c 0,4,5
 1094 1208 1094 1208 1183 1174.5 c 128,-1,6
 1272 1141 1272 1141 1327 1077.5 c 128,-1,7
 1382 1014 1382 1014 1404.5 925.5 c 128,-1,8
 1427 837 1427 837 1427 722 c 0,9,10
 1426 607 1426 607 1400.5 516 c 128,-1,11
 1375 425 1375 425 1320.5 373 c 128,-1,12
 1266 321 1266 321 1190.5 291.5 c 128,-1,13
 1115 262 1115 262 1023 264 c 0,14,15
 899 265 899 265 817 315 c 128,-1,16
 735 365 735 365 698 423.5 c 128,-1,17
 661 482 661 482 641.5 564 c 128,-1,18
 622 646 622 646 624 748.5 c 128,-1,19
 626 851 626 851 641 907 c 0,0,1
792 723 m 0,20,21
 794 655 794 655 809.5 604.5 c 128,-1,22
 825 554 825 554 852.5 517 c 128,-1,23
 880 480 880 480 937 455 c 128,-1,24
 994 430 994 430 1053 436 c 0,25,26
 1101 440 1101 440 1146.5 466.5 c 128,-1,27
 1192 493 1192 493 1213 527.5 c 128,-1,28
 1234 562 1234 562 1241.5 609.5 c 128,-1,29
 1249 657 1249 657 1250.5 745 c 128,-1,30
 1252 833 1252 833 1237 885 c 0,31,32
 1214 958 1214 958 1166.5 994.5 c 128,-1,33
 1119 1031 1119 1031 1064 1040 c 0,34,35
 989 1051 989 1051 934 1023 c 128,-1,36
 879 995 879 995 846 947 c 128,-1,37
 813 899 813 899 801 841 c 128,-1,38
 789 783 789 783 792 723 c 0,20,21
774 1448 m 1,39,-1
 773 1551 l 1,40,-1
 1300 1551 l 1,41,-1
 1300 1448 l 1,42,-1
 774 1448 l 1,39,-1
EndSplineSet
Layer: 2
EndChar
StartChar: umacron
Encoding: 363 363 931
Width: 2048
Flags: W
LayerCount: 2
Back
Fore
SplineSet
660 1187 m 1,0,-1
 840 1187 l 1,1,-1
 841 628 l 2,2,3
 841 556 841 556 855.5 526 c 128,-1,4
 870 496 870 496 910.5 473 c 128,-1,5
 951 450 951 450 1020 452 c 0,6,7
 1073 452 1073 452 1123.5 469.5 c 128,-1,8
 1174 487 1174 487 1188 513 c 2,9,-1
 1202 537 l 1,10,-1
 1203 1187 l 1,11,-1
 1384 1187 l 1,12,-1
 1384 271 l 1,13,-1
 1202 270 l 1,14,-1
 1202 314 l 1,15,16
 1184 305 1184 305 1167.5 297.5 c 128,-1,17
 1151 290 1151 290 1110.5 280 c 128,-1,18
 1070 270 1070 270 996 273 c 0,19,20
 904 276 904 276 835 303 c 128,-1,21
 766 330 766 330 725.5 380.5 c 128,-1,22
 685 431 685 431 672 490 c 128,-1,23
 659 549 659 549 659 614 c 2,24,-1
 660 1187 l 1,0,-1
773 1448 m 1,25,-1
 772 1551 l 1,26,-1
 1299 1551 l 1,27,-1
 1300 1448 l 1,28,-1
 773 1448 l 1,25,-1
EndSplineSet
Validated: 33
EndChar
StartChar: uni01CE
Encoding: 1173 462 917
Width: 2048
Flags: W
LayerCount: 3
Back
Fore
SplineSet
1024 1475 m 1,0,-1
 1274 1636 l 1,1,-1
 1338 1546 l 1,2,-1
 1022 1336 l 1,3,-1
 713 1542 l 1,4,-1
 784 1636 l 1,5,-1
 1024 1475 l 1,0,-1
1195 354 m 1,6,7
 1175 332 1175 332 1142 303.5 c 128,-1,8
 1109 275 1109 275 1013 270 c 0,9,10
 908 264 908 264 835.5 306 c 128,-1,11
 763 348 763 348 725 404 c 128,-1,12
 687 460 687 460 669.5 534.5 c 128,-1,13
 652 609 652 609 650 702 c 128,-1,14
 648 795 648 795 659 855 c 0,15,16
 674 936 674 936 712.5 1002 c 128,-1,17
 751 1068 751 1068 798.5 1108.5 c 128,-1,18
 846 1149 846 1149 915 1173 c 128,-1,19
 984 1197 984 1197 1060 1185 c 0,20,21
 1120 1174 1120 1174 1149 1153 c 2,22,-1
 1196 1120 l 1,23,-1
 1196 1180 l 1,24,-1
 1368 1180 l 1,25,-1
 1368 268 l 1,26,-1
 1195 268 l 1,27,-1
 1195 354 l 1,6,7
1193 890 m 1,28,29
 1182 910 1182 910 1167.5 934 c 128,-1,30
 1153 958 1153 958 1115.5 982.5 c 128,-1,31
 1078 1007 1078 1007 1024 1011 c 0,32,33
 979 1013 979 1013 937 996 c 128,-1,34
 895 979 895 979 864.5 935 c 128,-1,35
 834 891 834 891 822 836.5 c 128,-1,36
 810 782 810 782 811 721 c 0,37,38
 811 654 811 654 825 594.5 c 128,-1,39
 839 535 839 535 864.5 502 c 128,-1,40
 890 469 890 469 925 454 c 128,-1,41
 960 439 960 439 1007 441 c 0,42,43
 1053 442 1053 442 1081.5 457.5 c 128,-1,44
 1110 473 1110 473 1138 515 c 128,-1,45
 1166 557 1166 557 1176 596 c 2,46,-1
 1193 657 l 1,47,-1
 1193 890 l 1,28,29
EndSplineSet
Layer: 2
EndChar
StartChar: uni01D0
Encoding: 464 464 925
Width: 2048
Flags: W
LayerCount: 2
Back
Fore
SplineSet
928 1187 m 1,0,-1
 1109 1187 l 1,1,-1
 1109 268 l 1,2,-1
 927 267 l 1,3,-1
 928 1187 l 1,0,-1
1023 1475 m 1,4,-1
 1273 1636 l 1,5,-1
 1337 1546 l 1,6,-1
 1021 1336 l 1,7,-1
 713 1542 l 1,8,-1
 783 1636 l 1,9,-1
 1023 1475 l 1,4,-1
EndSplineSet
Validated: 1
EndChar
StartChar: uni01D2
Encoding: 1185 466 929
Width: 2048
Flags: W
LayerCount: 3
Back
Fore
SplineSet
627 901 m 0,0,1
 642 961 642 961 690.5 1039 c 128,-1,2
 739 1117 739 1117 815 1155.5 c 128,-1,3
 891 1194 891 1194 985 1198 c 0,4,5
 1082 1201 1082 1201 1169.5 1168 c 128,-1,6
 1257 1135 1257 1135 1312.5 1071 c 128,-1,7
 1368 1007 1368 1007 1390.5 918.5 c 128,-1,8
 1413 830 1413 830 1413 715 c 0,9,10
 1412 600 1412 600 1386.5 510 c 128,-1,11
 1361 420 1361 420 1306 367 c 128,-1,12
 1251 314 1251 314 1176.5 284.5 c 128,-1,13
 1102 255 1102 255 1009 257 c 0,14,15
 884 258 884 258 802.5 308 c 128,-1,16
 721 358 721 358 684 417 c 128,-1,17
 647 476 647 476 627.5 557 c 128,-1,18
 608 638 608 638 610.5 742 c 128,-1,19
 613 846 613 846 627 901 c 0,0,1
778 716 m 0,20,21
 780 647 780 647 795.5 597.5 c 128,-1,22
 811 548 811 548 838.5 511.5 c 128,-1,23
 866 475 866 475 923.5 449 c 128,-1,24
 981 423 981 423 1039 429 c 0,25,26
 1087 433 1087 433 1132.5 459.5 c 128,-1,27
 1178 486 1178 486 1199 520.5 c 128,-1,28
 1220 555 1220 555 1227.5 602.5 c 128,-1,29
 1235 650 1235 650 1236.5 738 c 128,-1,30
 1238 826 1238 826 1223 878 c 0,31,32
 1200 952 1200 952 1152.5 988.5 c 128,-1,33
 1105 1025 1105 1025 1050 1034 c 0,34,35
 974 1046 974 1046 920 1017.5 c 128,-1,36
 866 989 866 989 832.5 940.5 c 128,-1,37
 799 892 799 892 787 835 c 128,-1,38
 775 778 775 778 778 716 c 0,20,21
1022 1475 m 1,39,-1
 1272 1636 l 1,40,-1
 1337 1546 l 1,41,-1
 1020 1336 l 1,42,-1
 712 1542 l 1,43,-1
 783 1636 l 1,44,-1
 1022 1475 l 1,39,-1
EndSplineSet
Layer: 2
EndChar
StartChar: uni01D4
Encoding: 1189 468 933
Width: 2048
Flags: W
LayerCount: 3
Back
Fore
SplineSet
651 1184 m 1,0,-1
 831 1184 l 1,1,-1
 832 624 l 2,2,3
 832 552 832 552 846.5 522 c 128,-1,4
 861 492 861 492 901.5 469 c 128,-1,5
 942 446 942 446 1011 448 c 0,6,7
 1062 449 1062 449 1114 466.5 c 128,-1,8
 1166 484 1166 484 1179 509 c 2,9,-1
 1193 533 l 1,10,-1
 1194 1184 l 1,11,-1
 1375 1184 l 1,12,-1
 1375 268 l 1,13,-1
 1193 266 l 1,14,-1
 1193 310 l 1,15,16
 1175 301 1175 301 1158 293.5 c 128,-1,17
 1141 286 1141 286 1102.5 276.5 c 128,-1,18
 1064 267 1064 267 987 270 c 0,19,20
 893 273 893 273 825 299 c 128,-1,21
 757 325 757 325 716.5 376.5 c 128,-1,22
 676 428 676 428 663 486.5 c 128,-1,23
 650 545 650 545 650 611 c 2,24,-1
 651 1184 l 1,0,-1
1023 1475 m 1,25,-1
 1274 1636 l 1,26,-1
 1338 1546 l 1,27,-1
 1021 1336 l 1,28,-1
 713 1542 l 1,29,-1
 784 1636 l 1,30,-1
 1023 1475 l 1,25,-1
EndSplineSet
Layer: 2
EndChar
StartChar: uni01D6
Encoding: 1191 470 935
Width: 2048
Flags: W
LayerCount: 3
Back
Fore
SplineSet
825 1464 m 0,0,1
 850 1464 850 1464 875 1450.5 c 128,-1,2
 900 1437 900 1437 913 1413 c 128,-1,3
 926 1389 926 1389 926.5 1362 c 128,-1,4
 927 1335 927 1335 914 1313 c 0,5,6
 901 1290 901 1290 876.5 1276 c 128,-1,7
 852 1262 852 1262 825 1263 c 0,8,9
 798 1263 798 1263 773.5 1276.5 c 128,-1,10
 749 1290 749 1290 736 1312.5 c 128,-1,11
 723 1335 723 1335 724 1363 c 0,12,13
 724 1389 724 1389 737 1413 c 128,-1,14
 750 1437 750 1437 775 1450 c 128,-1,15
 800 1463 800 1463 825 1464 c 0,0,1
658 1186 m 1,16,-1
 838 1186 l 1,17,-1
 839 626 l 2,18,19
 839 555 839 555 853.5 525 c 128,-1,20
 868 495 868 495 908.5 472 c 128,-1,21
 949 449 949 449 1018 451 c 0,22,23
 1071 451 1071 451 1121.5 468.5 c 128,-1,24
 1172 486 1172 486 1186 512 c 2,25,-1
 1200 536 l 1,26,-1
 1201 1186 l 1,27,-1
 1382 1186 l 1,28,-1
 1382 270 l 1,29,-1
 1200 269 l 1,30,-1
 1200 313 l 1,31,32
 1182 303 1182 303 1166 295.5 c 128,-1,33
 1150 288 1150 288 1110 278.5 c 128,-1,34
 1070 269 1070 269 994 272 c 0,35,36
 900 275 900 275 832.5 301 c 128,-1,37
 765 327 765 327 724 379 c 128,-1,38
 683 431 683 431 670 489 c 128,-1,39
 657 547 657 547 657 613 c 2,40,-1
 658 1186 l 1,16,-1
1213 1464 m 0,41,42
 1237 1464 1237 1464 1261.5 1450.5 c 128,-1,43
 1286 1437 1286 1437 1300 1412.5 c 128,-1,44
 1314 1388 1314 1388 1314.5 1362 c 128,-1,45
 1315 1336 1315 1336 1301 1313 c 256,46,47
 1287 1290 1287 1290 1263 1276 c 128,-1,48
 1239 1262 1239 1262 1213 1263 c 0,49,50
 1186 1263 1186 1263 1161.5 1276.5 c 128,-1,51
 1137 1290 1137 1290 1124 1312.5 c 128,-1,52
 1111 1335 1111 1335 1112 1363 c 0,53,54
 1112 1389 1112 1389 1125 1413 c 128,-1,55
 1138 1437 1138 1437 1163 1450 c 128,-1,56
 1188 1463 1188 1463 1213 1464 c 0,41,42
771 1566 m 1,57,-1
 770 1669 l 1,58,-1
 1297 1669 l 1,59,-1
 1298 1566 l 1,60,-1
 771 1566 l 1,57,-1
EndSplineSet
Layer: 2
EndChar
StartChar: uni01D8
Encoding: 1192 472 936
Width: 2048
Flags: W
LayerCount: 3
Back
Fore
SplineSet
824 1464 m 0,0,1
 849 1464 849 1464 874 1450.5 c 128,-1,2
 899 1437 899 1437 912.5 1414 c 128,-1,3
 926 1391 926 1391 926 1364 c 0,4,5
 925 1336 925 1336 912 1313 c 128,-1,6
 899 1290 899 1290 875 1276 c 128,-1,7
 851 1262 851 1262 824 1263 c 0,8,9
 796 1263 796 1263 772.5 1276.5 c 128,-1,10
 749 1290 749 1290 736 1313 c 128,-1,11
 723 1336 723 1336 722.5 1363.5 c 128,-1,12
 722 1391 722 1391 736 1414 c 0,13,14
 749 1437 749 1437 774 1450 c 128,-1,15
 799 1463 799 1463 824 1464 c 0,0,1
657 1187 m 1,16,-1
 837 1187 l 1,17,-1
 838 627 l 2,18,19
 838 555 838 555 852.5 525 c 128,-1,20
 867 495 867 495 907.5 472 c 128,-1,21
 948 449 948 449 1017 451 c 0,22,23
 1070 451 1070 451 1120.5 468.5 c 128,-1,24
 1171 486 1171 486 1185 512 c 2,25,-1
 1199 536 l 1,26,-1
 1200 1187 l 1,27,-1
 1381 1187 l 1,28,-1
 1381 270 l 1,29,-1
 1199 270 l 1,30,-1
 1199 313 l 1,31,32
 1181 304 1181 304 1164.5 296.5 c 128,-1,33
 1148 289 1148 289 1107.5 279 c 128,-1,34
 1067 269 1067 269 993 272 c 0,35,36
 901 275 901 275 832 302 c 128,-1,37
 763 329 763 329 722.5 379.5 c 128,-1,38
 682 430 682 430 669 489 c 128,-1,39
 656 548 656 548 656 614 c 2,40,-1
 657 1187 l 1,16,-1
1219 1464 m 0,41,42
 1243 1463 1243 1463 1268 1450 c 128,-1,43
 1293 1437 1293 1437 1306.5 1414 c 128,-1,44
 1320 1391 1320 1391 1320 1364 c 0,45,46
 1319 1336 1319 1336 1306 1313 c 128,-1,47
 1293 1290 1293 1290 1269 1276.5 c 128,-1,48
 1245 1263 1245 1263 1219 1263 c 0,49,50
 1191 1262 1191 1262 1167.5 1276 c 128,-1,51
 1144 1290 1144 1290 1130.5 1313.5 c 128,-1,52
 1117 1337 1117 1337 1116.5 1363.5 c 128,-1,53
 1116 1390 1116 1390 1131 1414 c 0,54,55
 1145 1438 1145 1438 1169.5 1451 c 128,-1,56
 1194 1464 1194 1464 1219 1464 c 0,41,42
1009 1484 m 1,57,-1
 895 1569 l 1,58,-1
 1125 1802 l 1,59,-1
 1171 1773 l 1,60,-1
 1009 1484 l 1,57,-1
EndSplineSet
Layer: 2
EndChar
StartChar: uni01DA
Encoding: 474 474 937
Width: 2048
Flags: W
LayerCount: 2
Back
Fore
SplineSet
1018 1650 m 1,0,-1
 1255 1782 l 1,1,-1
 1322 1690 l 1,2,-1
 1022 1525 l 1,3,-1
 711 1690 l 1,4,-1
 775 1782 l 1,5,-1
 1018 1650 l 1,0,-1
826 1464 m 0,6,7
 851 1464 851 1464 876 1450.5 c 128,-1,8
 901 1437 901 1437 914.5 1414 c 128,-1,9
 928 1391 928 1391 928 1364 c 0,10,11
 927 1336 927 1336 914 1313 c 128,-1,12
 901 1290 901 1290 877 1276 c 128,-1,13
 853 1262 853 1262 826 1263 c 0,14,15
 798 1263 798 1263 774.5 1276.5 c 128,-1,16
 751 1290 751 1290 738 1313 c 128,-1,17
 725 1336 725 1336 724.5 1363.5 c 128,-1,18
 724 1391 724 1391 738 1414 c 0,19,20
 751 1437 751 1437 776 1450 c 128,-1,21
 801 1463 801 1463 826 1464 c 0,6,7
659 1187 m 1,22,-1
 839 1187 l 1,23,-1
 840 627 l 2,24,25
 840 555 840 555 854.5 525 c 128,-1,26
 869 495 869 495 909.5 472 c 128,-1,27
 950 449 950 449 1019 451 c 0,28,29
 1072 451 1072 451 1122.5 468.5 c 128,-1,30
 1173 486 1173 486 1187 512 c 2,31,-1
 1201 536 l 1,32,-1
 1202 1187 l 1,33,-1
 1383 1187 l 1,34,-1
 1383 270 l 1,35,-1
 1201 270 l 1,36,-1
 1201 313 l 1,37,38
 1183 304 1183 304 1166.5 296.5 c 128,-1,39
 1150 289 1150 289 1109.5 279 c 128,-1,40
 1069 269 1069 269 995 272 c 0,41,42
 903 275 903 275 834 302 c 128,-1,43
 765 329 765 329 724.5 379.5 c 128,-1,44
 684 430 684 430 671 489 c 128,-1,45
 658 548 658 548 658 614 c 2,46,-1
 659 1187 l 1,22,-1
1218 1464 m 0,47,48
 1242 1463 1242 1463 1267 1450 c 128,-1,49
 1292 1437 1292 1437 1305.5 1414 c 128,-1,50
 1319 1391 1319 1391 1319 1364 c 0,51,52
 1318 1336 1318 1336 1305 1313 c 128,-1,53
 1292 1290 1292 1290 1268 1276.5 c 128,-1,54
 1244 1263 1244 1263 1218 1263 c 0,55,56
 1190 1262 1190 1262 1166.5 1276 c 128,-1,57
 1143 1290 1143 1290 1129.5 1313.5 c 128,-1,58
 1116 1337 1116 1337 1115.5 1363.5 c 128,-1,59
 1115 1390 1115 1390 1130 1414 c 0,60,61
 1144 1438 1144 1438 1168.5 1451 c 128,-1,62
 1193 1464 1193 1464 1218 1464 c 0,47,48
EndSplineSet
Validated: 33
EndChar
StartChar: uni0251
Encoding: 1197 593 941
Width: 2048
Flags: W
LayerCount: 3
Back
Fore
SplineSet
1198 353 m 1,0,1
 1178 332 1178 332 1145 303.5 c 128,-1,2
 1112 275 1112 275 1016 270 c 0,3,4
 910 263 910 263 838.5 305 c 128,-1,5
 767 347 767 347 728.5 404 c 128,-1,6
 690 461 690 461 672.5 535 c 128,-1,7
 655 609 655 609 653 702 c 128,-1,8
 651 795 651 795 662 855 c 0,9,10
 677 936 677 936 715.5 1002 c 128,-1,11
 754 1068 754 1068 801.5 1109 c 128,-1,12
 849 1150 849 1150 917.5 1173.5 c 128,-1,13
 986 1197 986 1197 1063 1185 c 0,14,15
 1124 1174 1124 1174 1152 1153 c 2,16,-1
 1199 1119 l 1,17,-1
 1199 1180 l 1,18,-1
 1371 1180 l 1,19,-1
 1371 268 l 1,20,-1
 1198 268 l 1,21,-1
 1198 353 l 1,0,1
1196 890 m 1,22,23
 1185 910 1185 910 1170.5 934 c 128,-1,24
 1156 958 1156 958 1118.5 982.5 c 128,-1,25
 1081 1007 1081 1007 1027 1011 c 0,26,27
 982 1013 982 1013 940 996 c 128,-1,28
 898 979 898 979 867.5 935 c 128,-1,29
 837 891 837 891 825 836.5 c 128,-1,30
 813 782 813 782 814 721 c 0,31,32
 814 654 814 654 828 594.5 c 128,-1,33
 842 535 842 535 867.5 502 c 128,-1,34
 893 469 893 469 927.5 454 c 128,-1,35
 962 439 962 439 1010 441 c 0,36,37
 1056 442 1056 442 1084.5 457.5 c 128,-1,38
 1113 473 1113 473 1141 515 c 128,-1,39
 1169 557 1169 557 1179 596 c 2,40,-1
 1196 657 l 1,41,-1
 1196 890 l 1,22,23
EndSplineSet
Layer: 2
EndChar
StartChar: uni0261
Encoding: 609 609 946
Width: 2048
Flags: W
LayerCount: 2
Back
Fore
SplineSet
1196 1184 m 1,0,-1
 1377 1182 l 1,1,-1
 1378 268 l 2,2,3
 1378 197 1378 197 1363 129.5 c 128,-1,4
 1348 62 1348 62 1309.5 7 c 128,-1,5
 1271 -48 1271 -48 1197 -84 c 128,-1,6
 1123 -120 1123 -120 1013 -125 c 0,7,8
 858 -134 858 -134 770.5 -76.5 c 128,-1,9
 683 -19 683 -19 678 38 c 1,10,-1
 654 162 l 1,11,-1
 834 162 l 1,12,13
 838 133 838 133 851 102.5 c 128,-1,14
 864 72 864 72 904.5 61 c 128,-1,15
 945 50 945 50 990 50 c 0,16,17
 1060 49 1060 49 1100.5 64 c 128,-1,18
 1141 79 1141 79 1168.5 124.5 c 128,-1,19
 1196 170 1196 170 1196 234 c 2,20,-1
 1196 302 l 1,21,22
 1157 282 1157 282 1118 267.5 c 128,-1,23
 1079 253 1079 253 1003 253 c 0,24,25
 895 252 895 252 823 290.5 c 128,-1,26
 751 329 751 329 707.5 391.5 c 128,-1,27
 664 454 664 454 643.5 538.5 c 128,-1,28
 623 623 623 623 620.5 711 c 128,-1,29
 618 799 618 799 644 890 c 0,30,31
 666 965 666 965 711 1030.5 c 128,-1,32
 756 1096 756 1096 833 1141 c 128,-1,33
 910 1186 910 1186 1021 1184 c 0,34,35
 1058 1183 1058 1183 1105 1173.5 c 128,-1,36
 1152 1164 1152 1164 1180 1148 c 2,37,-1
 1196 1139 l 1,38,-1
 1196 1184 l 1,0,-1
1197 646 m 2,39,-1
 1196 804 l 2,40,41
 1195 866 1195 866 1181 907.5 c 128,-1,42
 1167 949 1167 949 1133.5 978 c 128,-1,43
 1100 1007 1100 1007 1046 1014 c 0,44,45
 981 1021 981 1021 924 990.5 c 128,-1,46
 867 960 867 960 832 900.5 c 128,-1,47
 797 841 797 841 796 748 c 128,-1,48
 795 655 795 655 809 603 c 0,49,50
 827 532 827 532 861.5 496.5 c 128,-1,51
 896 461 896 461 942.5 442 c 128,-1,52
 989 423 989 423 1044 430 c 0,53,54
 1111 437 1111 437 1143.5 472.5 c 128,-1,55
 1176 508 1176 508 1186.5 552.5 c 128,-1,56
 1197 597 1197 597 1197 646 c 2,39,-1
EndSplineSet
Validated: 33
EndChar
StartChar: caron
Encoding: 711 711 262
Width: 2048
Flags: W
LayerCount: 2
Back
Fore
SplineSet
616 1599 m 1,0,-1
 799 1600 l 1,1,-1
 1022 1171 l 1,2,-1
 1225 1600 l 1,3,-1
 1405 1599 l 1,4,-1
 1115 988 l 1,5,-1
 926 988 l 1,6,-1
 616 1599 l 1,0,-1
EndSplineSet
Validated: 1
EndChar
StartChar: uni02C9
Encoding: 713 713 261
Width: 2048
Flags: W
LayerCount: 2
Back
Fore
SplineSet
715 1191 m 1,0,-1
 715 1364 l 1,1,-1
 1328 1363 l 1,2,-1
 1328 1191 l 1,3,-1
 715 1191 l 1,0,-1
EndSplineSet
Validated: 1
EndChar
StartChar: Alpha
Encoding: 983 913 727
Width: 2048
Flags: W
LayerCount: 3
Back
Fore
SplineSet
1025 1525 m 1,0,-1
 1431 509 l 2,1,2
 1472 404 1472 404 1493 362.5 c 128,-1,3
 1514 321 1514 321 1548 291 c 128,-1,4
 1582 261 1582 261 1616 253 c 2,5,-1
 1665 241 l 2,6,7
 1695 233 1695 233 1690.5 214 c 128,-1,8
 1686 195 1686 195 1665 195 c 2,9,-1
 1205 195 l 2,10,11
 1183 195 1183 195 1180 213.5 c 128,-1,12
 1177 232 1177 232 1200 235 c 2,13,-1
 1246 241 l 2,14,15
 1286 246 1286 246 1310.5 258 c 128,-1,16
 1335 270 1335 270 1341 299.5 c 128,-1,17
 1347 329 1347 329 1330 376 c 2,18,-1
 1235 620 l 1,19,-1
 734 620 l 1,20,-1
 647 403 l 2,21,22
 634 372 634 372 628.5 340.5 c 128,-1,23
 623 309 623 309 626 294 c 0,24,25
 630 264 630 264 644 254.5 c 128,-1,26
 658 245 658 245 702 238 c 2,27,-1
 751 230 l 2,28,29
 774 226 774 226 771.5 206.5 c 128,-1,30
 769 187 769 187 751 187 c 2,31,-1
 361 187 l 2,32,33
 333 187 333 187 338.5 204.5 c 128,-1,34
 344 222 344 222 361 227 c 2,35,-1
 390 235 l 2,36,37
 413 241 413 241 436.5 250 c 128,-1,38
 460 259 460 259 487.5 285.5 c 128,-1,39
 515 312 515 312 531.5 343.5 c 128,-1,40
 548 375 548 375 577 444 c 2,41,-1
 1025 1525 l 1,0,-1
757 674 m 1,42,-1
 1210 674 l 1,43,-1
 989 1258 l 1,44,-1
 757 674 l 1,42,-1
EndSplineSet
Layer: 2
EndChar
StartChar: Beta
Encoding: 914 914 728
Width: 2048
Flags: W
LayerCount: 2
Back
Fore
SplineSet
1177 845 m 1,0,1
 1242 829 1242 829 1289.5 814 c 128,-1,2
 1337 799 1337 799 1390.5 765.5 c 128,-1,3
 1444 732 1444 732 1477.5 672 c 128,-1,4
 1511 612 1511 612 1509 525 c 0,5,6
 1505 412 1505 412 1454 345.5 c 128,-1,7
 1403 279 1403 279 1331 243.5 c 128,-1,8
 1259 208 1259 208 1170 198.5 c 128,-1,9
 1081 189 1081 189 966 189 c 2,10,-1
 521 189 l 2,11,12
 487 189 487 189 488 207.5 c 128,-1,13
 489 226 489 226 511 229 c 2,14,-1
 549 234 l 2,15,16
 599 240 599 240 629 253.5 c 128,-1,17
 659 267 659 267 674.5 291 c 128,-1,18
 690 315 690 315 690 398 c 2,19,-1
 690 1257 l 2,20,21
 690 1298 690 1298 682 1328.5 c 128,-1,22
 674 1359 674 1359 653 1382 c 128,-1,23
 632 1405 632 1405 583 1412 c 2,24,-1
 502 1423 l 2,25,26
 481 1425 481 1425 481 1444 c 128,-1,27
 481 1463 481 1463 502 1463 c 2,28,-1
 969 1463 l 2,29,30
 1042 1463 1042 1463 1110.5 1453.5 c 128,-1,31
 1179 1444 1179 1444 1253 1416 c 128,-1,32
 1327 1388 1327 1388 1385.5 1323 c 128,-1,33
 1444 1258 1444 1258 1446.5 1151 c 128,-1,34
 1449 1044 1449 1044 1408 981 c 0,35,36
 1356 900 1356 900 1291 883 c 1,37,-1
 1177 845 l 1,38,-1
 1177 845 l 1,0,1
966 1399 m 2,39,-1
 885 1399 l 2,40,41
 859 1399 859 1399 846 1388 c 128,-1,42
 833 1377 833 1377 833 1362 c 2,43,-1
 833 923 l 2,44,45
 833 897 833 897 841.5 890 c 128,-1,46
 850 883 850 883 874 883 c 2,47,-1
 991 883 l 2,48,49
 1046 883 1046 883 1100 899.5 c 128,-1,50
 1154 916 1154 916 1198.5 944.5 c 128,-1,51
 1243 973 1243 973 1272 1020 c 128,-1,52
 1301 1067 1301 1067 1301.5 1148 c 128,-1,53
 1302 1229 1302 1229 1269 1282 c 0,54,55
 1238 1329 1238 1329 1180 1358 c 128,-1,56
 1122 1387 1122 1387 1079.5 1393 c 128,-1,57
 1037 1399 1037 1399 966 1399 c 2,39,-1
1015 814 m 2,58,-1
 878 814 l 2,59,60
 850 814 850 814 841.5 804 c 128,-1,61
 833 794 833 794 833 779 c 2,62,-1
 833 318 l 2,63,64
 833 288 833 288 847 272.5 c 128,-1,65
 861 257 861 257 901 257 c 2,66,-1
 1015 257 l 2,67,68
 1119 257 1119 257 1198.5 297 c 128,-1,69
 1278 337 1278 337 1315 402 c 128,-1,70
 1352 467 1352 467 1351 543 c 0,71,72
 1348 622 1348 622 1313 674 c 128,-1,73
 1278 726 1278 726 1229.5 756 c 128,-1,74
 1181 786 1181 786 1119 800 c 128,-1,75
 1057 814 1057 814 1015 814 c 2,58,-1
EndSplineSet
Validated: 37
EndChar
StartChar: Gamma
Encoding: 985 915 729
Width: 2048
Flags: W
LayerCount: 3
Back
Fore
SplineSet
1511 1471 m 1,0,-1
 1527 1135 l 2,1,2
 1527 1116 1527 1116 1513 1114 c 128,-1,3
 1499 1112 1499 1112 1489 1130 c 0,4,5
 1483 1139 1483 1139 1478 1162.5 c 128,-1,6
 1473 1186 1473 1186 1457 1232 c 128,-1,7
 1441 1278 1441 1278 1421 1312 c 128,-1,8
 1401 1346 1401 1346 1373.5 1368.5 c 128,-1,9
 1346 1391 1346 1391 1301 1401.5 c 128,-1,10
 1256 1412 1256 1412 1194 1412 c 2,11,-1
 850 1411 l 1,12,-1
 850 459 l 2,13,14
 850 324 850 324 881 286 c 128,-1,15
 912 248 912 248 946 237.5 c 128,-1,16
 980 227 980 227 1039 221 c 2,17,-1
 1115 213 l 2,18,19
 1128 211 1128 211 1129 193 c 128,-1,20
 1130 175 1130 175 1104 175 c 2,21,-1
 531 175 l 2,22,23
 504 175 504 175 506 192.5 c 128,-1,24
 508 210 508 210 528 213 c 2,25,-1
 591 221 l 2,26,27
 638 227 638 227 664.5 251 c 128,-1,28
 691 275 691 275 701 324.5 c 128,-1,29
 711 374 711 374 711 459 c 2,30,-1
 711 1234 l 2,31,32
 711 1305 711 1305 691 1349 c 128,-1,33
 671 1393 671 1393 646.5 1405 c 128,-1,34
 622 1417 622 1417 578 1424 c 2,35,-1
 537 1430 l 2,36,37
 507 1434 507 1434 506.5 1452.5 c 128,-1,38
 506 1471 506 1471 520 1471 c 2,39,-1
 1511 1471 l 1,0,-1
EndSplineSet
Layer: 2
EndChar
StartChar: uni0394
Encoding: 916 916 730
Width: 2048
Flags: W
LayerCount: 2
Back
Fore
SplineSet
405 199 m 1,0,-1
 1018 1538 l 1,1,-1
 1643 198 l 1,2,-1
 405 199 l 1,0,-1
540 308 m 1,3,-1
 1400 308 l 1,4,-1
 980 1282 l 1,5,-1
 540 308 l 1,3,-1
EndSplineSet
Validated: 1
EndChar
StartChar: Epsilon
Encoding: 987 917 731
Width: 2048
Flags: W
LayerCount: 3
Back
Fore
SplineSet
1460 1492 m 1,0,-1
 1484 1198 l 2,1,2
 1485 1177 1485 1177 1469 1176 c 128,-1,3
 1453 1175 1453 1175 1443 1198 c 0,4,5
 1441 1200 1441 1200 1430.5 1239 c 128,-1,6
 1420 1278 1420 1278 1400 1315 c 128,-1,7
 1380 1352 1380 1352 1356.5 1374 c 128,-1,8
 1333 1396 1333 1396 1293.5 1409 c 128,-1,9
 1254 1422 1254 1422 1220 1422 c 2,10,-1
 813 1422 l 1,11,-1
 813 911 l 1,12,-1
 1103 911 l 2,13,14
 1140 911 1140 911 1187 920 c 128,-1,15
 1234 929 1234 929 1263 948 c 128,-1,16
 1292 967 1292 967 1309 996.5 c 128,-1,17
 1326 1026 1326 1026 1329.5 1067 c 128,-1,18
 1333 1108 1333 1108 1339 1121 c 128,-1,19
 1345 1134 1345 1134 1361.5 1134.5 c 128,-1,20
 1378 1135 1378 1135 1378 1108 c 2,21,-1
 1378 671 l 2,22,23
 1378 643 1378 643 1363 641 c 128,-1,24
 1348 639 1348 639 1339 660 c 0,25,26
 1338 661 1338 661 1336 680.5 c 128,-1,27
 1334 700 1334 700 1326.5 723 c 128,-1,28
 1319 746 1319 746 1309 763.5 c 128,-1,29
 1299 781 1299 781 1272.5 799 c 128,-1,30
 1246 817 1246 817 1209.5 825.5 c 128,-1,31
 1173 834 1173 834 1103 834 c 2,32,-1
 813 834 l 1,33,-1
 813 392 l 2,34,35
 813 310 813 310 837 289 c 128,-1,36
 861 268 861 268 909 268 c 2,37,-1
 1253 267 l 2,38,39
 1302 266 1302 266 1338 275.5 c 128,-1,40
 1374 285 1374 285 1406 302.5 c 128,-1,41
 1438 320 1438 320 1463.5 344.5 c 128,-1,42
 1489 369 1489 369 1513 407.5 c 128,-1,43
 1537 446 1537 446 1549 483.5 c 128,-1,44
 1561 521 1561 521 1575.5 534.5 c 128,-1,45
 1590 548 1590 548 1602 543 c 128,-1,46
 1614 538 1614 538 1607 513 c 2,47,-1
 1508 189 l 1,48,-1
 497 189 l 2,49,50
 477 189 477 189 479 206.5 c 128,-1,51
 481 224 481 224 497 226 c 2,52,-1
 548 232 l 2,53,54
 599 238 599 238 628.5 256.5 c 128,-1,55
 658 275 658 275 666 314 c 128,-1,56
 674 353 674 353 674 444 c 2,57,-1
 674 1290 l 2,58,59
 674 1348 674 1348 645 1391.5 c 128,-1,60
 616 1435 616 1435 556 1446 c 2,61,-1
 513 1451 l 1,62,-1
 480 1457 l 2,63,64
 468 1459 468 1459 466 1475.5 c 128,-1,65
 464 1492 464 1492 483 1492 c 2,66,-1
 1460 1492 l 1,0,-1
EndSplineSet
Layer: 2
EndChar
StartChar: Zeta
Encoding: 918 918 732
Width: 2048
Flags: W
LayerCount: 2
Back
Fore
SplineSet
449 191 m 1,0,-1
 1304 1416 l 1,1,-1
 884 1416 l 2,2,3
 839 1416 839 1416 796 1410 c 128,-1,4
 753 1404 753 1404 709.5 1384 c 128,-1,5
 666 1364 666 1364 646.5 1331 c 128,-1,6
 627 1298 627 1298 614.5 1245.5 c 128,-1,7
 602 1193 602 1193 598.5 1170.5 c 128,-1,8
 595 1148 595 1148 589.5 1132 c 128,-1,9
 584 1116 584 1116 568 1115.5 c 128,-1,10
 552 1115 552 1115 554 1132 c 2,11,-1
 586 1482 l 1,12,-1
 1536 1482 l 1,13,-1
 677 251 l 1,14,-1
 1198 251 l 2,15,16
 1248 251 1248 251 1305.5 264.5 c 128,-1,17
 1363 278 1363 278 1402 301.5 c 128,-1,18
 1441 325 1441 325 1467 361 c 128,-1,19
 1493 397 1493 397 1505.5 426.5 c 128,-1,20
 1518 456 1518 456 1526 482.5 c 128,-1,21
 1534 509 1534 509 1545 520 c 128,-1,22
 1556 531 1556 531 1568 523.5 c 128,-1,23
 1580 516 1580 516 1577 500 c 2,24,-1
 1509 189 l 1,25,-1
 449 191 l 1,0,-1
EndSplineSet
Validated: 1
EndChar
StartChar: Eta
Encoding: 919 919 733
Width: 2048
Flags: W
LayerCount: 2
Back
Fore
SplineSet
1381 865 m 1,0,-1
 1380 1238 l 2,1,2
 1379 1267 1379 1267 1369 1307.5 c 128,-1,3
 1359 1348 1359 1348 1336.5 1378 c 128,-1,4
 1314 1408 1314 1408 1286.5 1419.5 c 128,-1,5
 1259 1431 1259 1431 1222 1436 c 2,6,-1
 1180 1441 l 2,7,8
 1152 1444 1152 1444 1154.5 1464.5 c 128,-1,9
 1157 1485 1157 1485 1180 1485 c 2,10,-1
 1693 1485 l 2,11,12
 1719 1485 1719 1485 1717.5 1464.5 c 128,-1,13
 1716 1444 1716 1444 1695 1441 c 2,14,-1
 1659 1436 l 2,15,16
 1625 1431 1625 1431 1598 1420.5 c 128,-1,17
 1571 1410 1571 1410 1550 1385 c 128,-1,18
 1529 1360 1529 1360 1520.5 1321.5 c 128,-1,19
 1512 1283 1512 1283 1512 1238 c 2,20,-1
 1512 449 l 2,21,22
 1512 418 1512 418 1519.5 377.5 c 128,-1,23
 1527 337 1527 337 1549.5 305.5 c 128,-1,24
 1572 274 1572 274 1598 262.5 c 128,-1,25
 1624 251 1624 251 1665 242 c 2,26,-1
 1700 234 l 2,27,28
 1729 227 1729 227 1725 209.5 c 128,-1,29
 1721 192 1721 192 1698 192 c 2,30,-1
 1191 192 l 2,31,32
 1165 192 1165 192 1163.5 210.5 c 128,-1,33
 1162 229 1162 229 1191 234 c 2,34,-1
 1246 242 l 2,35,36
 1269 245 1269 245 1302 264 c 128,-1,37
 1335 283 1335 283 1353 311 c 128,-1,38
 1371 339 1371 339 1375 375 c 128,-1,39
 1379 411 1379 411 1380 446 c 2,40,-1
 1381 805 l 1,41,-1
 674 805 l 1,42,-1
 673 439 l 2,43,44
 672 405 672 405 679 366.5 c 128,-1,45
 686 328 686 328 709 296 c 128,-1,46
 732 264 732 264 760 251.5 c 128,-1,47
 788 239 788 239 824 232 c 2,48,-1
 860 224 l 2,49,50
 888 217 888 217 884.5 199 c 128,-1,51
 881 181 881 181 858 181 c 2,52,-1
 354 181 l 2,53,54
 327 181 327 181 325.5 200 c 128,-1,55
 324 219 324 219 354 224 c 2,56,-1
 408 232 l 2,57,58
 431 235 431 235 464 253 c 128,-1,59
 497 271 497 271 514.5 299 c 128,-1,60
 532 327 532 327 536.5 365.5 c 128,-1,61
 541 404 541 404 541 436 c 2,62,-1
 541 1229 l 2,63,64
 541 1260 541 1260 531.5 1299.5 c 128,-1,65
 522 1339 522 1339 498.5 1370 c 128,-1,66
 475 1401 475 1401 450 1411 c 128,-1,67
 425 1421 425 1421 383 1428 c 2,68,-1
 342 1434 l 2,69,70
 317 1437 317 1437 318 1456.5 c 128,-1,71
 319 1476 319 1476 342 1476 c 2,72,-1
 852 1476 l 2,73,74
 879 1476 879 1476 877 1456.5 c 128,-1,75
 875 1437 875 1437 855 1434 c 2,76,-1
 819 1428 l 2,77,78
 780 1421 780 1421 756 1411.5 c 128,-1,79
 732 1402 732 1402 711 1376.5 c 128,-1,80
 690 1351 690 1351 681 1313 c 128,-1,81
 672 1275 672 1275 673 1229 c 2,82,-1
 674 865 l 1,83,-1
 1381 865 l 1,0,-1
EndSplineSet
Validated: 33
EndChar
StartChar: Theta
Encoding: 990 920 734
Width: 2048
Flags: W
LayerCount: 3
Back
Fore
SplineSet
944 941 m 2,0,-1
 1065 941 l 2,1,2
 1111 941 1111 941 1139.5 950 c 128,-1,3
 1168 959 1168 959 1184 978 c 128,-1,4
 1200 997 1200 997 1207 1026 c 2,5,-1
 1220 1088 l 2,6,7
 1226 1103 1226 1103 1242 1105 c 128,-1,8
 1258 1107 1258 1107 1258 1088 c 2,9,-1
 1258 690 l 2,10,11
 1258 670 1258 670 1242.5 665.5 c 128,-1,12
 1227 661 1227 661 1215 682 c 0,13,14
 1211 687 1211 687 1208.5 721.5 c 128,-1,15
 1206 756 1206 756 1181 779 c 128,-1,16
 1156 802 1156 802 1132.5 810 c 128,-1,17
 1109 818 1109 818 1065 818 c 2,18,-1
 944 818 l 2,19,20
 871 818 871 818 849.5 786 c 128,-1,21
 828 754 828 754 821.5 719.5 c 128,-1,22
 815 685 815 685 811.5 673.5 c 128,-1,23
 808 662 808 662 790 653.5 c 128,-1,24
 772 645 772 645 772 679 c 2,25,-1
 772 1083 l 2,26,27
 772 1100 772 1100 786.5 1099.5 c 128,-1,28
 801 1099 801 1099 806 1090.5 c 128,-1,29
 811 1082 811 1082 813 1060 c 128,-1,30
 815 1038 815 1038 827 1010.5 c 128,-1,31
 839 983 839 983 863.5 962 c 128,-1,32
 888 941 888 941 944 941 c 2,0,-1
402 813 m 0,33,34
 401 933 401 933 428.5 1052 c 128,-1,35
 456 1171 456 1171 550 1294.5 c 128,-1,36
 644 1418 644 1418 761.5 1468.5 c 128,-1,37
 879 1519 879 1519 1013 1522 c 0,38,39
 1145 1524 1145 1524 1275 1474 c 128,-1,40
 1405 1424 1405 1424 1492.5 1301 c 128,-1,41
 1580 1178 1580 1178 1609 1054 c 128,-1,42
 1638 930 1638 930 1635 813 c 0,43,44
 1631 676 1631 676 1592.5 571.5 c 128,-1,45
 1554 467 1554 467 1475.5 370 c 128,-1,46
 1397 273 1397 273 1281.5 217.5 c 128,-1,47
 1166 162 1166 162 1013 162 c 0,48,49
 843 161 843 161 729.5 222 c 128,-1,50
 616 283 616 283 541.5 382.5 c 128,-1,51
 467 482 467 482 435.5 579 c 128,-1,52
 404 676 404 676 402 813 c 0,33,34
1013 234 m 0,53,54
 1120 233 1120 233 1202 277.5 c 128,-1,55
 1284 322 1284 322 1352.5 412 c 128,-1,56
 1421 502 1421 502 1449 608.5 c 128,-1,57
 1477 715 1477 715 1474 851 c 0,58,59
 1470 985 1470 985 1439 1102.5 c 128,-1,60
 1408 1220 1408 1220 1339.5 1303 c 128,-1,61
 1271 1386 1271 1386 1186 1419 c 128,-1,62
 1101 1452 1101 1452 1013 1451 c 0,63,64
 922 1449 922 1449 842 1412.5 c 128,-1,65
 762 1376 762 1376 699 1296.5 c 128,-1,66
 636 1217 636 1217 601.5 1101 c 128,-1,67
 567 985 567 985 562 856 c 128,-1,68
 557 727 557 727 587 616 c 0,69,70
 619 493 619 493 684.5 405.5 c 128,-1,71
 750 318 750 318 831 276 c 128,-1,72
 912 234 912 234 1013 234 c 0,53,54
EndSplineSet
Layer: 2
EndChar
StartChar: Iota
Encoding: 991 921 735
Width: 2048
Flags: W
LayerCount: 3
Back
Fore
SplineSet
955 433 m 2,0,-1
 955 1230 l 2,1,2
 955 1261 955 1261 945 1301.5 c 128,-1,3
 935 1342 935 1342 912.5 1371.5 c 128,-1,4
 890 1401 890 1401 861.5 1413 c 128,-1,5
 833 1425 833 1425 797 1430 c 2,6,-1
 756 1435 l 2,7,8
 730 1438 730 1438 732 1458 c 128,-1,9
 734 1478 734 1478 756 1478 c 2,10,-1
 1266 1478 l 2,11,12
 1293 1478 1293 1478 1291 1457.5 c 128,-1,13
 1289 1437 1289 1437 1269 1435 c 2,14,-1
 1233 1430 l 2,15,16
 1200 1425 1200 1425 1172.5 1413.5 c 128,-1,17
 1145 1402 1145 1402 1124.5 1377.5 c 128,-1,18
 1104 1353 1104 1353 1095.5 1314.5 c 128,-1,19
 1087 1276 1087 1276 1087 1230 c 2,20,-1
 1087 437 l 2,21,22
 1087 403 1087 403 1093.5 363.5 c 128,-1,23
 1100 324 1100 324 1123 292 c 128,-1,24
 1146 260 1146 260 1174 247.5 c 128,-1,25
 1202 235 1202 235 1238 228 c 2,26,-1
 1274 220 l 2,27,28
 1303 213 1303 213 1299 195.5 c 128,-1,29
 1295 178 1295 178 1272 178 c 2,30,-1
 768 178 l 2,31,32
 741 178 741 178 739.5 196.5 c 128,-1,33
 738 215 738 215 768 220 c 2,34,-1
 822 228 l 2,35,36
 844 231 844 231 878 250 c 128,-1,37
 912 269 912 269 929 297 c 128,-1,38
 946 325 946 325 950.5 362.5 c 128,-1,39
 955 400 955 400 955 433 c 2,0,-1
EndSplineSet
Layer: 2
EndChar
StartChar: Kappa
Encoding: 922 922 736
Width: 2048
Flags: W
LayerCount: 2
Back
Fore
SplineSet
702 893 m 1,0,-1
 784 893 l 2,1,2
 815 893 815 893 854.5 917 c 128,-1,3
 894 941 894 941 943 993 c 2,4,-1
 1046 1111 l 1,5,-1
 1191 1274 l 2,6,7
 1227 1317 1227 1317 1245.5 1349.5 c 128,-1,8
 1264 1382 1264 1382 1262 1396 c 128,-1,9
 1260 1410 1260 1410 1250.5 1423 c 128,-1,10
 1241 1436 1241 1436 1206 1443 c 2,11,-1
 1150 1454 l 2,12,13
 1125 1458 1125 1458 1125.5 1474 c 128,-1,14
 1126 1490 1126 1490 1153 1490 c 2,15,-1
 1613 1489 l 2,16,17
 1629 1488 1629 1488 1633.5 1475 c 128,-1,18
 1638 1462 1638 1462 1614 1457 c 2,19,-1
 1565 1446 l 2,20,21
 1514 1434 1514 1434 1486 1420.5 c 128,-1,22
 1458 1407 1458 1407 1426.5 1380.5 c 128,-1,23
 1395 1354 1395 1354 1360 1318 c 128,-1,24
 1325 1282 1325 1282 1201 1153 c 128,-1,25
 1077 1024 1077 1024 1066 1012 c 2,26,-1
 989 930 l 1,27,-1
 1435 408 l 2,28,29
 1467 370 1467 370 1503 334 c 128,-1,30
 1539 298 1539 298 1572.5 275.5 c 128,-1,31
 1606 253 1606 253 1638 246 c 2,32,-1
 1715 229 l 2,33,34
 1739 223 1739 223 1739.5 207.5 c 128,-1,35
 1740 192 1740 192 1717 192 c 2,36,-1
 1226 192 l 2,37,38
 1193 192 1193 192 1197.5 207.5 c 128,-1,39
 1202 223 1202 223 1223 226 c 2,40,-1
 1267 232 l 2,41,42
 1311 238 1311 238 1325.5 260.5 c 128,-1,43
 1340 283 1340 283 1332 305.5 c 128,-1,44
 1324 328 1324 328 1298 360 c 2,45,-1
 1237 431 l 2,46,47
 1129 555 1129 555 1126 560 c 2,48,-1
 1016 682 l 1,49,50
 932 783 932 783 895 811.5 c 128,-1,51
 858 840 858 840 820 840 c 2,52,-1
 702 840 l 1,53,-1
 701 442 l 2,54,55
 700 376 700 376 714.5 334 c 128,-1,56
 729 292 729 292 759 272 c 128,-1,57
 789 252 789 252 827 242 c 2,58,-1
 884 226 l 2,59,60
 910 218 910 218 907.5 202 c 128,-1,61
 905 186 905 186 878 186 c 2,62,-1
 396 186 l 2,63,64
 363 186 363 186 362.5 201.5 c 128,-1,65
 362 217 362 217 393 226 c 2,66,-1
 450 242 l 2,67,68
 484 251 484 251 513.5 278 c 128,-1,69
 543 305 543 305 552.5 348 c 128,-1,70
 562 391 562 391 562 441 c 2,71,-1
 562 1244 l 2,72,73
 562 1291 562 1291 548 1334 c 128,-1,74
 534 1377 534 1377 504 1397.5 c 128,-1,75
 474 1418 474 1418 420 1434 c 2,76,-1
 379 1446 l 2,77,78
 358 1452 358 1452 358 1469.5 c 128,-1,79
 358 1487 358 1487 382 1487 c 2,80,-1
 890 1487 l 2,81,82
 905 1487 905 1487 909 1470.5 c 128,-1,83
 913 1454 913 1454 887 1448 c 2,84,-1
 830 1434 l 2,85,86
 790 1424 790 1424 758 1401.5 c 128,-1,87
 726 1379 726 1379 713 1337 c 128,-1,88
 700 1295 700 1295 701 1244 c 2,89,-1
 702 893 l 1,0,-1
EndSplineSet
Validated: 33
EndChar
StartChar: Lambda
Encoding: 993 923 737
Width: 2048
Flags: W
LayerCount: 3
Back
Fore
SplineSet
1027 1528 m 1,0,-1
 1471 439 l 2,1,2
 1507 348 1507 348 1531.5 317.5 c 128,-1,3
 1556 287 1556 287 1582 271.5 c 128,-1,4
 1608 256 1608 256 1638 248 c 2,5,-1
 1687 234 l 2,6,7
 1702 229 1702 229 1700 215 c 128,-1,8
 1698 201 1698 201 1679 201 c 2,9,-1
 1215 201 l 2,10,11
 1191 201 1191 201 1186.5 214 c 128,-1,12
 1182 227 1182 227 1210 234 c 2,13,-1
 1258 246 l 2,14,15
 1300 256 1300 256 1318 271 c 128,-1,16
 1336 286 1336 286 1337.5 313.5 c 128,-1,17
 1339 341 1339 341 1330 369 c 2,18,-1
 1297 449 l 1,19,-1
 994 1228 l 1,20,-1
 669 442 l 2,21,22
 640 373 640 373 632 351.5 c 128,-1,23
 624 330 624 330 628 308 c 0,24,25
 632 276 632 276 654 260 c 128,-1,26
 676 244 676 244 727 232 c 2,27,-1
 759 224 l 2,28,29
 779 218 779 218 776 203.5 c 128,-1,30
 773 189 773 189 749 189 c 2,31,-1
 364 189 l 2,32,33
 348 189 348 189 345 203.5 c 128,-1,34
 342 218 342 218 358 224 c 2,35,-1
 385 232 l 1,36,-1
 434 246 l 2,37,38
 477 261 477 261 502.5 290.5 c 128,-1,39
 528 320 528 320 545 355 c 128,-1,40
 562 390 562 390 587 451 c 2,41,-1
 1027 1528 l 1,0,-1
EndSplineSet
Layer: 2
EndChar
StartChar: Mu
Encoding: 994 924 738
Width: 2048
Flags: W
LayerCount: 3
Back
Fore
SplineSet
515 1480 m 1,0,-1
 1014 437 l 1,1,-1
 1522 1489 l 1,2,-1
 1825 1488 l 2,3,4
 1850 1487 1850 1487 1851.5 1471 c 128,-1,5
 1853 1455 1853 1455 1828 1450 c 2,6,-1
 1775 1438 l 2,7,8
 1716 1424 1716 1424 1684 1385 c 128,-1,9
 1652 1346 1652 1346 1653 1270 c 2,10,-1
 1654 465 l 2,11,12
 1654 392 1654 392 1667 346.5 c 128,-1,13
 1680 301 1680 301 1715.5 269.5 c 128,-1,14
 1751 238 1751 238 1792 232 c 2,15,-1
 1838 224 l 2,16,17
 1860 220 1860 220 1859.5 202 c 128,-1,18
 1859 184 1859 184 1838 184 c 2,19,-1
 1337 184 l 2,20,21
 1314 184 1314 184 1314.5 202.5 c 128,-1,22
 1315 221 1315 221 1331 224 c 2,23,-1
 1389 235 l 2,24,25
 1446 245 1446 245 1473 274 c 128,-1,26
 1500 303 1500 303 1507.5 345.5 c 128,-1,27
 1515 388 1515 388 1515 465 c 2,28,-1
 1515 1297 l 1,29,-1
 973 198 l 1,30,-1
 463 1264 l 1,31,-1
 463 426 l 2,32,33
 463 348 463 348 489 301.5 c 128,-1,34
 515 255 515 255 549 241.5 c 128,-1,35
 583 228 583 228 616 222 c 2,36,-1
 659 214 l 2,37,38
 678 210 678 210 674.5 193.5 c 128,-1,39
 671 177 671 177 653 177 c 2,40,-1
 223 177 l 2,41,42
 196 177 196 177 197 193 c 128,-1,43
 198 209 198 209 217 214 c 2,44,-1
 261 225 l 1,45,-1
 315 238 l 1,46,47
 355 254 355 254 374 292.5 c 128,-1,48
 393 331 393 331 393 426 c 2,49,-1
 392 1238 l 2,50,51
 391 1326 391 1326 357 1368.5 c 128,-1,52
 323 1411 323 1411 254 1428 c 2,53,-1
 209 1439 l 2,54,55
 192 1443 192 1443 193 1461.5 c 128,-1,56
 194 1480 194 1480 212 1480 c 2,57,-1
 515 1480 l 1,0,-1
EndSplineSet
Layer: 2
EndChar
StartChar: Nu
Encoding: 995 925 739
Width: 2048
Flags: W
LayerCount: 3
Back
Fore
SplineSet
665 1484 m 1,0,-1
 1454 546 l 1,1,-1
 1454 1241 l 2,2,3
 1454 1291 1454 1291 1438 1338.5 c 128,-1,4
 1422 1386 1422 1386 1391.5 1408 c 128,-1,5
 1361 1430 1361 1430 1320 1440 c 2,6,-1
 1258 1454 l 2,7,8
 1234 1459 1234 1459 1238 1476 c 128,-1,9
 1242 1493 1242 1493 1263 1493 c 2,10,-1
 1697 1493 l 2,11,12
 1722 1493 1722 1493 1723.5 1475.5 c 128,-1,13
 1725 1458 1725 1458 1699 1454 c 2,14,-1
 1653 1446 l 2,15,16
 1609 1438 1609 1438 1577.5 1412.5 c 128,-1,17
 1546 1387 1546 1387 1535.5 1342.5 c 128,-1,18
 1525 1298 1525 1298 1525 1245 c 2,19,-1
 1525 197 l 1,20,-1
 627 1282 l 1,21,-1
 627 447 l 2,22,23
 627 383 627 383 643 337 c 128,-1,24
 659 291 659 291 694.5 266 c 128,-1,25
 730 241 730 241 777 232 c 2,26,-1
 818 224 l 2,27,28
 839 219 839 219 836.5 200 c 128,-1,29
 834 181 834 181 805 181 c 2,30,-1
 401 181 l 2,31,32
 374 181 374 181 372.5 198 c 128,-1,33
 371 215 371 215 393 221 c 2,34,-1
 443 234 l 2,35,36
 480 243 480 243 509 264.5 c 128,-1,37
 538 286 538 286 547 327.5 c 128,-1,38
 556 369 556 369 556 458 c 2,39,-1
 556 1334 l 1,40,41
 533 1360 533 1360 514 1377.5 c 128,-1,42
 495 1395 495 1395 459.5 1410.5 c 128,-1,43
 424 1426 424 1426 381 1433 c 2,44,-1
 313 1443 l 2,45,46
 291 1446 291 1446 292 1465 c 128,-1,47
 293 1484 293 1484 313 1484 c 2,48,-1
 665 1484 l 1,0,-1
EndSplineSet
Layer: 2
EndChar
StartChar: Xi
Encoding: 996 926 740
Width: 2048
Flags: W
LayerCount: 3
Back
Fore
SplineSet
516 1478 m 1,0,-1
 1502 1479 l 1,1,-1
 1523 1181 l 2,2,3
 1524 1158 1524 1158 1507.5 1157 c 128,-1,4
 1491 1156 1491 1156 1480 1173 c 2,5,-1
 1453 1228 l 2,6,7
 1434 1263 1434 1263 1398 1289.5 c 128,-1,8
 1362 1316 1362 1316 1330.5 1328.5 c 128,-1,9
 1299 1341 1299 1341 1260.5 1348.5 c 128,-1,10
 1222 1356 1222 1356 1183 1356 c 2,11,-1
 850 1356 l 2,12,13
 813 1356 813 1356 756.5 1344.5 c 128,-1,14
 700 1333 700 1333 666.5 1314.5 c 128,-1,15
 633 1296 633 1296 605 1262.5 c 128,-1,16
 577 1229 577 1229 563 1197.5 c 128,-1,17
 549 1166 549 1166 541.5 1153.5 c 128,-1,18
 534 1141 534 1141 518 1144 c 128,-1,19
 502 1147 502 1147 503 1168 c 2,20,-1
 516 1478 l 1,0,-1
877 915 m 2,21,-1
 1087 915 l 2,22,23
 1131 915 1131 915 1174 923.5 c 128,-1,24
 1217 932 1217 932 1242 951.5 c 128,-1,25
 1267 971 1267 971 1278.5 996.5 c 128,-1,26
 1290 1022 1290 1022 1297.5 1049.5 c 128,-1,27
 1305 1077 1305 1077 1312 1092 c 128,-1,28
 1319 1107 1319 1107 1335.5 1108 c 128,-1,29
 1352 1109 1352 1109 1352 1091 c 2,30,-1
 1352 661 l 2,31,32
 1352 636 1352 636 1336.5 632.5 c 128,-1,33
 1321 629 1321 629 1308 653 c 0,34,35
 1307 653 1307 653 1294 700.5 c 128,-1,36
 1281 748 1281 748 1235.5 770 c 128,-1,37
 1190 792 1190 792 1087 792 c 2,38,-1
 877 792 l 2,39,40
 801 792 801 792 770.5 764 c 128,-1,41
 740 736 740 736 733 719 c 128,-1,42
 726 702 726 702 715 668 c 128,-1,43
 704 634 704 634 685.5 631.5 c 128,-1,44
 667 629 667 629 667 658 c 2,45,-1
 667 1084 l 2,46,47
 667 1104 667 1104 681 1104.5 c 128,-1,48
 695 1105 695 1105 705 1091 c 0,49,50
 712 1078 712 1078 715.5 1039.5 c 128,-1,51
 719 1001 719 1001 737 973 c 128,-1,52
 755 945 755 945 786.5 930 c 128,-1,53
 818 915 818 915 877 915 c 2,21,-1
519 180 m 1,54,-1
 446 510 l 2,55,56
 442 531 442 531 456.5 531.5 c 128,-1,57
 471 532 471 532 481 522 c 0,58,59
 493 508 493 508 514.5 462 c 128,-1,60
 536 416 536 416 566 381 c 128,-1,61
 596 346 596 346 629 329 c 128,-1,62
 662 312 662 312 720.5 306.5 c 128,-1,63
 779 301 779 301 852 301 c 2,64,-1
 1185 301 l 2,65,66
 1213 301 1213 301 1279 308 c 128,-1,67
 1345 315 1345 315 1400 336 c 128,-1,68
 1455 357 1455 357 1489 435 c 128,-1,69
 1523 513 1523 513 1534.5 529 c 128,-1,70
 1546 545 1546 545 1559.5 541 c 128,-1,71
 1573 537 1573 537 1569 516 c 2,72,-1
 1504 179 l 1,73,-1
 519 180 l 1,54,-1
EndSplineSet
Layer: 2
EndChar
StartChar: Omicron
Encoding: 997 927 741
Width: 2048
Flags: W
LayerCount: 3
Back
Fore
SplineSet
414 914 m 0,0,1
 430 1113 430 1113 512.5 1251 c 128,-1,2
 595 1389 595 1389 731.5 1460 c 128,-1,3
 868 1531 868 1531 1019 1533 c 0,4,5
 1187 1535 1187 1535 1317 1462 c 128,-1,6
 1447 1389 1447 1389 1532.5 1253 c 128,-1,7
 1618 1117 1618 1117 1630 926.5 c 128,-1,8
 1642 736 1642 736 1587 581 c 0,9,10
 1537 441 1537 441 1449 350 c 128,-1,11
 1361 259 1361 259 1251 213 c 128,-1,12
 1141 167 1141 167 1019 167 c 0,13,14
 879 165 879 165 775.5 214.5 c 128,-1,15
 672 264 672 264 582.5 358 c 128,-1,16
 493 452 493 452 446.5 592 c 128,-1,17
 400 732 400 732 414 914 c 0,0,1
572 821 m 0,18,19
 575 685 575 685 607 571.5 c 128,-1,20
 639 458 639 458 747 345 c 128,-1,21
 855 232 855 232 1019.5 231.5 c 128,-1,22
 1184 231 1184 231 1314 366 c 0,23,24
 1397 453 1397 453 1431 569 c 128,-1,25
 1465 685 1465 685 1469 807 c 128,-1,26
 1473 929 1473 929 1459 1023 c 0,27,28
 1442 1128 1442 1128 1398.5 1221.5 c 128,-1,29
 1355 1315 1355 1315 1260 1392.5 c 128,-1,30
 1165 1470 1165 1470 1019 1468 c 0,31,32
 885 1466 885 1466 791 1393.5 c 128,-1,33
 697 1321 697 1321 649 1227 c 128,-1,34
 601 1133 601 1133 585 1029.5 c 128,-1,35
 569 926 569 926 572 821 c 0,18,19
EndSplineSet
Layer: 2
EndChar
StartChar: Pi
Encoding: 928 928 742
Width: 2048
Flags: W
LayerCount: 2
Back
Fore
SplineSet
408 1430 m 2,0,-1
 345 1441 l 2,1,2
 325 1444 325 1444 322 1463 c 128,-1,3
 319 1482 319 1482 343 1482 c 2,4,-1
 1677 1482 l 2,5,6
 1697 1482 1697 1482 1698.5 1464.5 c 128,-1,7
 1700 1447 1700 1447 1679 1444 c 2,8,-1
 1638 1438 l 2,9,10
 1585 1430 1585 1430 1553.5 1404.5 c 128,-1,11
 1522 1379 1522 1379 1509.5 1341.5 c 128,-1,12
 1497 1304 1497 1304 1497 1225 c 2,13,-1
 1497 489 l 2,14,15
 1497 414 1497 414 1505.5 357.5 c 128,-1,16
 1514 301 1514 301 1546.5 275.5 c 128,-1,17
 1579 250 1579 250 1620 240 c 2,18,-1
 1663 229 l 2,19,20
 1691 221 1691 221 1690.5 204 c 128,-1,21
 1690 187 1690 187 1666 187 c 2,22,-1
 1175 187 l 2,23,24
 1150 187 1150 187 1149.5 205 c 128,-1,25
 1149 223 1149 223 1172 229 c 2,26,-1
 1221 240 l 2,27,28
 1270 251 1270 251 1302 286 c 128,-1,29
 1334 321 1334 321 1344.5 371 c 128,-1,30
 1355 421 1355 421 1355 486 c 2,31,-1
 1354 1225 l 2,32,33
 1353 1307 1353 1307 1341 1340 c 128,-1,34
 1329 1373 1329 1373 1280.5 1396 c 128,-1,35
 1232 1419 1232 1419 1164 1419 c 2,36,-1
 842 1419 l 2,37,38
 807 1419 807 1419 765.5 1407.5 c 128,-1,39
 724 1396 724 1396 699.5 1370.5 c 128,-1,40
 675 1345 675 1345 666 1311 c 128,-1,41
 657 1277 657 1277 657 1222 c 2,42,-1
 656 491 l 2,43,44
 655 422 655 422 661.5 371 c 128,-1,45
 668 320 668 320 702.5 284 c 128,-1,46
 737 248 737 248 776 240 c 2,47,-1
 836 227 l 2,48,49
 861 221 861 221 858 204 c 128,-1,50
 855 187 855 187 831 187 c 2,51,-1
 329 187 l 2,52,53
 311 187 311 187 312.5 203 c 128,-1,54
 314 219 314 219 332 224 c 2,55,-1
 378 235 l 2,56,57
 412 243 412 243 454.5 268.5 c 128,-1,58
 497 294 497 294 508.5 345 c 128,-1,59
 520 396 520 396 520 491 c 2,60,-1
 520 1222 l 2,61,62
 520 1301 520 1301 509.5 1336 c 128,-1,63
 499 1371 499 1371 469.5 1397.5 c 128,-1,64
 440 1424 440 1424 408 1430 c 2,0,-1
EndSplineSet
Validated: 33
EndChar
StartChar: Rho
Encoding: 929 929 743
Width: 2048
Flags: W
LayerCount: 2
Back
Fore
SplineSet
842 811 m 1,0,-1
 842 453 l 2,1,2
 842 382 842 382 857.5 341.5 c 128,-1,3
 873 301 873 301 904 273.5 c 128,-1,4
 935 246 935 246 986 237 c 2,5,-1
 1041 227 l 2,6,7
 1061 223 1061 223 1059.5 205 c 128,-1,8
 1058 187 1058 187 1038 187 c 2,9,-1
 547 187 l 2,10,11
 514 187 514 187 513.5 205.5 c 128,-1,12
 513 224 513 224 539 229 c 2,13,-1
 571 235 l 2,14,15
 610 242 610 242 638.5 254.5 c 128,-1,16
 667 267 667 267 684.5 311 c 128,-1,17
 702 355 702 355 702 453 c 2,18,-1
 702 1239 l 2,19,20
 702 1297 702 1297 690 1333.5 c 128,-1,21
 678 1370 678 1370 649.5 1394.5 c 128,-1,22
 621 1419 621 1419 582 1430 c 2,23,-1
 520 1446 l 2,24,25
 492 1453 492 1453 493 1471.5 c 128,-1,26
 494 1490 494 1490 514 1490 c 2,27,-1
 1066 1490 l 2,28,29
 1141 1490 1141 1490 1195.5 1485 c 128,-1,30
 1250 1480 1250 1480 1327.5 1446.5 c 128,-1,31
 1405 1413 1405 1413 1452 1340.5 c 128,-1,32
 1499 1268 1499 1268 1501.5 1159 c 128,-1,33
 1504 1050 1504 1050 1455.5 954.5 c 128,-1,34
 1407 859 1407 859 1308 818 c 128,-1,35
 1209 777 1209 777 1068 780 c 0,36,37
 952 781 952 781 897 797 c 2,38,-1
 842 811 l 1,39,-1
 842 811 l 1,0,-1
842 1386 m 2,40,-1
 842 893 l 2,41,42
 842 868 842 868 907.5 855.5 c 128,-1,43
 973 843 973 843 1041 846 c 0,44,45
 1127 849 1127 849 1196.5 878.5 c 128,-1,46
 1266 908 1266 908 1304 980 c 128,-1,47
 1342 1052 1342 1052 1341 1149 c 0,48,49
 1340 1234 1340 1234 1304.5 1298 c 128,-1,50
 1269 1362 1269 1362 1188.5 1391.5 c 128,-1,51
 1108 1421 1108 1421 992 1419 c 0,52,53
 940 1417 940 1417 891 1410.5 c 128,-1,54
 842 1404 842 1404 842 1386 c 2,40,-1
EndSplineSet
Validated: 37
EndChar
StartChar: Sigma
Encoding: 1000 931 744
Width: 2048
Flags: W
LayerCount: 3
Back
Fore
SplineSet
450 188 m 1,0,-1
 908 794 l 1,1,-1
 490 1486 l 1,2,-1
 1444 1486 l 1,3,-1
 1462 1188 l 2,4,5
 1463 1165 1463 1165 1446.5 1161.5 c 128,-1,6
 1430 1158 1430 1158 1416 1177 c 0,7,8
 1408 1187 1408 1187 1397.5 1218.5 c 128,-1,9
 1387 1250 1387 1250 1364.5 1288 c 128,-1,10
 1342 1326 1342 1326 1300.5 1357.5 c 128,-1,11
 1259 1389 1259 1389 1210 1398 c 128,-1,12
 1161 1407 1161 1407 1113 1407 c 2,13,-1
 722 1407 l 1,14,-1
 1058 844 l 1,15,-1
 646 288 l 1,16,-1
 1216 288 l 2,17,18
 1270 288 1270 288 1303 293 c 128,-1,19
 1336 298 1336 298 1371.5 311 c 128,-1,20
 1407 324 1407 324 1438 347.5 c 128,-1,21
 1469 371 1469 371 1498 416 c 2,22,-1
 1544 490 l 2,23,24
 1564 518 1564 518 1579.5 511.5 c 128,-1,25
 1595 505 1595 505 1588 484 c 2,26,-1
 1480 189 l 1,27,-1
 450 188 l 1,0,-1
EndSplineSet
Layer: 2
EndChar
StartChar: Tau
Encoding: 1001 932 745
Width: 2048
Flags: W
LayerCount: 3
Back
Fore
SplineSet
1546 1493 m 1,0,-1
 1579 1201 l 2,1,2
 1580 1188 1580 1188 1563.5 1179.5 c 128,-1,3
 1547 1171 1547 1171 1540 1199 c 2,4,-1
 1521 1266 l 2,5,6
 1511 1300 1511 1300 1486.5 1334 c 128,-1,7
 1462 1368 1462 1368 1415.5 1386 c 128,-1,8
 1369 1404 1369 1404 1275 1404 c 2,9,-1
 1088 1404 l 1,10,-1
 1088 466 l 2,11,12
 1088 398 1088 398 1102 353 c 128,-1,13
 1116 308 1116 308 1153.5 280.5 c 128,-1,14
 1191 253 1191 253 1248 242 c 2,15,-1
 1295 232 l 2,16,17
 1319 226 1319 226 1318.5 209 c 128,-1,18
 1318 192 1318 192 1297 192 c 2,19,-1
 760 192 l 2,20,21
 725 192 725 192 730 210 c 128,-1,22
 735 228 735 228 755 232 c 2,23,-1
 799 240 l 2,24,25
 852 249 852 249 886.5 276.5 c 128,-1,26
 921 304 921 304 934 348 c 128,-1,27
 947 392 947 392 947 466 c 2,28,-1
 947 1404 l 1,29,-1
 724 1404 l 2,30,31
 663 1404 663 1404 614 1382.5 c 128,-1,32
 565 1361 565 1361 541.5 1323.5 c 128,-1,33
 518 1286 518 1286 509 1250 c 2,34,-1
 493 1188 l 2,35,36
 488 1169 488 1169 470.5 1171.5 c 128,-1,37
 453 1174 453 1174 454 1199 c 2,38,-1
 474 1493 l 1,39,-1
 1546 1493 l 1,0,-1
EndSplineSet
Layer: 2
EndChar
StartChar: Upsilon
Encoding: 1002 933 746
Width: 2048
Flags: W
LayerCount: 3
Back
Fore
SplineSet
455 1508 m 1,0,1
 481 1510 481 1510 518.5 1512.5 c 128,-1,2
 556 1515 556 1515 594 1514 c 0,3,4
 666 1511 666 1511 735.5 1486.5 c 128,-1,5
 805 1462 805 1462 862 1409 c 128,-1,6
 919 1356 919 1356 952.5 1272 c 128,-1,7
 986 1188 986 1188 995 1132 c 2,8,-1
 1019 985 l 1,9,10
 1028 1068 1028 1068 1039.5 1134 c 128,-1,11
 1051 1200 1051 1200 1086.5 1284.5 c 128,-1,12
 1122 1369 1122 1369 1191 1427 c 128,-1,13
 1260 1485 1260 1485 1328.5 1503.5 c 128,-1,14
 1397 1522 1397 1522 1450 1520 c 0,15,16
 1539 1515 1539 1515 1589 1470 c 128,-1,17
 1639 1425 1639 1425 1641.5 1364.5 c 128,-1,18
 1644 1304 1644 1304 1611.5 1271.5 c 128,-1,19
 1579 1239 1579 1239 1527.5 1238.5 c 128,-1,20
 1476 1238 1476 1238 1443 1274 c 1,21,-1
 1400 1336 l 2,22,23
 1377 1363 1377 1363 1343.5 1373 c 128,-1,24
 1310 1383 1310 1383 1268 1361 c 0,25,26
 1232 1342 1232 1342 1198.5 1294 c 128,-1,27
 1165 1246 1165 1246 1136 1168.5 c 128,-1,28
 1107 1091 1107 1091 1099 1032.5 c 128,-1,29
 1091 974 1091 974 1091 903 c 2,30,-1
 1091 439 l 2,31,32
 1091 382 1091 382 1108 329.5 c 128,-1,33
 1125 277 1125 277 1159.5 258 c 128,-1,34
 1194 239 1194 239 1249 234 c 2,35,-1
 1301 229 l 2,36,37
 1323 226 1323 226 1322.5 206 c 128,-1,38
 1322 186 1322 186 1296 186 c 2,39,-1
 752 186 l 2,40,41
 712 186 712 186 721.5 206.5 c 128,-1,42
 731 227 731 227 749 229 c 2,43,-1
 815 234 l 2,44,45
 874 238 874 238 900 256 c 128,-1,46
 926 274 926 274 937 323 c 128,-1,47
 948 372 948 372 948 439 c 2,48,-1
 948 903 l 2,49,50
 948 951 948 951 933.5 1043 c 128,-1,51
 919 1135 919 1135 883.5 1222 c 128,-1,52
 848 1309 848 1309 783 1360.5 c 128,-1,53
 718 1412 718 1412 652 1424.5 c 128,-1,54
 586 1437 586 1437 520 1429 c 2,55,-1
 475 1424 l 1,56,-1
 455 1508 l 1,0,1
EndSplineSet
Layer: 2
EndChar
StartChar: Phi
Encoding: 934 934 747
Width: 2048
Flags: W
LayerCount: 2
Back
Fore
SplineSet
1068 1326 m 1,0,1
 1104 1326 1104 1326 1202.5 1325 c 128,-1,2
 1301 1324 1301 1324 1444 1280 c 128,-1,3
 1587 1236 1587 1236 1654.5 1159.5 c 128,-1,4
 1722 1083 1722 1083 1746.5 948 c 128,-1,5
 1771 813 1771 813 1721 698 c 0,6,7
 1672 587 1672 587 1575 524.5 c 128,-1,8
 1478 462 1478 462 1358.5 435.5 c 128,-1,9
 1239 409 1239 409 1137 406 c 2,10,-1
 1068 403 l 1,11,12
 1071 379 1071 379 1075.5 358.5 c 128,-1,13
 1080 338 1080 338 1095 313 c 128,-1,14
 1110 288 1110 288 1133.5 269 c 128,-1,15
 1157 250 1157 250 1198 239.5 c 128,-1,16
 1239 229 1239 229 1252 223.5 c 128,-1,17
 1265 218 1265 218 1264 203.5 c 128,-1,18
 1263 189 1263 189 1241 189 c 2,19,-1
 757 189 l 2,20,21
 735 189 735 189 734.5 203 c 128,-1,22
 734 217 734 217 755 226 c 0,23,24
 760 228 760 228 799.5 236 c 128,-1,25
 839 244 839 244 876 274.5 c 128,-1,26
 913 305 913 305 921 365 c 2,27,-1
 927 403 l 1,28,29
 875 404 875 404 808.5 408 c 128,-1,30
 742 412 742 412 633.5 438 c 128,-1,31
 525 464 525 464 440 527.5 c 128,-1,32
 355 591 355 591 312.5 705 c 128,-1,33
 270 819 270 819 291.5 947 c 128,-1,34
 313 1075 313 1075 373 1153.5 c 128,-1,35
 433 1232 433 1232 559.5 1272.5 c 128,-1,36
 686 1313 686 1313 823 1320 c 2,37,-1
 927 1326 l 1,38,39
 917 1352 917 1352 905 1371.5 c 128,-1,40
 893 1391 893 1391 869 1404.5 c 128,-1,41
 845 1418 845 1418 817 1428 c 128,-1,42
 789 1438 789 1438 765.5 1443.5 c 128,-1,43
 742 1449 742 1449 734.5 1456.5 c 128,-1,44
 727 1464 727 1464 728 1476.5 c 128,-1,45
 729 1489 729 1489 744 1489 c 2,46,-1
 1235 1489 l 2,47,48
 1259 1489 1259 1489 1259.5 1474 c 128,-1,49
 1260 1459 1260 1459 1241 1451 c 0,50,51
 1235 1448 1235 1448 1215.5 1444.5 c 128,-1,52
 1196 1441 1196 1441 1165.5 1431 c 128,-1,53
 1135 1421 1135 1421 1112.5 1406.5 c 128,-1,54
 1090 1392 1090 1392 1082 1364 c 2,55,-1
 1068 1326 l 1,56,-1
 1068 1326 l 1,0,1
927 452 m 1,57,-1
 927 1277 l 1,58,59
 882 1275 882 1275 816.5 1270.5 c 128,-1,60
 751 1266 751 1266 658 1231 c 128,-1,61
 565 1196 565 1196 513.5 1136 c 128,-1,62
 462 1076 462 1076 444.5 956.5 c 128,-1,63
 427 837 427 837 447.5 743.5 c 128,-1,64
 468 650 468 650 520.5 591 c 128,-1,65
 573 532 573 532 659.5 499 c 128,-1,66
 746 466 746 466 858 458 c 2,67,-1
 927 452 l 1,68,-1
 927 452 l 1,57,-1
1067 1277 m 1,69,-1
 1068 452 l 1,70,71
 1109 453 1109 453 1191.5 458 c 128,-1,72
 1274 463 1274 463 1386.5 512.5 c 128,-1,73
 1499 562 1499 562 1555.5 669.5 c 128,-1,74
 1612 777 1612 777 1590 920.5 c 128,-1,75
 1568 1064 1568 1064 1514 1130.5 c 128,-1,76
 1460 1197 1460 1197 1344.5 1237 c 128,-1,77
 1229 1277 1229 1277 1109 1277 c 2,78,-1
 1067 1277 l 1,79,-1
 1067 1277 l 1,69,-1
EndSplineSet
Validated: 37
EndChar
StartChar: Chi
Encoding: 935 935 748
Width: 2048
Flags: W
LayerCount: 2
Back
Fore
SplineSet
946 824 m 1,0,-1
 677 1246 l 2,1,2
 634 1312 634 1312 613 1339 c 128,-1,3
 592 1366 592 1366 572 1383 c 128,-1,4
 552 1400 552 1400 525.5 1412 c 128,-1,5
 499 1424 499 1424 468 1431 c 2,6,-1
 418 1442 l 2,7,8
 386 1448 386 1448 388.5 1468 c 128,-1,9
 391 1488 391 1488 410 1488 c 2,10,-1
 916 1488 l 2,11,12
 938 1488 938 1488 941 1467.5 c 128,-1,13
 944 1447 944 1447 919 1442 c 2,14,-1
 864 1431 l 2,15,16
 842 1426 842 1426 821.5 1410.5 c 128,-1,17
 801 1395 801 1395 799 1372 c 128,-1,18
 797 1349 797 1349 809 1326 c 128,-1,19
 821 1303 821 1303 848 1263 c 2,20,-1
 1050 952 l 1,21,-1
 1294 1269 l 2,22,23
 1322 1305 1322 1305 1335.5 1329.5 c 128,-1,24
 1349 1354 1349 1354 1348 1380 c 0,25,26
 1346 1406 1346 1406 1330 1419.5 c 128,-1,27
 1314 1433 1314 1433 1282 1437 c 2,28,-1
 1236 1442 l 2,29,30
 1205 1445 1205 1445 1208 1468 c 128,-1,31
 1211 1491 1211 1491 1228 1491 c 2,32,-1
 1655 1491 l 2,33,34
 1682 1491 1682 1491 1684.5 1467.5 c 128,-1,35
 1687 1444 1687 1444 1660 1442 c 2,36,-1
 1614 1437 l 2,37,38
 1588 1434 1588 1434 1548.5 1418.5 c 128,-1,39
 1509 1403 1509 1403 1475 1372.5 c 128,-1,40
 1441 1342 1441 1342 1410 1301 c 2,41,-1
 1093 887 l 1,42,-1
 1394 424 l 2,43,44
 1422 380 1422 380 1453.5 342 c 128,-1,45
 1485 304 1485 304 1526.5 277.5 c 128,-1,46
 1568 251 1568 251 1606 243 c 2,47,-1
 1669 229 l 2,48,49
 1693 223 1693 223 1692.5 202.5 c 128,-1,50
 1692 182 1692 182 1666 182 c 2,51,-1
 1134 182 l 2,52,53
 1110 182 1110 182 1107.5 205 c 128,-1,54
 1105 228 1105 228 1130 232 c 2,55,-1
 1169 238 l 2,56,57
 1224 246 1224 246 1244.5 257.5 c 128,-1,58
 1265 269 1265 269 1268 295.5 c 128,-1,59
 1271 322 1271 322 1246.5 359 c 128,-1,60
 1222 396 1222 396 1218 403 c 2,61,-1
 993 756 l 1,62,-1
 724 399 l 2,63,64
 722 396 722 396 695 356.5 c 128,-1,65
 668 317 668 317 667.5 301 c 128,-1,66
 667 285 667 285 681 262 c 128,-1,67
 695 239 695 239 725 235 c 2,68,-1
 783 227 l 2,69,70
 812 222 812 222 807.5 200.5 c 128,-1,71
 803 179 803 179 774 179 c 2,72,-1
 362 179 l 2,73,74
 329 179 329 179 331.5 201.5 c 128,-1,75
 334 224 334 224 351 227 c 2,76,-1
 405 235 l 2,77,78
 437 239 437 239 475.5 257 c 128,-1,79
 514 275 514 275 551.5 312.5 c 128,-1,80
 589 350 589 350 647 427 c 2,81,-1
 946 824 l 1,0,-1
EndSplineSet
Validated: 33
EndChar
StartChar: Psi
Encoding: 936 936 749
Width: 2048
Flags: W
LayerCount: 2
Back
Fore
SplineSet
326 1415 m 1,0,-1
 326 1473 l 1,1,2
 345 1487 345 1487 363.5 1497.5 c 128,-1,3
 382 1508 382 1508 416 1516 c 128,-1,4
 450 1524 450 1524 487.5 1521.5 c 128,-1,5
 525 1519 525 1519 571 1479 c 128,-1,6
 617 1439 617 1439 629 1316 c 1,7,-1
 633 1092 l 2,8,9
 636 983 636 983 669 903.5 c 128,-1,10
 702 824 702 824 782.5 766 c 128,-1,11
 863 708 863 708 910 701 c 2,12,-1
 951 693 l 1,13,-1
 951 1222 l 2,14,15
 951 1274 951 1274 941 1314.5 c 128,-1,16
 931 1355 931 1355 905.5 1388.5 c 128,-1,17
 880 1422 880 1422 831 1437 c 2,18,-1
 757 1457 l 2,19,20
 743 1463 743 1463 739.5 1479 c 128,-1,21
 736 1495 736 1495 757 1495 c 2,22,-1
 1257 1495 l 2,23,24
 1285 1495 1285 1495 1282 1479 c 128,-1,25
 1279 1463 1279 1463 1270.5 1458.5 c 128,-1,26
 1262 1454 1262 1454 1209.5 1445 c 128,-1,27
 1157 1436 1157 1436 1129.5 1400 c 128,-1,28
 1102 1364 1102 1364 1096 1322 c 128,-1,29
 1090 1280 1090 1280 1090 1222 c 2,30,-1
 1090 693 l 1,31,32
 1124 701 1124 701 1156 712 c 128,-1,33
 1188 723 1188 723 1238 758 c 128,-1,34
 1288 793 1288 793 1331 849.5 c 128,-1,35
 1374 906 1374 906 1390 966.5 c 128,-1,36
 1406 1027 1406 1027 1407 1132 c 0,37,38
 1407 1220 1407 1220 1406 1293.5 c 128,-1,39
 1405 1367 1405 1367 1415 1408 c 0,40,41
 1427 1461 1427 1461 1461.5 1495 c 128,-1,42
 1496 1529 1496 1529 1565 1533 c 0,43,44
 1592 1534 1592 1534 1631 1526.5 c 128,-1,45
 1670 1519 1670 1519 1688 1506 c 2,46,-1
 1712 1489 l 1,47,-1
 1712 1435 l 1,48,49
 1661 1453 1661 1453 1633 1449.5 c 128,-1,50
 1605 1446 1605 1446 1588 1427.5 c 128,-1,51
 1571 1409 1571 1409 1565 1367.5 c 128,-1,52
 1559 1326 1559 1326 1558.5 1214 c 128,-1,53
 1558 1102 1558 1102 1551 1023.5 c 128,-1,54
 1544 945 1544 945 1481.5 846.5 c 128,-1,55
 1419 748 1419 748 1325.5 690.5 c 128,-1,56
 1232 633 1232 633 1145 622 c 2,57,-1
 1090 614 l 1,58,-1
 1090 439 l 2,59,60
 1090 374 1090 374 1100 335.5 c 128,-1,61
 1110 297 1110 297 1154.5 269 c 128,-1,62
 1199 241 1199 241 1231.5 235 c 128,-1,63
 1264 229 1264 229 1279.5 222.5 c 128,-1,64
 1295 216 1295 216 1294.5 201.5 c 128,-1,65
 1294 187 1294 187 1276 187 c 2,66,-1
 768 187 l 2,67,68
 740 187 740 187 747.5 204.5 c 128,-1,69
 755 222 755 222 774 226 c 2,70,-1
 817 232 l 2,71,72
 861 240 861 240 894 268 c 128,-1,73
 927 296 927 296 939 339 c 128,-1,74
 951 382 951 382 951 439 c 2,75,-1
 951 614 l 1,76,77
 906 618 906 618 838 629.5 c 128,-1,78
 770 641 770 641 688 701.5 c 128,-1,79
 606 762 606 762 555 843.5 c 128,-1,80
 504 925 504 925 490.5 1001 c 128,-1,81
 477 1077 477 1077 476.5 1166.5 c 128,-1,82
 476 1256 476 1256 475 1313 c 128,-1,83
 474 1370 474 1370 453.5 1401.5 c 128,-1,84
 433 1433 433 1433 399 1437 c 128,-1,85
 365 1441 365 1441 350 1430 c 2,86,-1
 326 1415 l 1,87,-1
 326 1415 l 1,0,-1
EndSplineSet
Validated: 37
EndChar
StartChar: uni03A9
Encoding: 1006 937 750
Width: 2048
Flags: W
LayerCount: 3
Back
Fore
SplineSet
779 301 m 1,0,1
 738 329 738 329 696 361 c 128,-1,2
 654 393 654 393 588 461.5 c 128,-1,3
 522 530 522 530 463 662 c 128,-1,4
 404 794 404 794 411 953 c 0,5,6
 417 1091 417 1091 488 1228 c 128,-1,7
 559 1365 559 1365 705 1449.5 c 128,-1,8
 851 1534 851 1534 1022 1537 c 0,9,10
 1187 1539 1187 1539 1322.5 1467.5 c 128,-1,11
 1458 1396 1458 1396 1540 1274 c 128,-1,12
 1622 1152 1622 1152 1638.5 991.5 c 128,-1,13
 1655 831 1655 831 1598 683 c 0,14,15
 1558 579 1558 579 1486 492.5 c 128,-1,16
 1414 406 1414 406 1363 372 c 2,17,-1
 1262 301 l 1,18,-1
 1421 301 l 2,19,20
 1478 301 1478 301 1511.5 311.5 c 128,-1,21
 1545 322 1545 322 1574 345.5 c 128,-1,22
 1603 369 1603 369 1623.5 405.5 c 128,-1,23
 1644 442 1644 442 1656 472.5 c 128,-1,24
 1668 503 1668 503 1678.5 516 c 128,-1,25
 1689 529 1689 529 1703 526.5 c 128,-1,26
 1717 524 1717 524 1712 495 c 2,27,-1
 1653 191 l 1,28,-1
 1139 190 l 1,29,-1
 1139 296 l 1,30,31
 1163 308 1163 308 1188 322.5 c 128,-1,32
 1213 337 1213 337 1257.5 374.5 c 128,-1,33
 1302 412 1302 412 1358.5 495.5 c 128,-1,34
 1415 579 1415 579 1449.5 697.5 c 128,-1,35
 1484 816 1484 816 1483 945 c 0,36,37
 1481 1073 1481 1073 1436 1186 c 128,-1,38
 1391 1299 1391 1299 1281 1381 c 128,-1,39
 1171 1463 1171 1463 1022 1461 c 0,40,41
 869 1458 869 1458 766.5 1375 c 128,-1,42
 664 1292 664 1292 616 1182.5 c 128,-1,43
 568 1073 568 1073 565.5 961 c 128,-1,44
 563 849 563 849 585 755 c 0,45,46
 607 652 607 652 647 574.5 c 128,-1,47
 687 497 687 497 725 448.5 c 128,-1,48
 763 400 763 400 796 371.5 c 128,-1,49
 829 343 829 343 869 321 c 2,50,-1
 913 296 l 1,51,-1
 913 191 l 1,52,-1
 394 190 l 1,53,-1
 332 495 l 2,54,55
 328 517 328 517 343.5 518 c 128,-1,56
 359 519 359 519 370 503 c 0,57,58
 375 493 375 493 388 462 c 128,-1,59
 401 431 401 431 428 389.5 c 128,-1,60
 455 348 455 348 492 324.5 c 128,-1,61
 529 301 529 301 594 301 c 2,62,-1
 779 301 l 1,0,1
EndSplineSet
Layer: 2
EndChar
StartChar: alpha
Encoding: 945 945 759
Width: 2048
Flags: W
LayerCount: 2
Back
Fore
SplineSet
1218 808 m 1,0,1
 1254 894 1254 894 1259 907 c 2,2,-1
 1327 1084 l 1,3,-1
 1447 1084 l 1,4,-1
 1266 628 l 1,5,6
 1268 602 1268 602 1270.5 582.5 c 128,-1,7
 1273 563 1273 563 1293 496.5 c 128,-1,8
 1313 430 1313 430 1332 390 c 128,-1,9
 1351 350 1351 350 1384 324.5 c 128,-1,10
 1417 299 1417 299 1450 296 c 0,11,12
 1467 294 1467 294 1480.5 297 c 128,-1,13
 1494 300 1494 300 1514 310.5 c 128,-1,14
 1534 321 1534 321 1546 319.5 c 128,-1,15
 1558 318 1558 318 1562.5 310 c 128,-1,16
 1567 302 1567 302 1544 282 c 1,17,-1
 1444 226 l 2,18,19
 1373 186 1373 186 1355 187 c 0,20,21
 1330 187 1330 187 1313 200.5 c 128,-1,22
 1296 214 1296 214 1284 271 c 2,23,-1
 1259 372 l 1,24,-1
 1241 452 l 1,25,-1
 1223 525 l 1,26,27
 1171 425 1171 425 1125.5 350.5 c 128,-1,28
 1080 276 1080 276 1010.5 229.5 c 128,-1,29
 941 183 941 183 838 184 c 0,30,31
 762 184 762 184 689.5 220 c 128,-1,32
 617 256 617 256 557.5 349.5 c 128,-1,33
 498 443 498 443 491.5 560.5 c 128,-1,34
 485 678 485 678 506 760 c 0,35,36
 524 827 524 827 567 899.5 c 128,-1,37
 610 972 610 972 664 1017 c 128,-1,38
 718 1062 718 1062 775 1088 c 128,-1,39
 832 1114 832 1114 915 1114 c 0,40,41
 993 1113 993 1113 1045 1084 c 128,-1,42
 1097 1055 1097 1055 1136.5 1000.5 c 128,-1,43
 1176 946 1176 946 1188 904 c 2,44,-1
 1218 808 l 1,45,-1
 1218 808 l 1,0,1
1184 712 m 1,46,47
 1176 746 1176 746 1166.5 781.5 c 128,-1,48
 1157 817 1157 817 1128.5 885 c 128,-1,49
 1100 953 1100 953 1048.5 998 c 128,-1,50
 997 1043 997 1043 923 1049 c 0,51,52
 848 1054 848 1054 778.5 1010.5 c 128,-1,53
 709 967 709 967 669.5 890 c 128,-1,54
 630 813 630 813 614 693 c 128,-1,55
 598 573 598 573 623 456 c 128,-1,56
 648 339 648 339 719 283 c 128,-1,57
 790 227 790 227 885 255 c 0,58,59
 948 273 948 273 1003.5 342 c 128,-1,60
 1059 411 1059 411 1094.5 486.5 c 128,-1,61
 1130 562 1130 562 1150 618 c 2,62,-1
 1184 712 l 1,63,-1
 1184 712 l 1,46,47
EndSplineSet
Validated: 37
EndChar
StartChar: beta
Encoding: 1016 946 760
Width: 2048
Flags: W
LayerCount: 3
Back
Fore
SplineSet
1167 1091 m 1,0,1
 1200 1073 1200 1073 1221 1060 c 128,-1,2
 1242 1047 1242 1047 1288 1006 c 128,-1,3
 1334 965 1334 965 1369.5 891 c 128,-1,4
 1405 817 1405 817 1409.5 711.5 c 128,-1,5
 1414 606 1414 606 1380 507 c 0,6,7
 1343 403 1343 403 1275.5 333.5 c 128,-1,8
 1208 264 1208 264 1133.5 234 c 128,-1,9
 1059 204 1059 204 992 206 c 0,10,11
 915 208 915 208 866 239.5 c 128,-1,12
 817 271 817 271 796 299 c 2,13,-1
 760 343 l 1,14,-1
 760 -69 l 1,15,-1
 638 -68 l 1,16,-1
 638 1129 l 2,17,18
 638 1189 638 1189 656 1273.5 c 128,-1,19
 674 1358 674 1358 736.5 1434 c 128,-1,20
 799 1510 799 1510 897.5 1540.5 c 128,-1,21
 996 1571 996 1571 1088 1557 c 0,22,23
 1172 1543 1172 1543 1236.5 1488.5 c 128,-1,24
 1301 1434 1301 1434 1303 1355 c 128,-1,25
 1305 1276 1305 1276 1271 1214 c 0,26,27
 1241 1159 1241 1159 1199 1121 c 2,28,-1
 1167 1091 l 1,29,-1
 1167 1091 l 1,0,1
760 420 m 1,30,31
 793 367 793 367 819 340.5 c 128,-1,32
 845 314 845 314 904.5 288 c 128,-1,33
 964 262 964 262 1044 286 c 0,34,35
 1121 308 1121 308 1178.5 385 c 128,-1,36
 1236 462 1236 462 1255 567.5 c 128,-1,37
 1274 673 1274 673 1252 769 c 0,38,39
 1235 840 1235 840 1195.5 907 c 128,-1,40
 1156 974 1156 974 1123 1003 c 2,41,-1
 1090 1033 l 1,42,43
 1059 1022 1059 1022 1035.5 1014 c 128,-1,44
 1012 1006 1012 1006 981.5 999.5 c 128,-1,45
 951 993 951 993 915.5 991 c 128,-1,46
 880 989 880 989 858.5 1006 c 128,-1,47
 837 1023 837 1023 834 1044 c 128,-1,48
 831 1065 831 1065 865.5 1101.5 c 128,-1,49
 900 1138 900 1138 967.5 1137 c 128,-1,50
 1035 1136 1035 1136 1061 1129 c 2,51,-1
 1095 1120 l 1,52,53
 1116 1163 1116 1163 1136 1211.5 c 128,-1,54
 1156 1260 1156 1260 1156 1328 c 0,55,56
 1155 1390 1155 1390 1126.5 1429 c 128,-1,57
 1098 1468 1098 1468 1039.5 1480.5 c 128,-1,58
 981 1493 981 1493 919 1462 c 0,59,60
 852 1427 852 1427 816 1363 c 128,-1,61
 780 1299 780 1299 770 1231.5 c 128,-1,62
 760 1164 760 1164 760 1115 c 2,63,-1
 760 420 l 1,30,31
EndSplineSet
Layer: 2
EndChar
StartChar: gamma
Encoding: 1017 947 761
Width: 2048
Flags: W
LayerCount: 3
Back
Fore
SplineSet
1014 379 m 1,0,1
 1026 403 1026 403 1039 427 c 128,-1,2
 1052 451 1052 451 1081.5 499.5 c 128,-1,3
 1111 548 1111 548 1154.5 618.5 c 128,-1,4
 1198 689 1198 689 1219.5 730.5 c 128,-1,5
 1241 772 1241 772 1242.5 796 c 128,-1,6
 1244 820 1244 820 1232 865 c 0,7,8
 1222 899 1222 899 1216.5 924.5 c 128,-1,9
 1211 950 1211 950 1210.5 992.5 c 128,-1,10
 1210 1035 1210 1035 1243 1068 c 128,-1,11
 1276 1101 1276 1101 1325 1099.5 c 128,-1,12
 1374 1098 1374 1098 1408 1063 c 128,-1,13
 1442 1028 1442 1028 1439 961 c 0,14,15
 1436 913 1436 913 1411 864.5 c 128,-1,16
 1386 816 1386 816 1353 762.5 c 128,-1,17
 1320 709 1320 709 1208 537 c 2,18,-1
 1036 273 l 1,19,20
 1042 215 1042 215 1049 155 c 128,-1,21
 1056 95 1056 95 1055 44 c 0,22,23
 1053 -15 1053 -15 1041 -61 c 128,-1,24
 1029 -107 1029 -107 1009 -126.5 c 128,-1,25
 989 -146 989 -146 957.5 -147 c 128,-1,26
 926 -148 926 -148 903.5 -107.5 c 128,-1,27
 881 -67 881 -67 883 -18 c 0,28,29
 884 37 884 37 896 69 c 2,30,-1
 922 146 l 1,31,32
 916 223 916 223 909 266.5 c 128,-1,33
 902 310 902 310 877.5 401.5 c 128,-1,34
 853 493 853 493 814.5 592 c 128,-1,35
 776 691 776 691 737 767 c 128,-1,36
 698 843 698 843 676.5 872.5 c 128,-1,37
 655 902 655 902 632 920.5 c 128,-1,38
 609 939 609 939 589 944 c 128,-1,39
 569 949 569 949 555 942 c 2,40,-1
 528 927 l 1,41,42
 510 925 510 925 505 936 c 128,-1,43
 500 947 500 947 517 969 c 0,44,45
 530 985 530 985 573 1023 c 128,-1,46
 616 1061 616 1061 638.5 1076 c 128,-1,47
 661 1091 661 1091 678 1091 c 0,48,49
 697 1090 697 1090 717 1073.5 c 128,-1,50
 737 1057 737 1057 761.5 1018.5 c 128,-1,51
 786 980 786 980 828 900 c 128,-1,52
 870 820 870 820 912.5 697.5 c 128,-1,53
 955 575 955 575 970 526 c 2,54,-1
 1014 379 l 1,55,-1
 1014 379 l 1,0,1
EndSplineSet
Layer: 2
EndChar
StartChar: delta
Encoding: 1018 948 762
Width: 2048
Flags: W
LayerCount: 3
Back
Fore
SplineSet
907 1144 m 0,0,1
 814 1203 814 1203 755.5 1238.5 c 128,-1,2
 697 1274 697 1274 670 1298 c 128,-1,3
 643 1322 643 1322 617.5 1360 c 128,-1,4
 592 1398 592 1398 594.5 1443.5 c 128,-1,5
 597 1489 597 1489 636 1532 c 128,-1,6
 675 1575 675 1575 816 1562 c 0,7,8
 900 1553 900 1553 988 1527 c 2,9,-1
 1133 1478 l 2,10,11
 1204 1454 1204 1454 1237.5 1422 c 128,-1,12
 1271 1390 1271 1390 1261.5 1367.5 c 128,-1,13
 1252 1345 1252 1345 1218 1344 c 0,14,15
 1199 1343 1199 1343 1156.5 1368 c 128,-1,16
 1114 1393 1114 1393 1044 1422.5 c 128,-1,17
 974 1452 974 1452 896.5 1473 c 128,-1,18
 819 1494 819 1494 760 1495.5 c 128,-1,19
 701 1497 701 1497 686 1482 c 128,-1,20
 671 1467 671 1467 670.5 1450 c 128,-1,21
 670 1433 670 1433 705 1406 c 0,22,23
 747 1372 747 1372 865 1304.5 c 128,-1,24
 983 1237 983 1237 1083.5 1175 c 128,-1,25
 1184 1113 1184 1113 1256 1043 c 128,-1,26
 1328 973 1328 973 1371 867 c 128,-1,27
 1414 761 1414 761 1392 610 c 0,28,29
 1376 503 1376 503 1320.5 407 c 128,-1,30
 1265 311 1265 311 1162 251 c 128,-1,31
 1059 191 1059 191 937 198 c 0,32,33
 793 204 793 204 706.5 282 c 128,-1,34
 620 360 620 360 581.5 459.5 c 128,-1,35
 543 559 543 559 544 678 c 0,36,37
 545 796 545 796 585.5 883.5 c 128,-1,38
 626 971 626 971 699 1034.5 c 128,-1,39
 772 1098 772 1098 841.5 1119.5 c 128,-1,40
 911 1141 911 1141 907 1144 c 0,0,1
985 1101 m 1,41,42
 933 1088 933 1088 878.5 1067.5 c 128,-1,43
 824 1047 824 1047 755.5 971 c 128,-1,44
 687 895 687 895 671.5 770.5 c 128,-1,45
 656 646 656 646 680 547 c 0,46,47
 699 463 699 463 742 394 c 128,-1,48
 785 325 785 325 838.5 292 c 128,-1,49
 892 259 892 259 961 258 c 0,50,51
 1034 256 1034 256 1099 292.5 c 128,-1,52
 1164 329 1164 329 1220 414 c 128,-1,53
 1276 499 1276 499 1277.5 621 c 128,-1,54
 1279 743 1279 743 1256 811 c 0,55,56
 1229 889 1229 889 1176 946.5 c 128,-1,57
 1123 1004 1123 1004 1059 1049 c 2,58,-1
 985 1101 l 1,59,-1
 985 1101 l 1,41,42
EndSplineSet
Layer: 2
EndChar
StartChar: epsilon
Encoding: 949 949 763
Width: 2048
Flags: W
LayerCount: 2
Back
Fore
SplineSet
1311 1122 m 1,0,-1
 1311 992 l 1,1,2
 1279 1002 1279 1002 1239 1014.5 c 128,-1,3
 1199 1027 1199 1027 1153.5 1037 c 128,-1,4
 1108 1047 1108 1047 1057 1050 c 0,5,6
 999 1053 999 1053 932.5 1043 c 128,-1,7
 866 1033 866 1033 832.5 1001.5 c 128,-1,8
 799 970 799 970 790 929 c 128,-1,9
 781 888 781 888 795 854 c 0,10,11
 808 818 808 818 844 788 c 2,12,-1
 871 764 l 1,13,14
 925 787 925 787 960 796.5 c 128,-1,15
 995 806 995 806 1061 808.5 c 128,-1,16
 1127 811 1127 811 1150.5 788.5 c 128,-1,17
 1174 766 1174 766 1175 749 c 128,-1,18
 1176 732 1176 732 1158 712.5 c 128,-1,19
 1140 693 1140 693 1089.5 691.5 c 128,-1,20
 1039 690 1039 690 997.5 693 c 128,-1,21
 956 696 956 696 935 704 c 2,22,-1
 874 723 l 1,23,24
 837 693 837 693 800.5 653 c 128,-1,25
 764 613 764 613 759 533.5 c 128,-1,26
 754 454 754 454 806 387 c 0,27,28
 846 333 846 333 910 308 c 128,-1,29
 974 283 974 283 1052 289 c 0,30,31
 1148 296 1148 296 1200.5 333 c 128,-1,32
 1253 370 1253 370 1274.5 400 c 128,-1,33
 1296 430 1296 430 1304 446.5 c 128,-1,34
 1312 463 1312 463 1326.5 495.5 c 128,-1,35
 1341 528 1341 528 1348.5 542.5 c 128,-1,36
 1356 557 1356 557 1365.5 559 c 128,-1,37
 1375 561 1375 561 1381.5 547 c 128,-1,38
 1388 533 1388 533 1382 513 c 2,39,-1
 1368 464 l 2,40,41
 1361 444 1361 444 1342.5 405 c 128,-1,42
 1324 366 1324 366 1291.5 321 c 128,-1,43
 1259 276 1259 276 1176.5 243.5 c 128,-1,44
 1094 211 1094 211 1011 210 c 0,45,46
 928 208 928 208 835.5 237 c 128,-1,47
 743 266 743 266 693 335 c 128,-1,48
 643 404 643 404 645 488 c 0,49,50
 648 576 648 576 693 629.5 c 128,-1,51
 738 683 738 683 771 704 c 2,52,-1
 828 742 l 1,53,54
 762 783 762 783 718 828.5 c 128,-1,55
 674 874 674 874 675 938 c 0,56,57
 675 985 675 985 711.5 1033.5 c 128,-1,58
 748 1082 748 1082 832.5 1116 c 128,-1,59
 917 1150 917 1150 1046 1149 c 0,60,61
 1126 1148 1126 1148 1240 1132 c 2,62,-1
 1311 1122 l 1,63,-1
 1311 1122 l 1,0,-1
EndSplineSet
Validated: 37
EndChar
StartChar: zeta
Encoding: 950 950 764
Width: 2048
Flags: W
LayerCount: 2
Back
Fore
SplineSet
973 1318 m 1,0,1
 945 1330 945 1330 895.5 1354 c 128,-1,2
 846 1378 846 1378 796 1413.5 c 128,-1,3
 746 1449 746 1449 728.5 1471 c 128,-1,4
 711 1493 711 1493 710 1511 c 128,-1,5
 709 1529 709 1529 736 1558 c 0,6,7
 758 1583 758 1583 790.5 1606.5 c 128,-1,8
 823 1630 823 1630 844 1644 c 128,-1,9
 865 1658 865 1658 871.5 1653.5 c 128,-1,10
 878 1649 878 1649 878 1635 c 0,11,12
 877 1630 877 1630 838 1598 c 128,-1,13
 799 1566 799 1566 798.5 1539 c 128,-1,14
 798 1512 798 1512 818 1487 c 0,15,16
 834 1464 834 1464 879 1435.5 c 128,-1,17
 924 1407 924 1407 970 1389 c 2,18,-1
 1022 1367 l 1,19,20
 1061 1397 1061 1397 1107 1431 c 128,-1,21
 1153 1465 1153 1465 1210.5 1489.5 c 128,-1,22
 1268 1514 1268 1514 1333 1519.5 c 128,-1,23
 1398 1525 1398 1525 1420 1502.5 c 128,-1,24
 1442 1480 1442 1480 1437 1446.5 c 128,-1,25
 1432 1413 1432 1413 1400 1384 c 128,-1,26
 1368 1355 1368 1355 1317 1331.5 c 128,-1,27
 1266 1308 1266 1308 1206.5 1298.5 c 128,-1,28
 1147 1289 1147 1289 1104 1294 c 2,29,-1
 1045 1299 l 1,30,31
 1024 1271 1024 1271 988.5 1223.5 c 128,-1,32
 953 1176 953 1176 900 1074.5 c 128,-1,33
 847 973 847 973 818.5 869.5 c 128,-1,34
 790 766 790 766 787.5 650 c 128,-1,35
 785 534 785 534 812 453 c 0,36,37
 834 385 834 385 867.5 355.5 c 128,-1,38
 901 326 901 326 938.5 316.5 c 128,-1,39
 976 307 976 307 1081.5 312 c 128,-1,40
 1187 317 1187 317 1216 319 c 0,41,42
 1288 323 1288 323 1328.5 314 c 128,-1,43
 1369 305 1369 305 1389.5 278.5 c 128,-1,44
 1410 252 1410 252 1411.5 195.5 c 128,-1,45
 1413 139 1413 139 1391 80 c 0,46,47
 1364 9 1364 9 1313 -43.5 c 128,-1,48
 1262 -96 1262 -96 1206.5 -122.5 c 128,-1,49
 1151 -149 1151 -149 1101 -146 c 0,50,51
 1056 -145 1056 -145 1030.5 -125 c 128,-1,52
 1005 -105 1005 -105 999 -78.5 c 128,-1,53
 993 -52 993 -52 1013.5 -26.5 c 128,-1,54
 1034 -1 1034 -1 1069 -1 c 0,55,56
 1092 -2 1092 -2 1109 -15 c 1,57,-1
 1137 -48 l 2,58,59
 1149 -61 1149 -61 1164 -64 c 0,60,61
 1182 -69 1182 -69 1213.5 -55.5 c 128,-1,62
 1245 -42 1245 -42 1273 -13.5 c 128,-1,63
 1301 15 1301 15 1323 59 c 128,-1,64
 1345 103 1345 103 1341 151 c 0,65,66
 1338 183 1338 183 1323.5 196 c 128,-1,67
 1309 209 1309 209 1268 212 c 0,68,69
 1231 214 1231 214 1165.5 211 c 128,-1,70
 1100 208 1100 208 1031 207 c 0,71,72
 946 205 946 205 879 217.5 c 128,-1,73
 812 230 812 230 755 290 c 128,-1,74
 698 350 698 350 679.5 468.5 c 128,-1,75
 661 587 661 587 673 697 c 0,76,77
 685 814 685 814 727 921 c 128,-1,78
 769 1028 769 1028 819.5 1104.5 c 128,-1,79
 870 1181 870 1181 952 1290 c 2,80,-1
 973 1318 l 1,81,-1
 973 1318 l 1,0,1
EndSplineSet
Validated: 37
EndChar
StartChar: eta
Encoding: 951 951 765
Width: 2048
Flags: W
LayerCount: 2
Back
Fore
SplineSet
789 1137 m 1,0,-1
 790 911 l 1,1,2
 812 938 812 938 839.5 968.5 c 128,-1,3
 867 999 867 999 920 1039 c 128,-1,4
 973 1079 973 1079 1029.5 1098.5 c 128,-1,5
 1086 1118 1086 1118 1142 1115 c 0,6,7
 1236 1109 1236 1109 1290 1054.5 c 128,-1,8
 1344 1000 1344 1000 1356 912.5 c 128,-1,9
 1368 825 1368 825 1368 720 c 2,10,-1
 1368 -97 l 1,11,-1
 1252 -98 l 1,12,-1
 1251 733 l 2,13,14
 1250 895 1250 895 1200.5 946 c 128,-1,15
 1151 997 1151 997 1076 1001 c 0,16,17
 1009 1003 1009 1003 943.5 964.5 c 128,-1,18
 878 926 878 926 839 886 c 2,19,-1
 790 837 l 1,20,-1
 790 204 l 1,21,-1
 668 205 l 1,22,-1
 667 818 l 2,23,24
 666 828 666 828 662.5 879.5 c 128,-1,25
 659 931 659 931 646 953.5 c 128,-1,26
 633 976 633 976 600 978 c 0,27,28
 592 978 592 978 576 974 c 128,-1,29
 560 970 560 970 547.5 967 c 128,-1,30
 535 964 535 964 524.5 966 c 128,-1,31
 514 968 514 968 510 980 c 128,-1,32
 506 992 506 992 528 1001 c 2,33,-1
 550 1009 l 2,34,35
 569 1016 569 1016 610.5 1033 c 128,-1,36
 652 1050 652 1050 688 1069.5 c 128,-1,37
 724 1089 724 1089 749 1108 c 2,38,-1
 789 1137 l 1,39,-1
 789 1137 l 1,0,-1
EndSplineSet
Validated: 37
EndChar
StartChar: theta
Encoding: 952 952 766
Width: 2048
Flags: W
LayerCount: 2
Back
Fore
SplineSet
1028 1563 m 0,0,1
 1155 1566 1155 1566 1249.5 1498 c 128,-1,2
 1344 1430 1344 1430 1391 1296 c 128,-1,3
 1438 1162 1438 1162 1446 1011 c 128,-1,4
 1454 860 1454 860 1446 760 c 0,5,6
 1435 638 1435 638 1399.5 518 c 128,-1,7
 1364 398 1364 398 1280 297 c 128,-1,8
 1196 196 1196 196 1041.5 191 c 128,-1,9
 887 186 887 186 787 274 c 0,10,11
 688 360 688 360 655.5 512.5 c 128,-1,12
 623 665 623 665 619 777 c 128,-1,13
 615 889 615 889 624 1011 c 0,14,15
 634 1140 634 1140 671 1275 c 128,-1,16
 708 1410 708 1410 806.5 1484.5 c 128,-1,17
 905 1559 905 1559 1028 1563 c 0,0,1
741 910 m 1,18,19
 740 888 740 888 740.5 816 c 128,-1,20
 741 744 741 744 753.5 625 c 128,-1,21
 766 506 766 506 806.5 415 c 128,-1,22
 847 324 847 324 904 287 c 128,-1,23
 961 250 961 250 1028 252 c 0,24,25
 1110 253 1110 253 1168 302.5 c 128,-1,26
 1226 352 1226 352 1263 446.5 c 128,-1,27
 1300 541 1300 541 1314 638 c 128,-1,28
 1328 735 1328 735 1328 847 c 2,29,-1
 1328 910 l 1,30,-1
 741 910 l 1,18,19
1328 987 m 1,31,32
 1321 1050 1321 1050 1312.5 1110 c 128,-1,33
 1304 1170 1304 1170 1277 1264 c 128,-1,34
 1250 1358 1250 1358 1186 1421.5 c 128,-1,35
 1122 1485 1122 1485 1025.5 1485.5 c 128,-1,36
 929 1486 929 1486 859 1412 c 0,37,38
 804 1354 804 1354 782.5 1260.5 c 128,-1,39
 761 1167 761 1167 752 1082 c 2,40,-1
 741 987 l 1,41,-1
 1328 987 l 1,31,32
EndSplineSet
Validated: 33
EndChar
StartChar: iota
Encoding: 953 953 767
Width: 2048
Flags: W
LayerCount: 2
Back
Fore
SplineSet
1085 1131 m 1,0,-1
 1085 418 l 2,1,2
 1085 378 1085 378 1094 350.5 c 128,-1,3
 1103 323 1103 323 1124 309.5 c 128,-1,4
 1145 296 1145 296 1178 297 c 0,5,6
 1199 297 1199 297 1226 304.5 c 128,-1,7
 1253 312 1253 312 1268 310 c 128,-1,8
 1283 308 1283 308 1288 296 c 128,-1,9
 1293 284 1293 284 1273 276 c 2,10,-1
 1135 220 l 2,11,12
 1040 182 1040 182 1020.5 189 c 128,-1,13
 1001 196 1001 196 986 217 c 128,-1,14
 971 238 971 238 966.5 288 c 128,-1,15
 962 338 962 338 962 390 c 2,16,-1
 962 801 l 2,17,18
 962 850 962 850 956.5 899.5 c 128,-1,19
 951 949 951 949 937 962 c 128,-1,20
 923 975 923 975 905 977 c 0,21,22
 889 977 889 977 872.5 968.5 c 128,-1,23
 856 960 856 960 842 960.5 c 128,-1,24
 828 961 828 961 826 976.5 c 128,-1,25
 824 992 824 992 842 999 c 2,26,-1
 872 1010 l 2,27,28
 900 1020 900 1020 950 1044.5 c 128,-1,29
 1000 1069 1000 1069 1015 1081 c 2,30,-1
 1085 1131 l 1,31,-1
 1085 1131 l 1,0,-1
EndSplineSet
Validated: 37
EndChar
StartChar: kappa
Encoding: 1024 954 768
Width: 2048
Flags: W
LayerCount: 3
Back
Fore
SplineSet
816 1131 m 1,0,-1
 816 703 l 1,1,2
 850 743 850 743 912.5 814 c 128,-1,3
 975 885 975 885 1047.5 955.5 c 128,-1,4
 1120 1026 1120 1026 1180 1071 c 128,-1,5
 1240 1116 1240 1116 1296.5 1120.5 c 128,-1,6
 1353 1125 1353 1125 1384.5 1096 c 128,-1,7
 1416 1067 1416 1067 1415.5 1025.5 c 128,-1,8
 1415 984 1415 984 1393 963 c 128,-1,9
 1371 942 1371 942 1319 935 c 2,10,-1
 1212 923 l 2,11,12
 1142 912 1142 912 1102.5 889 c 128,-1,13
 1063 866 1063 866 971 782 c 2,14,-1
 930 744 l 1,15,-1
 1212 398 l 2,16,17
 1316 270 1316 270 1371 280 c 2,18,-1
 1439 296 l 1,19,20
 1454 294 1454 294 1460 282.5 c 128,-1,21
 1466 271 1466 271 1444 261 c 2,22,-1
 1305 196 l 2,23,24
 1248 168 1248 168 1236 171.5 c 128,-1,25
 1224 175 1224 175 1198 206 c 2,26,-1
 816 662 l 1,27,-1
 816 199 l 1,28,-1
 694 199 l 1,29,-1
 694 861 l 2,30,31
 694 920 694 920 665 948 c 128,-1,32
 636 976 636 976 593 968.5 c 128,-1,33
 550 961 550 961 542.5 963 c 128,-1,34
 535 965 535 965 532 976 c 128,-1,35
 529 987 529 987 546 995 c 2,36,-1
 565 1003 l 1,37,-1
 631 1028 l 2,38,39
 679 1047 679 1047 732 1080 c 2,40,-1
 816 1131 l 1,41,-1
 816 1131 l 1,0,-1
EndSplineSet
Layer: 2
EndChar
StartChar: lambda
Encoding: 1025 955 769
Width: 2048
Flags: W
LayerCount: 3
Back
Fore
SplineSet
540 202 m 1,0,1
 695 525 695 525 719 576 c 2,2,-1
 983 1136 l 1,3,4
 968 1168 968 1168 955 1196 c 128,-1,5
 942 1224 942 1224 917.5 1260 c 128,-1,6
 893 1296 893 1296 860.5 1317.5 c 128,-1,7
 828 1339 828 1339 787 1346 c 1,8,-1
 703 1352 l 2,9,10
 649 1357 649 1357 624.5 1382 c 128,-1,11
 600 1407 600 1407 602 1447 c 0,12,13
 602 1482 602 1482 626 1506 c 128,-1,14
 650 1530 650 1530 710 1531 c 0,15,16
 761 1531 761 1531 805.5 1511 c 128,-1,17
 850 1491 850 1491 892 1447 c 128,-1,18
 934 1403 934 1403 969 1344 c 128,-1,19
 1004 1285 1004 1285 1036.5 1196.5 c 128,-1,20
 1069 1108 1069 1108 1136 898 c 2,21,-1
 1229 609 l 2,22,23
 1261 505 1261 505 1279.5 453 c 128,-1,24
 1298 401 1298 401 1318 363.5 c 128,-1,25
 1338 326 1338 326 1360 311 c 128,-1,26
 1382 296 1382 296 1411 296 c 0,27,28
 1433 295 1433 295 1457 305.5 c 128,-1,29
 1481 316 1481 316 1490 317.5 c 128,-1,30
 1499 319 1499 319 1504.5 313.5 c 128,-1,31
 1510 308 1510 308 1508 298 c 0,32,33
 1505 287 1505 287 1458.5 254 c 128,-1,34
 1412 221 1412 221 1381.5 205 c 128,-1,35
 1351 189 1351 189 1330.5 183.5 c 128,-1,36
 1310 178 1310 178 1303 179 c 0,37,38
 1282 181 1282 181 1265.5 217 c 128,-1,39
 1249 253 1249 253 1240 284 c 2,40,-1
 1035 969 l 1,41,-1
 683 204 l 1,42,-1
 540 202 l 1,0,1
EndSplineSet
Layer: 2
EndChar
StartChar: uni03BC
Encoding: 1026 956 770
Width: 2048
Flags: W
LayerCount: 3
Back
Fore
SplineSet
660 1098 m 1,0,-1
 783 1098 l 1,1,-1
 781 578 l 2,2,3
 780 499 780 499 787.5 454 c 128,-1,4
 795 409 795 409 827.5 360 c 128,-1,5
 860 311 860 311 942 303 c 0,6,7
 1000 296 1000 296 1057 327 c 128,-1,8
 1114 358 1114 358 1153 393 c 2,9,-1
 1224 456 l 1,10,-1
 1222 1099 l 1,11,-1
 1353 1100 l 1,12,-1
 1356 469 l 1,13,-1
 1358 396 l 2,14,15
 1359 354 1359 354 1372 332.5 c 128,-1,16
 1385 311 1385 311 1416 308 c 0,17,18
 1426 306 1426 306 1447 310.5 c 128,-1,19
 1468 315 1468 315 1481.5 319.5 c 128,-1,20
 1495 324 1495 324 1504 321 c 128,-1,21
 1513 318 1513 318 1516 306.5 c 128,-1,22
 1519 295 1519 295 1488 278 c 0,23,24
 1464 264 1464 264 1423.5 246 c 128,-1,25
 1383 228 1383 228 1350.5 212 c 128,-1,26
 1318 196 1318 196 1296.5 193.5 c 128,-1,27
 1275 191 1275 191 1260 201 c 0,28,29
 1239 212 1239 212 1233.5 241.5 c 128,-1,30
 1228 271 1228 271 1227 316 c 2,31,-1
 1224 393 l 1,32,33
 1158 326 1158 326 1112 287.5 c 128,-1,34
 1066 249 1066 249 1002 217.5 c 128,-1,35
 938 186 938 186 882.5 188.5 c 128,-1,36
 827 191 827 191 789 216.5 c 128,-1,37
 751 242 751 242 745 256 c 2,38,-1
 702 328 l 1,39,40
 701 285 701 285 702 249 c 128,-1,41
 703 213 703 213 711 160 c 2,42,-1
 727 64 l 2,43,44
 735 12 735 12 733 -18 c 0,45,46
 729 -62 729 -62 707.5 -86.5 c 128,-1,47
 686 -111 686 -111 657 -112.5 c 128,-1,48
 628 -114 628 -114 603.5 -91.5 c 128,-1,49
 579 -69 579 -69 573 -31.5 c 128,-1,50
 567 6 567 6 574 55 c 2,51,-1
 606 201 l 2,52,53
 620 266 620 266 635 412.5 c 128,-1,54
 650 559 650 559 653.5 600 c 128,-1,55
 657 641 657 641 658 685 c 2,56,-1
 660 1098 l 1,0,-1
EndSplineSet
Layer: 2
EndChar
StartChar: nu
Encoding: 1027 957 771
Width: 2048
Flags: W
LayerCount: 3
Back
Fore
SplineSet
1063 421 m 1,0,-1
 1205 680 l 2,1,2
 1230 725 1230 725 1243.5 772 c 128,-1,3
 1257 819 1257 819 1254 860 c 0,4,5
 1253 866 1253 866 1242.5 916.5 c 128,-1,6
 1232 967 1232 967 1231.5 1025 c 128,-1,7
 1231 1083 1231 1083 1260.5 1109.5 c 128,-1,8
 1290 1136 1290 1136 1333 1135 c 0,9,10
 1372 1133 1372 1133 1396.5 1108.5 c 128,-1,11
 1421 1084 1421 1084 1424.5 1031 c 128,-1,12
 1428 978 1428 978 1413.5 934 c 128,-1,13
 1399 890 1399 890 1368 833 c 2,14,-1
 1017 198 l 1,15,-1
 1000 198 l 1,16,-1
 809 775 l 2,17,18
 780 861 780 861 763.5 905.5 c 128,-1,19
 747 950 747 950 722 973 c 128,-1,20
 697 996 697 996 669 989 c 2,21,-1
 618 972 l 1,22,23
 596 976 596 976 594.5 991 c 128,-1,24
 593 1006 593 1006 616 1025 c 0,25,26
 627 1033 627 1033 655.5 1051.5 c 128,-1,27
 684 1070 684 1070 723.5 1098 c 128,-1,28
 763 1126 763 1126 782 1127.5 c 128,-1,29
 801 1129 801 1129 825 1111 c 0,30,31
 849 1091 849 1091 873 1033 c 128,-1,32
 897 975 897 975 906 946 c 2,33,-1
 1063 421 l 1,34,-1
 1063 421 l 1,0,-1
EndSplineSet
Layer: 2
EndChar
StartChar: xi
Encoding: 1028 958 772
Width: 2048
Flags: W
LayerCount: 3
Back
Fore
SplineSet
905 952 m 1,0,1
 865 974 865 974 836 994 c 128,-1,2
 807 1014 807 1014 781 1048.5 c 128,-1,3
 755 1083 755 1083 751 1130.5 c 128,-1,4
 747 1178 747 1178 775 1234 c 0,5,6
 810 1307 810 1307 868 1348 c 2,7,-1
 925 1391 l 1,8,9
 856 1420 856 1420 822 1436.5 c 128,-1,10
 788 1453 788 1453 755.5 1474.5 c 128,-1,11
 723 1496 723 1496 722.5 1511 c 128,-1,12
 722 1526 722 1526 750 1553 c 0,13,14
 795 1596 795 1596 806.5 1609 c 128,-1,15
 818 1622 818 1622 831 1630.5 c 128,-1,16
 844 1639 844 1639 851 1634.5 c 128,-1,17
 858 1630 858 1630 854 1613 c 0,18,19
 852 1608 852 1608 826.5 1582.5 c 128,-1,20
 801 1557 801 1557 805 1539 c 0,21,22
 807 1526 807 1526 822.5 1512 c 128,-1,23
 838 1498 838 1498 868.5 1480.5 c 128,-1,24
 899 1463 899 1463 950 1446 c 2,25,-1
 996 1430 l 1,26,27
 1058 1458 1058 1458 1103 1475 c 128,-1,28
 1148 1492 1148 1492 1209.5 1504.5 c 128,-1,29
 1271 1517 1271 1517 1333 1517.5 c 128,-1,30
 1395 1518 1395 1518 1414 1498 c 128,-1,31
 1433 1478 1433 1478 1433.5 1462 c 128,-1,32
 1434 1446 1434 1446 1422 1430 c 0,33,34
 1408 1412 1408 1412 1374.5 1398 c 128,-1,35
 1341 1384 1341 1384 1293.5 1378 c 128,-1,36
 1246 1372 1246 1372 1187 1372 c 0,37,38
 1139 1371 1139 1371 1067 1375 c 2,39,-1
 998 1378 l 1,40,41
 963 1353 963 1353 927.5 1324 c 128,-1,42
 892 1295 892 1295 862 1241 c 128,-1,43
 832 1187 832 1187 837.5 1138 c 128,-1,44
 843 1089 843 1089 886 1056 c 2,45,-1
 960 991 l 1,46,47
 1001 1016 1001 1016 1036.5 1036.5 c 128,-1,48
 1072 1057 1072 1057 1110 1071.5 c 128,-1,49
 1148 1086 1148 1086 1203.5 1100 c 128,-1,50
 1259 1114 1259 1114 1302 1102 c 128,-1,51
 1345 1090 1345 1090 1349.5 1061 c 128,-1,52
 1354 1032 1354 1032 1331 1004 c 0,53,54
 1312 982 1312 982 1280.5 966.5 c 128,-1,55
 1249 951 1249 951 1211 941 c 128,-1,56
 1173 931 1173 931 1129 930 c 0,57,58
 1095 928 1095 928 1034 933 c 2,59,-1
 976 937 l 1,60,61
 939 905 939 905 890.5 858.5 c 128,-1,62
 842 812 842 812 807.5 731.5 c 128,-1,63
 773 651 773 651 764.5 553 c 128,-1,64
 756 455 756 455 796 394.5 c 128,-1,65
 836 334 836 334 901 316 c 128,-1,66
 966 298 966 298 1060 299.5 c 128,-1,67
 1154 301 1154 301 1201 303 c 0,68,69
 1268 305 1268 305 1310 296 c 128,-1,70
 1352 287 1352 287 1380 254.5 c 128,-1,71
 1408 222 1408 222 1410 177 c 128,-1,72
 1412 132 1412 132 1397 86 c 0,73,74
 1369 2 1369 2 1297 -70 c 128,-1,75
 1225 -142 1225 -142 1126.5 -144 c 128,-1,76
 1028 -146 1028 -146 1001.5 -123.5 c 128,-1,77
 975 -101 975 -101 973.5 -74 c 128,-1,78
 972 -47 972 -47 991 -26 c 128,-1,79
 1010 -5 1010 -5 1053 1 c 0,80,81
 1079 4 1079 4 1097 -0.5 c 128,-1,82
 1115 -5 1115 -5 1160.5 -27 c 128,-1,83
 1206 -49 1206 -49 1233 -46 c 0,84,85
 1261 -44 1261 -44 1287.5 -20.5 c 128,-1,86
 1314 3 1314 3 1327.5 46 c 128,-1,87
 1341 89 1341 89 1339 130 c 0,88,89
 1336 174 1336 174 1319 189 c 128,-1,90
 1302 204 1302 204 1263 207 c 0,91,92
 1234 209 1234 209 1131 204.5 c 128,-1,93
 1028 200 1028 200 979 203 c 0,94,95
 901 206 901 206 831 228.5 c 128,-1,96
 761 251 761 251 707 309 c 128,-1,97
 653 367 653 367 651 468.5 c 128,-1,98
 649 570 649 570 668 635 c 0,99,100
 689 706 689 706 743.5 785 c 128,-1,101
 798 864 798 864 846 903 c 2,102,-1
 905 952 l 1,103,-1
 905 952 l 1,0,1
EndSplineSet
Layer: 2
EndChar
StartChar: omicron
Encoding: 1029 959 773
Width: 2048
Flags: W
LayerCount: 3
Back
Fore
SplineSet
596 649 m 0,0,1
 594 784 594 784 642 896 c 128,-1,2
 690 1008 690 1008 792 1067 c 128,-1,3
 894 1126 894 1126 1002 1130 c 0,4,5
 1121 1133 1121 1133 1227.5 1073 c 128,-1,6
 1334 1013 1334 1013 1385 902 c 128,-1,7
 1436 791 1436 791 1433 649 c 0,8,9
 1430 533 1430 533 1385.5 425.5 c 128,-1,10
 1341 318 1341 318 1233 256.5 c 128,-1,11
 1125 195 1125 195 1002 200 c 0,12,13
 884 203 884 203 783.5 266 c 128,-1,14
 683 329 683 329 640.5 434.5 c 128,-1,15
 598 540 598 540 596 649 c 0,0,1
732 633 m 0,16,17
 737 518 737 518 777 424.5 c 128,-1,18
 817 331 817 331 876.5 293.5 c 128,-1,19
 936 256 936 256 1002 254 c 0,20,21
 1059 251 1059 251 1130 281.5 c 128,-1,22
 1201 312 1201 312 1247 406 c 128,-1,23
 1293 500 1293 500 1296 619 c 128,-1,24
 1299 738 1299 738 1275.5 843.5 c 128,-1,25
 1252 949 1252 949 1172.5 1012.5 c 128,-1,26
 1093 1076 1093 1076 1002 1072 c 0,27,28
 922 1067 922 1067 849.5 1006.5 c 128,-1,29
 777 946 777 946 752.5 832 c 128,-1,30
 728 718 728 718 732 633 c 0,16,17
EndSplineSet
Layer: 2
EndChar
StartChar: pi
Encoding: 1030 960 774
Width: 2048
Flags: W
LayerCount: 3
Back
Fore
SplineSet
1552 1102 m 1,0,-1
 1552 990 l 1,1,-1
 1332 990 l 1,2,3
 1316 934 1316 934 1309 898.5 c 128,-1,4
 1302 863 1302 863 1296 781 c 128,-1,5
 1290 699 1290 699 1293 611 c 0,6,7
 1294 550 1294 550 1300 483 c 128,-1,8
 1306 416 1306 416 1313.5 374.5 c 128,-1,9
 1321 333 1321 333 1335 323.5 c 128,-1,10
 1349 314 1349 314 1364 314 c 0,11,12
 1377 313 1377 313 1406 324 c 128,-1,13
 1435 335 1435 335 1446 341 c 128,-1,14
 1457 347 1457 347 1465.5 345.5 c 128,-1,15
 1474 344 1474 344 1479 335.5 c 128,-1,16
 1484 327 1484 327 1454 308 c 0,17,18
 1437 297 1437 297 1412 285 c 128,-1,19
 1387 273 1387 273 1364 261.5 c 128,-1,20
 1341 250 1341 250 1313.5 235.5 c 128,-1,21
 1286 221 1286 221 1265.5 213 c 128,-1,22
 1245 205 1245 205 1236 212 c 0,23,24
 1230 215 1230 215 1221.5 235.5 c 128,-1,25
 1213 256 1213 256 1207.5 302 c 128,-1,26
 1202 348 1202 348 1200 385.5 c 128,-1,27
 1198 423 1198 423 1197.5 522.5 c 128,-1,28
 1197 622 1197 622 1200 666 c 0,29,30
 1205 741 1205 741 1222.5 824 c 128,-1,31
 1240 907 1240 907 1254 944 c 2,32,-1
 1270 990 l 1,33,-1
 877 990 l 1,34,35
 877 962 877 962 876.5 909 c 128,-1,36
 876 856 876 856 873 765.5 c 128,-1,37
 870 675 870 675 855.5 572.5 c 128,-1,38
 841 470 841 470 819.5 394.5 c 128,-1,39
 798 319 798 319 773 271.5 c 128,-1,40
 748 224 748 224 708.5 202.5 c 128,-1,41
 669 181 669 181 632.5 202 c 128,-1,42
 596 223 596 223 591.5 265.5 c 128,-1,43
 587 308 587 308 635 363 c 2,44,-1
 698 431 l 2,45,46
 726 466 726 466 749.5 524.5 c 128,-1,47
 773 583 773 583 787.5 650 c 128,-1,48
 802 717 802 717 811.5 807.5 c 128,-1,49
 821 898 821 898 821 944 c 2,50,-1
 821 990 l 1,51,52
 800 990 800 990 765.5 989 c 128,-1,53
 731 988 731 988 677 972.5 c 128,-1,54
 623 957 623 957 576 934 c 128,-1,55
 529 911 529 911 506.5 904.5 c 128,-1,56
 484 898 484 898 479 903.5 c 128,-1,57
 474 909 474 909 496 938 c 0,58,59
 507 952 507 952 532.5 971.5 c 128,-1,60
 558 991 558 991 596 1015.5 c 128,-1,61
 634 1040 634 1040 685 1062 c 128,-1,62
 736 1084 736 1084 785.5 1093 c 128,-1,63
 835 1102 835 1102 889 1102 c 2,64,-1
 1552 1102 l 1,0,-1
EndSplineSet
Layer: 2
EndChar
StartChar: rho
Encoding: 1031 961 775
Width: 2048
Flags: W
LayerCount: 3
Back
Fore
SplineSet
778 315 m 1,0,-1
 778 -75 l 1,1,-1
 657 -75 l 1,2,-1
 658 724 l 2,3,4
 658 818 658 818 665.5 871 c 128,-1,5
 673 924 673 924 708 981.5 c 128,-1,6
 743 1039 743 1039 806 1082 c 128,-1,7
 869 1125 869 1125 977 1128 c 0,8,9
 1075 1130 1075 1130 1180.5 1079.5 c 128,-1,10
 1286 1029 1286 1029 1342.5 917 c 128,-1,11
 1399 805 1399 805 1395 661 c 0,12,13
 1390 513 1390 513 1334 414 c 128,-1,14
 1278 315 1278 315 1196 262.5 c 128,-1,15
 1114 210 1114 210 1043 201 c 0,16,17
 965 189 965 189 916.5 210.5 c 128,-1,18
 868 232 868 232 827 271 c 2,19,-1
 778 315 l 1,20,-1
 778 315 l 1,0,-1
778 397 m 1,21,22
 814 355 814 355 842 329.5 c 128,-1,23
 870 304 870 304 912.5 283 c 128,-1,24
 955 262 955 262 1010 268 c 0,25,26
 1078 274 1078 274 1132.5 322.5 c 128,-1,27
 1187 371 1187 371 1224 458.5 c 128,-1,28
 1261 546 1261 546 1265.5 640 c 128,-1,29
 1270 734 1270 734 1250 817 c 0,30,31
 1222 931 1222 931 1152 996.5 c 128,-1,32
 1082 1062 1082 1062 983 1057 c 0,33,34
 902 1052 902 1052 858 1008.5 c 128,-1,35
 814 965 814 965 796 911 c 128,-1,36
 778 857 778 857 778 768 c 2,37,-1
 778 397 l 1,21,22
EndSplineSet
Layer: 2
EndChar
StartChar: sigma
Encoding: 1032 963 776
Width: 2048
Flags: W
LayerCount: 3
Back
Fore
SplineSet
1229 985 m 1,0,1
 1258 958 1258 958 1290.5 925.5 c 128,-1,2
 1323 893 1323 893 1359.5 822 c 128,-1,3
 1396 751 1396 751 1395 644 c 0,4,5
 1393 517 1393 517 1331 409.5 c 128,-1,6
 1269 302 1269 302 1174 247.5 c 128,-1,7
 1079 193 1079 193 965 197 c 0,8,9
 843 200 843 200 762.5 256.5 c 128,-1,10
 682 313 682 313 634.5 390.5 c 128,-1,11
 587 468 587 468 569 557.5 c 128,-1,12
 551 647 551 647 564 742 c 0,13,14
 578 844 578 844 628.5 921 c 128,-1,15
 679 998 679 998 759.5 1038.5 c 128,-1,16
 840 1079 840 1079 926 1088 c 128,-1,17
 1012 1097 1012 1097 1147 1099 c 2,18,-1
 1415 1102 l 1,19,-1
 1535 1102 l 1,20,-1
 1534 990 l 1,21,22
 1401 988 1401 988 1374 988 c 2,23,-1
 1229 985 l 1,24,-1
 1229 985 l 1,0,1
1132 984 m 1,25,26
 1053 985 1053 985 990 983.5 c 128,-1,27
 927 982 927 982 866.5 964.5 c 128,-1,28
 806 947 806 947 763 909 c 128,-1,29
 720 871 720 871 698 800 c 128,-1,30
 676 729 676 729 681 641 c 0,31,32
 688 494 688 494 753 395 c 128,-1,33
 818 296 818 296 928.5 261.5 c 128,-1,34
 1039 227 1039 227 1135.5 297.5 c 128,-1,35
 1232 368 1232 368 1256 480 c 128,-1,36
 1280 592 1280 592 1276 677 c 0,37,38
 1271 770 1271 770 1242.5 835 c 128,-1,39
 1214 900 1214 900 1166 949 c 2,40,-1
 1132 984 l 1,41,-1
 1132 984 l 1,25,26
EndSplineSet
Layer: 2
EndChar
StartChar: tau
Encoding: 1033 964 777
Width: 2048
Flags: W
LayerCount: 3
Back
Fore
SplineSet
1445 1091 m 1,0,-1
 1445 975 l 1,1,-1
 1065 974 l 1,2,3
 1051 944 1051 944 1040 914 c 128,-1,4
 1029 884 1029 884 1025 835 c 128,-1,5
 1021 786 1021 786 1021 710 c 2,6,-1
 1021 434 l 2,7,8
 1021 362 1021 362 1043.5 339.5 c 128,-1,9
 1066 317 1066 317 1106 316 c 0,10,11
 1127 314 1127 314 1158.5 321.5 c 128,-1,12
 1190 329 1190 329 1213.5 341 c 128,-1,13
 1237 353 1237 353 1248.5 351.5 c 128,-1,14
 1260 350 1260 350 1265 340.5 c 128,-1,15
 1270 331 1270 331 1251 314 c 0,16,17
 1242 305 1242 305 1232 300.5 c 128,-1,18
 1222 296 1222 296 1173 272 c 128,-1,19
 1124 248 1124 248 1092 234 c 128,-1,20
 1060 220 1060 220 1023.5 205 c 128,-1,21
 987 190 987 190 968 191.5 c 128,-1,22
 949 193 949 193 926.5 210 c 128,-1,23
 904 227 904 227 904 300 c 2,24,-1
 904 706 l 2,25,26
 904 750 904 750 909.5 784.5 c 128,-1,27
 915 819 915 819 933.5 859 c 128,-1,28
 952 899 952 899 972 925 c 2,29,-1
 1008 974 l 1,30,31
 960 973 960 973 915 973.5 c 128,-1,32
 870 974 870 974 835 968 c 128,-1,33
 800 962 800 962 760.5 946 c 128,-1,34
 721 930 721 930 690.5 913 c 128,-1,35
 660 896 660 896 636 879 c 128,-1,36
 612 862 612 862 597.5 857.5 c 128,-1,37
 583 853 583 853 577 859 c 128,-1,38
 571 865 571 865 577 884 c 0,39,40
 582 900 582 900 606.5 922.5 c 128,-1,41
 631 945 631 945 673 979.5 c 128,-1,42
 715 1014 715 1014 763.5 1042 c 128,-1,43
 812 1070 812 1070 863 1080.5 c 128,-1,44
 914 1091 914 1091 969 1091 c 2,45,-1
 1445 1091 l 1,0,-1
EndSplineSet
Layer: 2
EndChar
StartChar: upsilon
Encoding: 965 965 778
Width: 2048
Flags: W
LayerCount: 2
Back
Fore
SplineSet
852 985 m 2,0,-1
 852 559 l 2,1,2
 852 490 852 490 859.5 438 c 128,-1,3
 867 386 867 386 902.5 349.5 c 128,-1,4
 938 313 938 313 1023 314 c 0,5,6
 1100 314 1100 314 1162 353.5 c 128,-1,7
 1224 393 1224 393 1262 473 c 128,-1,8
 1300 553 1300 553 1305.5 628 c 128,-1,9
 1311 703 1311 703 1296 759 c 0,10,11
 1276 826 1276 826 1243.5 862.5 c 128,-1,12
 1211 899 1211 899 1172.5 933.5 c 128,-1,13
 1134 968 1134 968 1123 992 c 128,-1,14
 1112 1016 1112 1016 1116 1047 c 0,15,16
 1120 1082 1120 1082 1143.5 1106.5 c 128,-1,17
 1167 1131 1167 1131 1210 1132 c 0,18,19
 1243 1132 1243 1132 1284.5 1104.5 c 128,-1,20
 1326 1077 1326 1077 1352 1012 c 128,-1,21
 1378 947 1378 947 1389.5 892 c 128,-1,22
 1401 837 1401 837 1400 756 c 0,23,24
 1398 672 1398 672 1384.5 603.5 c 128,-1,25
 1371 535 1371 535 1342.5 464.5 c 128,-1,26
 1314 394 1314 394 1253.5 326.5 c 128,-1,27
 1193 259 1193 259 1122 228.5 c 128,-1,28
 1051 198 1051 198 980 198 c 0,29,30
 936 197 936 197 890.5 210.5 c 128,-1,31
 845 224 845 224 806.5 260.5 c 128,-1,32
 768 297 768 297 748 341 c 128,-1,33
 728 385 728 385 728 451 c 2,34,-1
 728 800 l 2,35,36
 728 956 728 956 699.5 975.5 c 128,-1,37
 671 995 671 995 663 995.5 c 128,-1,38
 655 996 655 996 653 996 c 2,39,-1
 581 975 l 2,40,41
 562 971 562 971 556 978 c 128,-1,42
 550 985 550 985 559 1002 c 0,43,44
 562 1008 562 1008 588 1027 c 128,-1,45
 614 1046 614 1046 671 1082 c 128,-1,46
 728 1118 728 1118 757 1139.5 c 128,-1,47
 786 1161 786 1161 802 1157 c 0,48,49
 813 1154 813 1154 826.5 1137 c 128,-1,50
 840 1120 840 1120 846 1061.5 c 128,-1,51
 852 1003 852 1003 852 985 c 2,0,-1
EndSplineSet
Validated: 33
EndChar
StartChar: phi
Encoding: 1035 966 779
Width: 2048
Flags: W
LayerCount: 3
Back
Fore
SplineSet
950 1122 m 1,0,-1
 950 1173 l 2,1,2
 950 1216 950 1216 946.5 1270.5 c 128,-1,3
 943 1325 943 1325 935 1384.5 c 128,-1,4
 927 1444 927 1444 927.5 1480.5 c 128,-1,5
 928 1517 928 1517 950 1542 c 128,-1,6
 972 1567 972 1567 1011.5 1563.5 c 128,-1,7
 1051 1560 1051 1560 1070.5 1530.5 c 128,-1,8
 1090 1501 1090 1501 1087 1444 c 2,9,-1
 1073 1304 l 2,10,11
 1071 1276 1071 1276 1071 1163 c 2,12,-1
 1071 1106 l 1,13,14
 1105 1103 1105 1103 1162 1097 c 128,-1,15
 1219 1091 1219 1091 1325 1038 c 128,-1,16
 1431 985 1431 985 1476 858 c 128,-1,17
 1521 731 1521 731 1493 609 c 128,-1,18
 1465 487 1465 487 1416.5 417 c 128,-1,19
 1368 347 1368 347 1292.5 303 c 128,-1,20
 1217 259 1217 259 1136 254 c 2,21,-1
 1071 248 l 1,22,-1
 1071 -67 l 1,23,-1
 949 -67 l 1,24,-1
 950 203 l 1,25,26
 906 203 906 203 834.5 209.5 c 128,-1,27
 763 216 763 216 658.5 290 c 128,-1,28
 554 364 554 364 509.5 477 c 128,-1,29
 465 590 465 590 476.5 717 c 128,-1,30
 488 844 488 844 552 929.5 c 128,-1,31
 616 1015 616 1015 717.5 1065 c 128,-1,32
 819 1115 819 1115 901 1119 c 2,33,-1
 950 1122 l 1,34,-1
 950 1122 l 1,0,-1
949 282 m 1,35,-1
 950 1051 l 1,36,37
 927 1051 927 1051 894 1049.5 c 128,-1,38
 861 1048 861 1048 795.5 1019 c 128,-1,39
 730 990 730 990 677 928.5 c 128,-1,40
 624 867 624 867 605.5 765 c 128,-1,41
 587 663 587 663 617.5 557.5 c 128,-1,42
 648 452 648 452 720 371 c 128,-1,43
 792 290 792 290 877 288 c 1,44,-1
 949 282 l 1,45,-1
 949 282 l 1,35,-1
1071 311 m 1,46,47
 1124 316 1124 316 1170 328.5 c 128,-1,48
 1216 341 1216 341 1275 397.5 c 128,-1,49
 1334 454 1334 454 1360.5 566.5 c 128,-1,50
 1387 679 1387 679 1365 780 c 0,51,52
 1345 868 1345 868 1283 939.5 c 128,-1,53
 1221 1011 1221 1011 1150 1018 c 2,54,-1
 1071 1029 l 1,55,-1
 1071 311 l 1,46,47
EndSplineSet
Layer: 2
EndChar
StartChar: chi
Encoding: 1036 967 780
Width: 2048
Flags: W
LayerCount: 3
Back
Fore
SplineSet
1459 1079 m 1,0,-1
 1077 667 l 1,1,2
 1144 546 1144 546 1180 488.5 c 128,-1,3
 1216 431 1216 431 1248.5 390.5 c 128,-1,4
 1281 350 1281 350 1321 325.5 c 128,-1,5
 1361 301 1361 301 1416 296 c 0,6,7
 1451 292 1451 292 1478.5 301.5 c 128,-1,8
 1506 311 1506 311 1514.5 306 c 128,-1,9
 1523 301 1523 301 1524.5 291 c 128,-1,10
 1526 281 1526 281 1514 269 c 256,11,12
 1502 257 1502 257 1479 244 c 2,13,-1
 1410 207 l 2,14,15
 1355 178 1355 178 1329 179 c 0,16,17
 1290 179 1290 179 1258.5 207.5 c 128,-1,18
 1227 236 1227 236 1201.5 273.5 c 128,-1,19
 1176 311 1176 311 1161 338 c 2,20,-1
 1012 594 l 1,21,-1
 651 206 l 1,22,-1
 530 206 l 1,23,-1
 962 676 l 1,24,25
 913 767 913 767 879 816.5 c 128,-1,26
 845 866 845 866 802.5 895 c 128,-1,27
 760 924 760 924 698 932 c 1,28,-1
 619 937 l 2,29,30
 567 942 567 942 544 965.5 c 128,-1,31
 521 989 521 989 522.5 1026.5 c 128,-1,32
 524 1064 524 1064 562.5 1090 c 128,-1,33
 601 1116 601 1116 679 1102 c 128,-1,34
 757 1088 757 1088 814 1041.5 c 128,-1,35
 871 995 871 995 903 950.5 c 128,-1,36
 935 906 935 906 993 809 c 2,37,-1
 1028 749 l 1,38,-1
 1338 1080 l 1,39,-1
 1459 1079 l 1,0,-1
EndSplineSet
Layer: 2
EndChar
StartChar: psi
Encoding: 1037 968 781
Width: 2048
Flags: W
LayerCount: 3
Back
Fore
SplineSet
956 299 m 1,0,-1
 956 1090 l 2,1,2
 956 1244 956 1244 948 1320 c 2,3,-1
 936 1433 l 2,4,5
 932 1491 932 1491 951.5 1517 c 128,-1,6
 971 1543 971 1543 1007 1545.5 c 128,-1,7
 1043 1548 1043 1548 1068.5 1522.5 c 128,-1,8
 1094 1497 1094 1497 1095 1462 c 128,-1,9
 1096 1427 1096 1427 1093 1396 c 0,10,11
 1084 1315 1084 1315 1081.5 1275.5 c 128,-1,12
 1079 1236 1079 1236 1079 1183 c 2,13,-1
 1079 343 l 1,14,15
 1108 343 1108 343 1140 346 c 128,-1,16
 1172 349 1172 349 1230.5 378 c 128,-1,17
 1289 407 1289 407 1338.5 479 c 128,-1,18
 1388 551 1388 551 1403.5 623.5 c 128,-1,19
 1419 696 1419 696 1418 760 c 0,20,21
 1416 821 1416 821 1403 872.5 c 128,-1,22
 1390 924 1390 924 1369.5 981 c 128,-1,23
 1349 1038 1349 1038 1332.5 1061.5 c 128,-1,24
 1316 1085 1316 1085 1315.5 1098.5 c 128,-1,25
 1315 1112 1315 1112 1325 1118 c 128,-1,26
 1335 1124 1335 1124 1357 1107 c 0,27,28
 1374 1092 1374 1092 1403.5 1044 c 128,-1,29
 1433 996 1433 996 1457.5 942 c 128,-1,30
 1482 888 1482 888 1503.5 784 c 128,-1,31
 1525 680 1525 680 1505 575 c 0,32,33
 1482 454 1482 454 1414.5 371.5 c 128,-1,34
 1347 289 1347 289 1273.5 251.5 c 128,-1,35
 1200 214 1200 214 1137 214 c 2,36,-1
 1079 212 l 1,37,-1
 1079 -104 l 1,38,-1
 956 -104 l 1,39,-1
 956 177 l 1,40,41
 921 178 921 178 878 182 c 128,-1,42
 835 186 835 186 735 222.5 c 128,-1,43
 635 259 635 259 575.5 359.5 c 128,-1,44
 516 460 516 460 498.5 541.5 c 128,-1,45
 481 623 481 623 482 714 c 0,46,47
 483 800 483 800 498.5 877.5 c 128,-1,48
 514 955 514 955 540 1007 c 128,-1,49
 566 1059 566 1059 611 1087.5 c 128,-1,50
 656 1116 656 1116 693.5 1112 c 128,-1,51
 731 1108 731 1108 764.5 1073 c 128,-1,52
 798 1038 798 1038 773 981 c 0,53,54
 761 954 761 954 732 937 c 2,55,-1
 686 916 l 2,56,57
 642 896 642 896 619 869 c 128,-1,58
 596 842 596 842 576 797 c 128,-1,59
 556 752 556 752 554 634.5 c 128,-1,60
 552 517 552 517 660 406 c 0,61,62
 713 350 713 350 783 323.5 c 128,-1,63
 853 297 853 297 905 299 c 2,64,-1
 956 299 l 1,65,-1
 956 299 l 1,0,-1
EndSplineSet
Layer: 2
EndChar
StartChar: omega
Encoding: 1038 969 782
Width: 2048
Flags: W
LayerCount: 3
Back
Fore
SplineSet
978 496 m 1,0,1
 960 537 960 537 949.5 568 c 128,-1,2
 939 599 939 599 932 639.5 c 128,-1,3
 925 680 925 680 922.5 745 c 128,-1,4
 920 810 920 810 934 848 c 0,5,6
 945 879 945 879 968 898 c 128,-1,7
 991 917 991 917 1022.5 916.5 c 128,-1,8
 1054 916 1054 916 1085.5 882.5 c 128,-1,9
 1117 849 1117 849 1117 758 c 0,10,11
 1116 706 1116 706 1107 651.5 c 128,-1,12
 1098 597 1098 597 1085 567 c 2,13,-1
 1057 499 l 1,14,15
 1067 473 1067 473 1081.5 441.5 c 128,-1,16
 1096 410 1096 410 1141 365 c 128,-1,17
 1186 320 1186 320 1250 315 c 128,-1,18
 1314 310 1314 310 1378 363 c 0,19,20
 1437 411 1437 411 1462.5 485.5 c 128,-1,21
 1488 560 1488 560 1490.5 649.5 c 128,-1,22
 1493 739 1493 739 1475 796 c 0,23,24
 1458 846 1458 846 1428.5 875 c 128,-1,25
 1399 904 1399 904 1336 927.5 c 128,-1,26
 1273 951 1273 951 1253.5 968.5 c 128,-1,27
 1234 986 1234 986 1220 1027 c 128,-1,28
 1206 1068 1206 1068 1242 1103.5 c 128,-1,29
 1278 1139 1278 1139 1329 1139 c 0,30,31
 1377 1138 1377 1138 1422 1107 c 128,-1,32
 1467 1076 1467 1076 1501.5 1017 c 128,-1,33
 1536 958 1536 958 1553.5 888.5 c 128,-1,34
 1571 819 1571 819 1575 757.5 c 128,-1,35
 1579 696 1579 696 1576 635 c 0,36,37
 1568 516 1568 516 1533 426.5 c 128,-1,38
 1498 337 1498 337 1436.5 275.5 c 128,-1,39
 1375 214 1375 214 1319 198 c 128,-1,40
 1263 182 1263 182 1207 204 c 0,41,42
 1165 220 1165 220 1121.5 266 c 128,-1,43
 1078 312 1078 312 1049 363 c 2,44,-1
 1016 417 l 1,45,46
 979 360 979 360 945 314 c 128,-1,47
 911 268 911 268 860.5 232.5 c 128,-1,48
 810 197 810 197 749 194 c 0,49,50
 687 190 687 190 631.5 220.5 c 128,-1,51
 576 251 576 251 528 310.5 c 128,-1,52
 480 370 480 370 455.5 453 c 128,-1,53
 431 536 431 536 430 628.5 c 128,-1,54
 429 721 429 721 446 794 c 0,55,56
 460 854 460 854 489.5 912 c 128,-1,57
 519 970 519 970 557.5 1016 c 128,-1,58
 596 1062 596 1062 628.5 1089 c 128,-1,59
 661 1116 661 1116 698.5 1140.5 c 128,-1,60
 736 1165 736 1165 747 1152.5 c 128,-1,61
 758 1140 758 1140 754 1124 c 0,62,63
 751 1114 751 1114 732.5 1098 c 128,-1,64
 714 1082 714 1082 689.5 1047 c 128,-1,65
 665 1012 665 1012 644.5 977.5 c 128,-1,66
 624 943 624 943 600.5 862.5 c 128,-1,67
 577 782 577 782 573.5 678.5 c 128,-1,68
 570 575 570 575 591 488 c 0,69,70
 612 398 612 398 654 358 c 128,-1,71
 696 318 696 318 751 313 c 128,-1,72
 806 308 806 308 863 346 c 0,73,74
 923 385 923 385 956 453 c 2,75,-1
 978 496 l 1,76,-1
 978 496 l 1,0,1
EndSplineSet
Layer: 2
EndChar
StartChar: uni0401
Encoding: 1025 1025 827
Width: 2048
Flags: W
LayerCount: 2
Back
Fore
SplineSet
1466 1400 m 1,0,-1
 1487 1127 l 2,1,2
 1488 1103 1488 1103 1476 1097 c 128,-1,3
 1464 1091 1464 1091 1447 1116 c 0,4,5
 1440 1124 1440 1124 1433.5 1152.5 c 128,-1,6
 1427 1181 1427 1181 1409.5 1210.5 c 128,-1,7
 1392 1240 1392 1240 1364 1267 c 128,-1,8
 1336 1294 1336 1294 1300 1307.5 c 128,-1,9
 1264 1321 1264 1321 1207 1321 c 2,10,-1
 822 1321 l 1,11,-1
 823 859 l 1,12,-1
 1109 859 l 2,13,14
 1148 859 1148 859 1193 866.5 c 128,-1,15
 1238 874 1238 874 1268 893 c 128,-1,16
 1298 912 1298 912 1313.5 938 c 128,-1,17
 1329 964 1329 964 1333.5 1002.5 c 128,-1,18
 1338 1041 1338 1041 1344 1054 c 128,-1,19
 1350 1067 1350 1067 1366 1067.5 c 128,-1,20
 1382 1068 1382 1068 1382 1042 c 2,21,-1
 1382 633 l 2,22,23
 1382 607 1382 607 1367.5 604.5 c 128,-1,24
 1353 602 1353 602 1344 623 c 0,25,26
 1342 626 1342 626 1340 643 c 128,-1,27
 1338 660 1338 660 1331 681.5 c 128,-1,28
 1324 703 1324 703 1314.5 719.5 c 128,-1,29
 1305 736 1305 736 1278.5 753.5 c 128,-1,30
 1252 771 1252 771 1217 778.5 c 128,-1,31
 1182 786 1182 786 1109 786 c 2,32,-1
 823 786 l 1,33,-1
 823 372 l 2,34,35
 823 295 823 295 847 274.5 c 128,-1,36
 871 254 871 254 918 255 c 2,37,-1
 1256 257 l 2,38,39
 1313 257 1313 257 1345 264.5 c 128,-1,40
 1377 272 1377 272 1410 288.5 c 128,-1,41
 1443 305 1443 305 1467.5 327.5 c 128,-1,42
 1492 350 1492 350 1516 386.5 c 128,-1,43
 1540 423 1540 423 1552 458.5 c 128,-1,44
 1564 494 1564 494 1578 506.5 c 128,-1,45
 1592 519 1592 519 1604 514 c 128,-1,46
 1616 509 1616 509 1609 485 c 2,47,-1
 1512 182 l 1,48,-1
 509 182 l 2,49,50
 490 182 490 182 492 198 c 128,-1,51
 494 214 494 214 509 216 c 2,52,-1
 561 221 l 2,53,54
 609 225 609 225 639 243.5 c 128,-1,55
 669 262 669 262 676.5 298 c 128,-1,56
 684 334 684 334 685 421 c 2,57,-1
 686 1174 l 2,58,59
 686 1211 686 1211 675 1252 c 128,-1,60
 664 1293 664 1293 637 1314 c 128,-1,61
 610 1335 610 1335 563 1346 c 2,62,-1
 503 1359 l 2,63,64
 478 1364 478 1364 480 1382 c 128,-1,65
 482 1400 482 1400 511 1400 c 2,66,-1
 1466 1400 l 1,0,-1
1204 1728 m 0,67,68
 1233 1728 1233 1728 1260.5 1713 c 128,-1,69
 1288 1698 1288 1698 1304 1669.5 c 128,-1,70
 1320 1641 1320 1641 1320.5 1610.5 c 128,-1,71
 1321 1580 1321 1580 1305 1552 c 256,72,73
 1289 1524 1289 1524 1262 1508 c 128,-1,74
 1235 1492 1235 1492 1204 1493 c 0,75,76
 1172 1493 1172 1493 1144.5 1508.5 c 128,-1,77
 1117 1524 1117 1524 1101 1551.5 c 128,-1,78
 1085 1579 1085 1579 1086 1611 c 0,79,80
 1086 1641 1086 1641 1102 1669 c 128,-1,81
 1118 1697 1118 1697 1146 1712 c 128,-1,82
 1174 1727 1174 1727 1204 1728 c 0,67,68
787 1728 m 0,83,84
 815 1727 815 1727 843 1712 c 128,-1,85
 871 1697 871 1697 887 1669 c 128,-1,86
 903 1641 903 1641 903.5 1610 c 128,-1,87
 904 1579 904 1579 888 1552 c 0,88,89
 872 1524 872 1524 844.5 1508.5 c 128,-1,90
 817 1493 817 1493 787 1493 c 0,91,92
 755 1492 755 1492 727.5 1508 c 128,-1,93
 700 1524 700 1524 684 1551.5 c 128,-1,94
 668 1579 668 1579 669 1611 c 0,95,96
 669 1641 669 1641 685 1669 c 128,-1,97
 701 1697 701 1697 729.5 1712.5 c 128,-1,98
 758 1728 758 1728 787 1728 c 0,83,84
EndSplineSet
Validated: 33
EndChar
StartChar: uni0410
Encoding: 1040 1040 821
Width: 2048
Flags: W
LayerCount: 2
Back
Fore
SplineSet
1029 1512 m 1,0,-1
 1435 495 l 2,1,2
 1474 396 1474 396 1496.5 351 c 128,-1,3
 1519 306 1519 306 1551.5 278.5 c 128,-1,4
 1584 251 1584 251 1620 241 c 2,5,-1
 1669 227 l 2,6,7
 1698 218 1698 218 1694 200 c 128,-1,8
 1690 182 1690 182 1669 182 c 2,9,-1
 1209 182 l 2,10,11
 1187 182 1187 182 1184 200.5 c 128,-1,12
 1181 219 1181 219 1204 222 c 2,13,-1
 1250 227 l 2,14,15
 1284 230 1284 230 1311.5 244.5 c 128,-1,16
 1339 259 1339 259 1345.5 287 c 128,-1,17
 1352 315 1352 315 1334 363 c 2,18,-1
 1239 607 l 1,19,-1
 738 607 l 1,20,-1
 651 390 l 2,21,22
 638 358 638 358 632.5 327.5 c 128,-1,23
 627 297 627 297 630 282 c 0,24,25
 634 251 634 251 648 241.5 c 128,-1,26
 662 232 662 232 706 225 c 2,27,-1
 755 217 l 2,28,29
 779 213 779 213 776 193.5 c 128,-1,30
 773 174 773 174 755 174 c 2,31,-1
 365 174 l 2,32,33
 339 174 339 174 343.5 191.5 c 128,-1,34
 348 209 348 209 365 214 c 2,35,-1
 394 222 l 2,36,37
 424 230 424 230 443 237 c 128,-1,38
 462 244 462 244 491 272 c 128,-1,39
 520 300 520 300 536 330.5 c 128,-1,40
 552 361 552 361 581 431 c 2,41,-1
 1029 1512 l 1,0,-1
761 662 m 1,42,-1
 1214 662 l 1,43,-1
 993 1245 l 1,44,-1
 761 662 l 1,42,-1
EndSplineSet
Validated: 33
EndChar
StartChar: uni0411
Encoding: 1041 1041 822
Width: 2048
Flags: W
LayerCount: 2
Back
Fore
SplineSet
1425 1481 m 1,0,-1
 1442 1155 l 2,1,2
 1442 1140 1442 1140 1428.5 1134.5 c 128,-1,3
 1415 1129 1415 1129 1398 1155 c 0,4,5
 1393 1162 1393 1162 1382 1189 c 128,-1,6
 1371 1216 1371 1216 1349 1252 c 128,-1,7
 1327 1288 1327 1288 1295 1323 c 128,-1,8
 1263 1358 1263 1358 1208.5 1384.5 c 128,-1,9
 1154 1411 1154 1411 1087 1411 c 2,10,-1
 929 1411 l 2,11,12
 897 1411 897 1411 868.5 1400 c 128,-1,13
 840 1389 840 1389 831.5 1359 c 128,-1,14
 823 1329 823 1329 823 1255 c 2,15,-1
 823 914 l 1,16,-1
 1039 914 l 2,17,18
 1143 914 1143 914 1268 893 c 128,-1,19
 1393 872 1393 872 1445 799.5 c 128,-1,20
 1497 727 1497 727 1510 673.5 c 128,-1,21
 1523 620 1523 620 1527 549 c 128,-1,22
 1531 478 1531 478 1505 410 c 0,23,24
 1473 329 1473 329 1402 276.5 c 128,-1,25
 1331 224 1331 224 1206.5 204 c 128,-1,26
 1082 184 1082 184 916 184 c 2,27,-1
 501 184 l 2,28,29
 482 184 482 184 484 199.5 c 128,-1,30
 486 215 486 215 498 218 c 2,31,-1
 528 224 l 1,32,-1
 577 229 l 2,33,34
 628 235 628 235 652.5 263.5 c 128,-1,35
 677 292 677 292 682 329 c 128,-1,36
 687 366 687 366 687 447 c 2,37,-1
 687 1145 l 2,38,39
 687 1266 687 1266 685 1306 c 128,-1,40
 683 1346 683 1346 654.5 1381 c 128,-1,41
 626 1416 626 1416 571 1427 c 2,42,-1
 512 1438 l 2,43,44
 482 1443 482 1443 484.5 1462.5 c 128,-1,45
 487 1482 487 1482 506 1482 c 2,46,-1
 1425 1481 l 1,0,-1
823 848 m 1,47,-1
 823 385 l 2,48,49
 823 332 823 332 827.5 306 c 128,-1,50
 832 280 832 280 850 265.5 c 128,-1,51
 868 251 868 251 923 251 c 2,52,-1
 1030 251 l 2,53,54
 1104 251 1104 251 1185 281.5 c 128,-1,55
 1266 312 1266 312 1313.5 367 c 128,-1,56
 1361 422 1361 422 1367.5 512 c 128,-1,57
 1374 602 1374 602 1347 671 c 0,58,59
 1316 745 1316 745 1245.5 796.5 c 128,-1,60
 1175 848 1175 848 1005 848 c 2,61,-1
 823 848 l 1,47,-1
EndSplineSet
Validated: 33
EndChar
StartChar: uni0412
Encoding: 1079 1042 823
Width: 2048
Flags: W
LayerCount: 3
Back
Fore
SplineSet
1177 848 m 1,0,1
 1242 831 1242 831 1289.5 815.5 c 128,-1,2
 1337 800 1337 800 1390.5 766 c 128,-1,3
 1444 732 1444 732 1477.5 672 c 128,-1,4
 1511 612 1511 612 1509 522 c 0,5,6
 1505 408 1505 408 1454 340.5 c 128,-1,7
 1403 273 1403 273 1331 237.5 c 128,-1,8
 1259 202 1259 202 1171 192 c 128,-1,9
 1083 182 1083 182 966 182 c 2,10,-1
 521 182 l 2,11,12
 487 182 487 182 488 200.5 c 128,-1,13
 489 219 489 219 511 222 c 2,14,-1
 549 227 l 2,15,16
 597 233 597 233 628 247 c 128,-1,17
 659 261 659 261 674.5 285 c 128,-1,18
 690 309 690 309 690 394 c 2,19,-1
 690 1266 l 2,20,21
 690 1308 690 1308 682 1339 c 128,-1,22
 674 1370 674 1370 653.5 1393 c 128,-1,23
 633 1416 633 1416 583 1423 c 2,24,-1
 502 1434 l 2,25,26
 481 1436 481 1436 481 1455.5 c 128,-1,27
 481 1475 481 1475 502 1475 c 2,28,-1
 969 1475 l 2,29,30
 1044 1475 1044 1475 1111 1465.5 c 128,-1,31
 1178 1456 1178 1456 1253 1427 c 128,-1,32
 1328 1398 1328 1398 1386 1333 c 128,-1,33
 1444 1268 1444 1268 1446.5 1158.5 c 128,-1,34
 1449 1049 1449 1049 1408 985 c 0,35,36
 1356 903 1356 903 1291 886 c 1,37,-1
 1177 848 l 1,38,-1
 1177 848 l 1,0,1
966 1410 m 2,39,-1
 885 1410 l 2,40,41
 858 1410 858 1410 845.5 1398.5 c 128,-1,42
 833 1387 833 1387 833 1372 c 2,43,-1
 833 927 l 2,44,45
 833 901 833 901 842 893.5 c 128,-1,46
 851 886 851 886 874 886 c 2,47,-1
 991 886 l 2,48,49
 1044 886 1044 886 1099.5 903 c 128,-1,50
 1155 920 1155 920 1198.5 948 c 128,-1,51
 1242 976 1242 976 1271.5 1024.5 c 128,-1,52
 1301 1073 1301 1073 1301.5 1156 c 128,-1,53
 1302 1239 1302 1239 1269 1292 c 0,54,55
 1238 1339 1238 1339 1180.5 1367.5 c 128,-1,56
 1123 1396 1123 1396 1077.5 1403 c 128,-1,57
 1032 1410 1032 1410 966 1410 c 2,39,-1
1015 816 m 2,58,-1
 878 816 l 2,59,60
 850 816 850 816 841.5 806 c 128,-1,61
 833 796 833 796 833 780 c 2,62,-1
 833 313 l 2,63,64
 833 282 833 282 847 266.5 c 128,-1,65
 861 251 861 251 901 251 c 2,66,-1
 1015 251 l 2,67,68
 1118 251 1118 251 1198 291.5 c 128,-1,69
 1278 332 1278 332 1315.5 397.5 c 128,-1,70
 1353 463 1353 463 1351 542 c 0,71,72
 1348 623 1348 623 1313.5 674.5 c 128,-1,73
 1279 726 1279 726 1228 758 c 128,-1,74
 1177 790 1177 790 1119 803 c 128,-1,75
 1061 816 1061 816 1015 816 c 2,58,-1
EndSplineSet
Layer: 2
EndChar
StartChar: uni0413
Encoding: 1043 1043 824
Width: 2048
Flags: W
LayerCount: 2
Back
Fore
SplineSet
1515 1482 m 1,0,-1
 1531 1147 l 2,1,2
 1531 1127 1531 1127 1517 1125 c 128,-1,3
 1503 1123 1503 1123 1493 1141 c 0,4,5
 1487 1150 1487 1150 1482 1174 c 128,-1,6
 1477 1198 1477 1198 1461.5 1242.5 c 128,-1,7
 1446 1287 1446 1287 1425.5 1322 c 128,-1,8
 1405 1357 1405 1357 1377.5 1379.5 c 128,-1,9
 1350 1402 1350 1402 1305 1412.5 c 128,-1,10
 1260 1423 1260 1423 1198 1423 c 2,11,-1
 854 1422 l 1,12,-1
 854 469 l 2,13,14
 854 334 854 334 884.5 297.5 c 128,-1,15
 915 261 915 261 951.5 249 c 128,-1,16
 988 237 988 237 1043 232 c 2,17,-1
 1119 224 l 2,18,19
 1132 222 1132 222 1133 204.5 c 128,-1,20
 1134 187 1134 187 1108 187 c 2,21,-1
 535 187 l 2,22,23
 509 187 509 187 510.5 204 c 128,-1,24
 512 221 512 221 532 224 c 2,25,-1
 595 232 l 2,26,27
 642 238 642 238 668.5 262 c 128,-1,28
 695 286 695 286 705 335.5 c 128,-1,29
 715 385 715 385 715 469 c 2,30,-1
 715 1245 l 2,31,32
 715 1315 715 1315 695 1359.5 c 128,-1,33
 675 1404 675 1404 649.5 1417 c 128,-1,34
 624 1430 624 1430 582 1436 c 2,35,-1
 541 1441 l 2,36,37
 511 1444 511 1444 510.5 1463 c 128,-1,38
 510 1482 510 1482 524 1482 c 2,39,-1
 1515 1482 l 1,0,-1
EndSplineSet
Validated: 1
EndChar
StartChar: uni0414
Encoding: 1081 1044 825
Width: 2048
Flags: W
LayerCount: 3
Back
Fore
SplineSet
383 235 m 1,0,1
 409 234 409 234 442.5 235.5 c 128,-1,2
 476 237 476 237 533.5 260.5 c 128,-1,3
 591 284 591 284 624.5 331.5 c 128,-1,4
 658 379 658 379 666 426 c 128,-1,5
 674 473 674 473 674 519 c 2,6,-1
 674 1198 l 2,7,8
 674 1258 674 1258 671 1301 c 128,-1,9
 668 1344 668 1344 641 1375 c 128,-1,10
 614 1406 614 1406 560 1416 c 2,11,-1
 497 1427 l 2,12,13
 477 1430 477 1430 472 1449 c 128,-1,14
 467 1468 467 1468 497 1468 c 2,15,-1
 1600 1468 l 2,16,17
 1621 1468 1621 1468 1623.5 1448 c 128,-1,18
 1626 1428 1626 1428 1605 1427 c 2,19,-1
 1581 1425 l 2,20,21
 1531 1420 1531 1420 1502.5 1411.5 c 128,-1,22
 1474 1403 1474 1403 1452 1380 c 128,-1,23
 1430 1357 1430 1357 1424 1331.5 c 128,-1,24
 1418 1306 1418 1306 1419 1223 c 2,25,-1
 1421 440 l 2,26,27
 1421 339 1421 339 1444 303 c 128,-1,28
 1467 267 1467 267 1537 249 c 0,29,30
 1578 237 1578 237 1622 238 c 2,31,-1
 1654 238 l 1,32,-1
 1654 -129 l 2,33,34
 1654 -156 1654 -156 1634 -155 c 128,-1,35
 1614 -154 1614 -154 1607 -136 c 128,-1,36
 1600 -118 1600 -118 1592.5 -83 c 128,-1,37
 1585 -48 1585 -48 1567 1.5 c 128,-1,38
 1549 51 1549 51 1519 96 c 128,-1,39
 1489 141 1489 141 1446.5 163 c 128,-1,40
 1404 185 1404 185 1335 185 c 2,41,-1
 746 184 l 2,42,43
 623 183 623 183 564 142 c 128,-1,44
 505 101 505 101 482.5 53 c 128,-1,45
 460 5 460 5 448 -51 c 128,-1,46
 436 -107 436 -107 427 -134 c 128,-1,47
 418 -161 418 -161 400.5 -160.5 c 128,-1,48
 383 -160 383 -160 383 -132 c 2,49,-1
 383 235 l 1,0,1
691 248 m 1,50,-1
 1099 248 l 2,51,52
 1185 248 1185 248 1224.5 262 c 128,-1,53
 1264 276 1264 276 1277.5 309.5 c 128,-1,54
 1291 343 1291 343 1291 399 c 2,55,-1
 1291 1184 l 2,56,57
 1291 1262 1291 1262 1286 1308.5 c 128,-1,58
 1281 1355 1281 1355 1258.5 1380.5 c 128,-1,59
 1236 1406 1236 1406 1144 1406 c 2,60,-1
 937 1406 l 2,61,62
 855 1406 855 1406 828.5 1378 c 128,-1,63
 802 1350 802 1350 795.5 1317 c 128,-1,64
 789 1284 789 1284 789 1190 c 2,65,-1
 789 512 l 2,66,67
 789 455 789 455 777 392 c 128,-1,68
 765 329 765 329 745 309 c 2,69,-1
 691 248 l 1,70,-1
 691 248 l 1,50,-1
EndSplineSet
Layer: 2
EndChar
StartChar: uni0415
Encoding: 1045 1045 826
Width: 2048
Flags: W
LayerCount: 2
Back
Fore
SplineSet
1456 1501 m 1,0,-1
 1480 1206 l 2,1,2
 1481 1185 1481 1185 1465 1184 c 128,-1,3
 1449 1183 1449 1183 1439 1206 c 0,4,5
 1438 1208 1438 1208 1427 1247 c 128,-1,6
 1416 1286 1416 1286 1396 1323.5 c 128,-1,7
 1376 1361 1376 1361 1352 1383 c 128,-1,8
 1328 1405 1328 1405 1290 1417.5 c 128,-1,9
 1252 1430 1252 1430 1216 1430 c 2,10,-1
 809 1430 l 1,11,-1
 809 920 l 1,12,-1
 1099 920 l 2,13,14
 1141 920 1141 920 1184.5 928 c 128,-1,15
 1228 936 1228 936 1258 956.5 c 128,-1,16
 1288 977 1288 977 1305 1005.5 c 128,-1,17
 1322 1034 1322 1034 1325.5 1075.5 c 128,-1,18
 1329 1117 1329 1117 1335 1129.5 c 128,-1,19
 1341 1142 1341 1142 1357.5 1142.5 c 128,-1,20
 1374 1143 1374 1143 1374 1116 c 2,21,-1
 1374 679 l 2,22,23
 1374 651 1374 651 1359 649 c 128,-1,24
 1344 647 1344 647 1335 669 c 0,25,26
 1333 671 1333 671 1331.5 690 c 128,-1,27
 1330 709 1330 709 1323 730.5 c 128,-1,28
 1316 752 1316 752 1305.5 770.5 c 128,-1,29
 1295 789 1295 789 1268.5 807.5 c 128,-1,30
 1242 826 1242 826 1206 834.5 c 128,-1,31
 1170 843 1170 843 1099 843 c 2,32,-1
 809 843 l 1,33,-1
 809 401 l 2,34,35
 809 318 809 318 833 297 c 128,-1,36
 857 276 857 276 905 276 c 2,37,-1
 1249 275 l 2,38,39
 1294 274 1294 274 1333.5 284 c 128,-1,40
 1373 294 1373 294 1402.5 310.5 c 128,-1,41
 1432 327 1432 327 1459 353.5 c 128,-1,42
 1486 380 1486 380 1509.5 416.5 c 128,-1,43
 1533 453 1533 453 1545 491.5 c 128,-1,44
 1557 530 1557 530 1571.5 543 c 128,-1,45
 1586 556 1586 556 1598 551 c 128,-1,46
 1610 546 1610 546 1603 521 c 2,47,-1
 1504 197 l 1,48,-1
 493 197 l 2,49,50
 473 197 473 197 475 214.5 c 128,-1,51
 477 232 477 232 493 234 c 2,52,-1
 544 240 l 2,53,54
 595 246 595 246 624.5 264.5 c 128,-1,55
 654 283 654 283 662 322 c 128,-1,56
 670 361 670 361 670 453 c 2,57,-1
 670 1299 l 2,58,59
 670 1358 670 1358 641.5 1399.5 c 128,-1,60
 613 1441 613 1441 552 1454 c 1,61,-1
 509 1460 l 1,62,-1
 476 1465 l 2,63,64
 464 1466 464 1466 462 1483.5 c 128,-1,65
 460 1501 460 1501 479 1501 c 2,66,-1
 1456 1501 l 1,0,-1
EndSplineSet
Validated: 33
EndChar
StartChar: uni0416
Encoding: 1046 1046 828
Width: 2048
Flags: W
LayerCount: 2
Back
Fore
SplineSet
737 893 m 1,0,-1
 370 1291 l 2,1,2
 325 1339 325 1339 294 1363 c 128,-1,3
 263 1387 263 1387 222.5 1406.5 c 128,-1,4
 182 1426 182 1426 149 1435 c 2,5,-1
 108 1446 l 2,6,7
 91 1450 91 1450 90.5 1467 c 128,-1,8
 90 1484 90 1484 108 1484 c 2,9,-1
 572 1484 l 2,10,11
 595 1484 595 1484 597 1464 c 128,-1,12
 599 1444 599 1444 575 1441 c 2,13,-1
 534 1435 l 2,14,15
 510 1431 510 1431 486 1416.5 c 128,-1,16
 462 1402 462 1402 457 1378.5 c 128,-1,17
 452 1355 452 1355 471 1322 c 128,-1,18
 490 1289 490 1289 517 1261 c 2,19,-1
 799 955 l 2,20,21
 831 919 831 919 851.5 903.5 c 128,-1,22
 872 888 872 888 891 890 c 2,23,-1
 925 890 l 1,24,-1
 925 1261 l 2,25,26
 925 1319 925 1319 911.5 1356 c 128,-1,27
 898 1393 898 1393 865 1414 c 128,-1,28
 832 1435 832 1435 796 1441 c 2,29,-1
 747 1449 l 2,30,31
 719 1453 719 1453 723.5 1471.5 c 128,-1,32
 728 1490 728 1490 752 1490 c 2,33,-1
 1221 1490 l 2,34,35
 1253 1490 1253 1490 1253.5 1469.5 c 128,-1,36
 1254 1449 1254 1449 1235 1446 c 2,37,-1
 1194 1438 l 2,38,39
 1150 1429 1150 1429 1119 1406.5 c 128,-1,40
 1088 1384 1088 1384 1077 1347 c 128,-1,41
 1066 1310 1066 1310 1066 1261 c 2,42,-1
 1066 890 l 1,43,44
 1089 889 1089 889 1111 890 c 128,-1,45
 1133 891 1133 891 1155 902 c 128,-1,46
 1177 913 1177 913 1224 964 c 2,47,-1
 1511 1274 l 2,48,49
 1531 1295 1531 1295 1550.5 1330.5 c 128,-1,50
 1570 1366 1570 1366 1570 1383 c 0,51,52
 1569 1399 1569 1399 1556 1418.5 c 128,-1,53
 1543 1438 1543 1438 1511 1446 c 2,54,-1
 1473 1455 l 2,55,56
 1443 1462 1443 1462 1441 1480 c 128,-1,57
 1439 1498 1439 1498 1475 1498 c 2,58,-1
 1914 1498 l 2,59,60
 1941 1498 1941 1498 1945 1481 c 128,-1,61
 1949 1464 1949 1464 1912 1452 c 2,62,-1
 1860 1435 l 2,63,64
 1817 1421 1817 1421 1786 1405.5 c 128,-1,65
 1755 1390 1755 1390 1713 1348 c 2,66,-1
 1636 1263 l 1,67,-1
 1286 896 l 1,68,-1
 1707 393 l 2,69,70
 1726 369 1726 369 1758.5 337.5 c 128,-1,71
 1791 306 1791 306 1819.5 289.5 c 128,-1,72
 1848 273 1848 273 1879 260.5 c 128,-1,73
 1910 248 1910 248 1939 242.5 c 128,-1,74
 1968 237 1968 237 1983 228 c 128,-1,75
 1998 219 1998 219 1995 205.5 c 128,-1,76
 1992 192 1992 192 1974 192 c 2,77,-1
 1478 192 l 2,78,79
 1455 192 1455 192 1455.5 206.5 c 128,-1,80
 1456 221 1456 221 1470 226 c 2,81,-1
 1500 235 l 1,82,-1
 1539 245 l 2,83,84
 1565 252 1565 252 1574.5 263.5 c 128,-1,85
 1584 275 1584 275 1584.5 293 c 128,-1,86
 1585 311 1585 311 1560 346 c 0,87,88
 1523 395 1523 395 1496 429 c 128,-1,89
 1469 463 1469 463 1349.5 606 c 128,-1,90
 1230 749 1230 749 1180.5 793.5 c 128,-1,91
 1131 838 1131 838 1120 838 c 2,92,-1
 1066 841 l 1,93,-1
 1066 483 l 2,94,95
 1066 402 1066 402 1077.5 355 c 128,-1,96
 1089 308 1089 308 1118.5 276.5 c 128,-1,97
 1148 245 1148 245 1205 237 c 2,98,-1
 1238 232 l 2,99,100
 1263 228 1263 228 1264.5 207 c 128,-1,101
 1266 186 1266 186 1243 186 c 2,102,-1
 768 186 l 2,103,104
 729 186 729 186 729.5 204 c 128,-1,105
 730 222 730 222 747 226 c 2,106,-1
 790 235 l 2,107,108
 830 243 830 243 864.5 261 c 128,-1,109
 899 279 899 279 912 346 c 128,-1,110
 925 413 925 413 925 483 c 2,111,-1
 925 841 l 1,112,113
 903 842 903 842 883.5 839 c 128,-1,114
 864 836 864 836 819 783 c 2,115,-1
 621 561 l 2,116,117
 571 502 571 502 517.5 434.5 c 128,-1,118
 464 367 464 367 443.5 335 c 128,-1,119
 423 303 423 303 425 286 c 0,120,121
 427 253 427 253 445.5 244.5 c 128,-1,122
 464 236 464 236 525 226 c 2,123,-1
 566 219 l 2,124,125
 591 214 591 214 588 196.5 c 128,-1,126
 585 179 585 179 569 179 c 2,127,-1
 56 179 l 2,128,129
 39 179 39 179 42 196.5 c 128,-1,130
 45 214 45 214 56 216 c 2,131,-1
 94 221 l 2,132,133
 145 227 145 227 186.5 252.5 c 128,-1,134
 228 278 228 278 264 314 c 128,-1,135
 300 350 300 350 326 382 c 2,136,-1
 737 893 l 1,0,-1
EndSplineSet
Validated: 1
EndChar
StartChar: uni0417
Encoding: 1047 1047 829
Width: 2048
Flags: W
LayerCount: 2
Back
Fore
SplineSet
1179 880 m 1,0,1
 1250 861 1250 861 1312.5 834 c 128,-1,2
 1375 807 1375 807 1432 727.5 c 128,-1,3
 1489 648 1489 648 1485 536 c 0,4,5
 1480 433 1480 433 1427 358.5 c 128,-1,6
 1374 284 1374 284 1288.5 236.5 c 128,-1,7
 1203 189 1203 189 1080.5 172 c 128,-1,8
 958 155 958 155 863 169 c 0,9,10
 733 187 733 187 655.5 244 c 128,-1,11
 578 301 578 301 547 355.5 c 128,-1,12
 516 410 516 410 501 448 c 128,-1,13
 486 486 486 486 487.5 497.5 c 128,-1,14
 489 509 489 509 499.5 513.5 c 128,-1,15
 510 518 510 518 527 506 c 0,16,17
 545 492 545 492 570.5 443 c 128,-1,18
 596 394 596 394 655.5 332.5 c 128,-1,19
 715 271 715 271 857 249 c 0,20,21
 988 228 988 228 1109.5 278.5 c 128,-1,22
 1231 329 1231 329 1277 408.5 c 128,-1,23
 1323 488 1323 488 1325 577.5 c 128,-1,24
 1327 667 1327 667 1270 735 c 0,25,26
 1212 803 1212 803 1124.5 820 c 128,-1,27
 1037 837 1037 837 977 840 c 128,-1,28
 917 843 917 843 910 844 c 2,29,-1
 877 847 l 2,30,31
 859 848 859 848 847 855 c 128,-1,32
 835 862 835 862 835.5 881 c 128,-1,33
 836 900 836 900 863 910 c 0,34,35
 871 913 871 913 906.5 912.5 c 128,-1,36
 942 912 942 912 945 913 c 0,37,38
 988 914 988 914 1039.5 924 c 128,-1,39
 1091 934 1091 934 1152.5 965.5 c 128,-1,40
 1214 997 1214 997 1246.5 1053 c 128,-1,41
 1279 1109 1279 1109 1277 1196 c 0,42,43
 1274 1273 1274 1273 1237 1342 c 128,-1,44
 1200 1411 1200 1411 1118.5 1442 c 128,-1,45
 1037 1473 1037 1473 961 1470 c 0,46,47
 857 1465 857 1465 789 1421.5 c 128,-1,48
 721 1378 721 1378 694.5 1332 c 128,-1,49
 668 1286 668 1286 642 1227.5 c 128,-1,50
 616 1169 616 1169 605 1140 c 128,-1,51
 594 1111 594 1111 575 1112 c 128,-1,52
 556 1113 556 1113 558 1139 c 2,53,-1
 582 1519 l 2,54,55
 583 1542 583 1542 599 1542.5 c 128,-1,56
 615 1543 615 1543 626 1522 c 0,57,58
 641 1491 641 1491 648.5 1482 c 128,-1,59
 656 1473 656 1473 686 1470 c 0,60,61
 704 1467 704 1467 718 1471 c 128,-1,62
 732 1475 732 1475 797.5 1498.5 c 128,-1,63
 863 1522 863 1522 915.5 1531.5 c 128,-1,64
 968 1541 968 1541 1019 1541 c 0,65,66
 1086 1540 1086 1540 1164.5 1518 c 128,-1,67
 1243 1496 1243 1496 1304.5 1446.5 c 128,-1,68
 1366 1397 1366 1397 1399 1336 c 128,-1,69
 1432 1275 1432 1275 1435.5 1203.5 c 128,-1,70
 1439 1132 1439 1132 1414 1077 c 0,71,72
 1390 1025 1390 1025 1333 973 c 128,-1,73
 1276 921 1276 921 1240 907 c 2,74,-1
 1179 880 l 1,75,-1
 1179 880 l 1,0,1
EndSplineSet
Validated: 37
EndChar
StartChar: uni0418
Encoding: 1048 1048 830
Width: 2048
Flags: W
LayerCount: 2
Back
Fore
SplineSet
1377 1169 m 1,0,-1
 668 389 l 1,1,2
 670 364 670 364 675 341 c 128,-1,3
 680 318 680 318 703 287.5 c 128,-1,4
 726 257 726 257 754 244.5 c 128,-1,5
 782 232 782 232 818 225 c 2,6,-1
 854 217 l 2,7,8
 882 210 882 210 878.5 192 c 128,-1,9
 875 174 875 174 852 174 c 2,10,-1
 346 174 l 2,11,12
 320 174 320 174 317.5 193 c 128,-1,13
 315 212 315 212 346 217 c 2,14,-1
 401 225 l 2,15,16
 424 228 424 228 456.5 247 c 128,-1,17
 489 266 489 266 507 295 c 128,-1,18
 525 324 525 324 529.5 360.5 c 128,-1,19
 534 397 534 397 534 432 c 2,20,-1
 534 1237 l 2,21,22
 534 1265 534 1265 523 1307.5 c 128,-1,23
 512 1350 512 1350 490.5 1379.5 c 128,-1,24
 469 1409 469 1409 440 1421.5 c 128,-1,25
 411 1434 411 1434 376 1439 c 2,26,-1
 334 1444 l 2,27,28
 309 1447 309 1447 310 1467.5 c 128,-1,29
 311 1488 311 1488 334 1488 c 2,30,-1
 847 1488 l 2,31,32
 873 1488 873 1488 871 1467 c 128,-1,33
 869 1446 869 1446 849 1444 c 2,34,-1
 813 1439 l 2,35,36
 781 1434 781 1434 752.5 1422.5 c 128,-1,37
 724 1411 724 1411 704.5 1387.5 c 128,-1,38
 685 1364 685 1364 675 1321 c 128,-1,39
 665 1278 665 1278 666 1237 c 2,40,-1
 668 500 l 1,41,-1
 1377 1292 l 1,42,-1
 1377 1302 l 2,43,44
 1377 1327 1377 1327 1365 1355 c 128,-1,45
 1353 1383 1353 1383 1333.5 1401.5 c 128,-1,46
 1314 1420 1314 1420 1287 1430 c 128,-1,47
 1260 1440 1260 1440 1217 1447 c 2,48,-1
 1175 1453 l 2,49,50
 1148 1456 1148 1456 1150.5 1476 c 128,-1,51
 1153 1496 1153 1496 1175 1496 c 2,52,-1
 1690 1496 l 2,53,54
 1717 1496 1717 1496 1715 1476 c 128,-1,55
 1713 1456 1713 1456 1692 1453 c 2,56,-1
 1657 1447 l 2,57,58
 1618 1440 1618 1440 1593 1430 c 128,-1,59
 1568 1420 1568 1420 1547 1395 c 128,-1,60
 1526 1370 1526 1370 1517.5 1330.5 c 128,-1,61
 1509 1291 1509 1291 1509 1245 c 2,62,-1
 1509 446 l 2,63,64
 1509 410 1509 410 1515.5 371.5 c 128,-1,65
 1522 333 1522 333 1545 301 c 128,-1,66
 1568 269 1568 269 1596.5 256 c 128,-1,67
 1625 243 1625 243 1662 235 c 2,68,-1
 1698 227 l 2,69,70
 1727 220 1727 220 1723 202.5 c 128,-1,71
 1719 185 1719 185 1695 185 c 2,72,-1
 1187 185 l 2,73,74
 1160 185 1160 185 1158.5 203.5 c 128,-1,75
 1157 222 1157 222 1187 227 c 2,76,-1
 1242 235 l 2,77,78
 1265 238 1265 238 1298 258 c 128,-1,79
 1331 278 1331 278 1349 306 c 128,-1,80
 1367 334 1367 334 1371 370.5 c 128,-1,81
 1375 407 1375 407 1376 442 c 2,82,-1
 1377 1169 l 1,0,-1
EndSplineSet
Validated: 33
EndChar
StartChar: uni0419
Encoding: 1087 1049 831
Width: 2048
Flags: W
LayerCount: 3
Back
Fore
SplineSet
1038 1579 m 0,0,1
 897 1575 897 1575 850.5 1627.5 c 128,-1,2
 804 1680 804 1680 785 1714 c 128,-1,3
 766 1748 766 1748 767 1769 c 128,-1,4
 768 1790 768 1790 788.5 1796 c 128,-1,5
 809 1802 809 1802 831 1783 c 1,6,-1
 863 1742 l 2,7,8
 882 1719 882 1719 931 1701.5 c 128,-1,9
 980 1684 980 1684 1038 1687 c 0,10,11
 1084 1688 1084 1688 1134.5 1706 c 128,-1,12
 1185 1724 1185 1724 1208 1757 c 128,-1,13
 1231 1790 1231 1790 1248 1801.5 c 128,-1,14
 1265 1813 1265 1813 1276.5 1802.5 c 128,-1,15
 1288 1792 1288 1792 1289 1774 c 128,-1,16
 1290 1756 1290 1756 1269 1723 c 0,17,18
 1233 1666 1233 1666 1183.5 1623.5 c 128,-1,19
 1134 1581 1134 1581 1038 1579 c 0,0,1
1386 1166 m 1,20,-1
 677 386 l 1,21,22
 679 362 679 362 684 338.5 c 128,-1,23
 689 315 689 315 712 285.5 c 128,-1,24
 735 256 735 256 764 242.5 c 128,-1,25
 793 229 793 229 827 222 c 2,26,-1
 863 214 l 2,27,28
 891 207 891 207 887.5 189 c 128,-1,29
 884 171 884 171 861 171 c 2,30,-1
 355 171 l 2,31,32
 328 171 328 171 326.5 190 c 128,-1,33
 325 209 325 209 355 214 c 2,34,-1
 410 222 l 2,35,36
 431 225 431 225 465 245 c 128,-1,37
 499 265 499 265 516.5 292.5 c 128,-1,38
 534 320 534 320 538.5 358 c 128,-1,39
 543 396 543 396 543 430 c 2,40,-1
 543 1235 l 2,41,42
 543 1263 543 1263 532 1305.5 c 128,-1,43
 521 1348 521 1348 499.5 1377.5 c 128,-1,44
 478 1407 478 1407 449 1419.5 c 128,-1,45
 420 1432 420 1432 385 1437 c 2,46,-1
 343 1442 l 2,47,48
 318 1445 318 1445 319 1465 c 128,-1,49
 320 1485 320 1485 343 1485 c 2,50,-1
 856 1485 l 2,51,52
 882 1485 882 1485 880 1464.5 c 128,-1,53
 878 1444 878 1444 858 1442 c 2,54,-1
 822 1437 l 2,55,56
 790 1432 790 1432 761.5 1420.5 c 128,-1,57
 733 1409 733 1409 713.5 1384.5 c 128,-1,58
 694 1360 694 1360 684 1318 c 128,-1,59
 674 1276 674 1276 675 1235 c 2,60,-1
 677 498 l 1,61,-1
 1386 1289 l 1,62,-1
 1386 1300 l 2,63,64
 1386 1325 1386 1325 1374 1353 c 128,-1,65
 1362 1381 1362 1381 1342.5 1399 c 128,-1,66
 1323 1417 1323 1417 1294 1428.5 c 128,-1,67
 1265 1440 1265 1440 1226 1445 c 2,68,-1
 1184 1450 l 2,69,70
 1157 1453 1157 1453 1159.5 1473.5 c 128,-1,71
 1162 1494 1162 1494 1184 1494 c 2,72,-1
 1699 1494 l 2,73,74
 1725 1494 1725 1494 1723.5 1473.5 c 128,-1,75
 1722 1453 1722 1453 1701 1450 c 2,76,-1
 1666 1445 l 2,77,78
 1630 1439 1630 1439 1603 1428 c 128,-1,79
 1576 1417 1576 1417 1555.5 1392.5 c 128,-1,80
 1535 1368 1535 1368 1526.5 1329.5 c 128,-1,81
 1518 1291 1518 1291 1518 1244 c 2,82,-1
 1518 443 l 2,83,84
 1518 408 1518 408 1524.5 370 c 128,-1,85
 1531 332 1531 332 1554.5 298.5 c 128,-1,86
 1578 265 1578 265 1604 253 c 128,-1,87
 1630 241 1630 241 1671 233 c 2,88,-1
 1707 225 l 2,89,90
 1736 218 1736 218 1732 200.5 c 128,-1,91
 1728 183 1728 183 1704 183 c 2,92,-1
 1196 183 l 2,93,94
 1169 183 1169 183 1167.5 201.5 c 128,-1,95
 1166 220 1166 220 1196 225 c 2,96,-1
 1251 233 l 2,97,98
 1275 236 1275 236 1307.5 255 c 128,-1,99
 1340 274 1340 274 1358 303 c 128,-1,100
 1376 332 1376 332 1380 368.5 c 128,-1,101
 1384 405 1384 405 1385 440 c 2,102,-1
 1386 1166 l 1,20,-1
EndSplineSet
Layer: 2
EndChar
StartChar: uni041A
Encoding: 1050 1050 832
Width: 2048
Flags: W
LayerCount: 2
Back
Fore
SplineSet
699 895 m 1,0,-1
 781 895 l 2,1,2
 812 895 812 895 852 920 c 128,-1,3
 892 945 892 945 916.5 971 c 128,-1,4
 941 997 941 997 1043 1114 c 2,5,-1
 1188 1277 l 2,6,7
 1225 1321 1225 1321 1243 1353 c 128,-1,8
 1261 1385 1261 1385 1259 1399 c 128,-1,9
 1257 1413 1257 1413 1247.5 1426 c 128,-1,10
 1238 1439 1238 1439 1203 1446 c 2,11,-1
 1147 1457 l 2,12,13
 1122 1461 1122 1461 1122.5 1477 c 128,-1,14
 1123 1493 1123 1493 1150 1493 c 2,15,-1
 1610 1492 l 2,16,17
 1627 1491 1627 1491 1630.5 1478 c 128,-1,18
 1634 1465 1634 1465 1611 1460 c 2,19,-1
 1562 1449 l 2,20,21
 1515 1438 1515 1438 1484 1423.5 c 128,-1,22
 1453 1409 1453 1409 1422.5 1383.5 c 128,-1,23
 1392 1358 1392 1358 1360.5 1325 c 128,-1,24
 1329 1292 1329 1292 1207 1165.5 c 128,-1,25
 1085 1039 1085 1039 1063 1015 c 2,26,-1
 986 933 l 1,27,-1
 1432 411 l 2,28,29
 1470 365 1470 365 1501 335 c 128,-1,30
 1532 305 1532 305 1568.5 279.5 c 128,-1,31
 1605 254 1605 254 1635 248 c 2,32,-1
 1712 232 l 2,33,34
 1736 226 1736 226 1736.5 210 c 128,-1,35
 1737 194 1737 194 1714 194 c 2,36,-1
 1223 194 l 2,37,38
 1190 194 1190 194 1194.5 210 c 128,-1,39
 1199 226 1199 226 1220 229 c 2,40,-1
 1264 234 l 2,41,42
 1307 238 1307 238 1322 261.5 c 128,-1,43
 1337 285 1337 285 1329 308.5 c 128,-1,44
 1321 332 1321 332 1295 363 c 2,45,-1
 1234 434 l 2,46,47
 1144 537 1144 537 1083 605 c 128,-1,48
 1022 673 1022 673 976 729 c 128,-1,49
 930 785 930 785 892.5 814 c 128,-1,50
 855 843 855 843 817 843 c 2,51,-1
 699 843 l 1,52,-1
 698 444 l 2,53,54
 697 379 697 379 711.5 337 c 128,-1,55
 726 295 726 295 755 275.5 c 128,-1,56
 784 256 784 256 824 245 c 2,57,-1
 881 228 l 2,58,59
 907 220 907 220 904.5 204 c 128,-1,60
 902 188 902 188 875 188 c 2,61,-1
 393 188 l 2,62,63
 359 188 359 188 359.5 203.5 c 128,-1,64
 360 219 360 219 390 228 c 2,65,-1
 447 245 l 2,66,67
 482 255 482 255 511 280.5 c 128,-1,68
 540 306 540 306 549.5 350.5 c 128,-1,69
 559 395 559 395 559 444 c 2,70,-1
 559 1246 l 2,71,72
 559 1293 559 1293 545.5 1335.5 c 128,-1,73
 532 1378 532 1378 499.5 1400.5 c 128,-1,74
 467 1423 467 1423 417 1437 c 2,75,-1
 376 1448 l 2,76,77
 354 1453 354 1453 355 1471 c 128,-1,78
 356 1489 356 1489 379 1489 c 2,79,-1
 887 1489 l 2,80,81
 903 1489 903 1489 906 1473 c 128,-1,82
 909 1457 909 1457 884 1451 c 2,83,-1
 827 1437 l 2,84,85
 788 1427 788 1427 755 1403.5 c 128,-1,86
 722 1380 722 1380 709.5 1338.5 c 128,-1,87
 697 1297 697 1297 698 1246 c 2,88,-1
 699 895 l 1,0,-1
EndSplineSet
Validated: 33
EndChar
StartChar: uni041B
Encoding: 1089 1051 833
Width: 2048
Flags: W
LayerCount: 3
Back
Fore
SplineSet
718 546 m 2,0,-1
 718 1201 l 2,1,2
 718 1275 718 1275 706.5 1317.5 c 128,-1,3
 695 1360 695 1360 666 1389 c 128,-1,4
 637 1418 637 1418 590 1430 c 2,5,-1
 532 1444 l 2,6,7
 509 1449 509 1449 510.5 1465 c 128,-1,8
 512 1481 512 1481 532 1481 c 2,9,-1
 1605 1481 l 2,10,11
 1637 1481 1637 1481 1632 1462 c 128,-1,12
 1627 1443 1627 1443 1605 1440 c 2,13,-1
 1545 1430 l 2,14,15
 1492 1421 1492 1421 1468.5 1393.5 c 128,-1,16
 1445 1366 1445 1366 1436 1329 c 128,-1,17
 1427 1292 1427 1292 1427 1225 c 2,18,-1
 1427 526 l 2,19,20
 1427 448 1427 448 1439.5 384 c 128,-1,21
 1452 320 1452 320 1480 288.5 c 128,-1,22
 1508 257 1508 257 1561 242 c 2,23,-1
 1616 226 l 2,24,25
 1641 218 1641 218 1637.5 202.5 c 128,-1,26
 1634 187 1634 187 1616 187 c 2,27,-1
 1111 187 l 2,28,29
 1087 187 1087 187 1086.5 203.5 c 128,-1,30
 1086 220 1086 220 1106 224 c 2,31,-1
 1147 232 l 2,32,33
 1200 242 1200 242 1238.5 272.5 c 128,-1,34
 1277 303 1277 303 1284.5 364.5 c 128,-1,35
 1292 426 1292 426 1292 524 c 2,36,-1
 1292 1225 l 2,37,38
 1292 1285 1292 1285 1280 1328 c 128,-1,39
 1268 1371 1268 1371 1235.5 1393.5 c 128,-1,40
 1203 1416 1203 1416 1153 1416 c 2,41,-1
 995 1415 l 2,42,43
 921 1414 921 1414 877 1385.5 c 128,-1,44
 833 1357 833 1357 823.5 1315 c 128,-1,45
 814 1273 814 1273 814 1201 c 2,46,-1
 814 540 l 2,47,48
 814 508 814 508 808 449 c 128,-1,49
 802 390 802 390 790.5 339 c 128,-1,50
 779 288 779 288 746 241.5 c 128,-1,51
 713 195 713 195 647 167.5 c 128,-1,52
 581 140 581 140 505.5 146 c 128,-1,53
 430 152 430 152 390.5 190.5 c 128,-1,54
 351 229 351 229 352 285 c 0,55,56
 352 333 352 333 385.5 366.5 c 128,-1,57
 419 400 419 400 466 401 c 128,-1,58
 513 402 513 402 543 375 c 0,59,60
 565 353 565 353 571 323 c 2,61,-1
 577 267 l 2,62,63
 580 251 580 251 594 238 c 128,-1,64
 608 225 608 225 642 237 c 0,65,66
 669 246 669 246 683.5 276 c 128,-1,67
 698 306 698 306 704.5 360.5 c 128,-1,68
 711 415 711 415 714.5 461.5 c 128,-1,69
 718 508 718 508 718 546 c 2,0,-1
EndSplineSet
Layer: 2
EndChar
